<svg width="157" height="160" viewBox="0 0 157 160" fill="none" xmlns="http://www.w3.org/2000/svg">
<path d="M37.6 136L42.76 122H44.54L49.68 136H47.9L46.62 132.4H40.66L39.36 136H37.6ZM41.16 131.04H46.12L43.64 124.12L41.16 131.04ZM55.6144 136.24C54.6277 136.24 53.761 136.013 53.0144 135.56C52.281 135.107 51.7077 134.487 51.2944 133.7C50.8944 132.913 50.6944 132.02 50.6944 131.02C50.6944 130.02 50.901 129.133 51.3144 128.36C51.7277 127.573 52.301 126.96 53.0344 126.52C53.7677 126.067 54.6344 125.84 55.6344 125.84C56.4477 125.84 57.1677 126.007 57.7944 126.34C58.421 126.673 58.9077 127.14 59.2544 127.74V121.6H60.9344V136H59.4144L59.2544 134.36C58.9344 134.84 58.4744 135.273 57.8744 135.66C57.2744 136.047 56.521 136.24 55.6144 136.24ZM55.7944 134.78C56.461 134.78 57.0477 134.627 57.5544 134.32C58.0744 134 58.4744 133.56 58.7544 133C59.0477 132.44 59.1944 131.787 59.1944 131.04C59.1944 130.293 59.0477 129.64 58.7544 129.08C58.4744 128.52 58.0744 128.087 57.5544 127.78C57.0477 127.46 56.461 127.3 55.7944 127.3C55.141 127.3 54.5544 127.46 54.0344 127.78C53.5277 128.087 53.1277 128.52 52.8344 129.08C52.5544 129.64 52.4144 130.293 52.4144 131.04C52.4144 131.787 52.5544 132.44 52.8344 133C53.1277 133.56 53.5277 134 54.0344 134.32C54.5544 134.627 55.141 134.78 55.7944 134.78ZM68.173 136.24C67.1863 136.24 66.3196 136.013 65.573 135.56C64.8396 135.107 64.2663 134.487 63.853 133.7C63.453 132.913 63.253 132.02 63.253 131.02C63.253 130.02 63.4596 129.133 63.873 128.36C64.2863 127.573 64.8596 126.96 65.593 126.52C66.3263 126.067 67.193 125.84 68.193 125.84C69.0063 125.84 69.7263 126.007 70.353 126.34C70.9796 126.673 71.4663 127.14 71.813 127.74V121.6H73.493V136H71.973L71.813 134.36C71.493 134.84 71.033 135.273 70.433 135.66C69.833 136.047 69.0796 136.24 68.173 136.24ZM68.353 134.78C69.0196 134.78 69.6063 134.627 70.113 134.32C70.633 134 71.033 133.56 71.313 133C71.6063 132.44 71.753 131.787 71.753 131.04C71.753 130.293 71.6063 129.64 71.313 129.08C71.033 128.52 70.633 128.087 70.113 127.78C69.6063 127.46 69.0196 127.3 68.353 127.3C67.6996 127.3 67.113 127.46 66.593 127.78C66.0863 128.087 65.6863 128.52 65.393 129.08C65.113 129.64 64.973 130.293 64.973 131.04C64.973 131.787 65.113 132.44 65.393 133C65.6863 133.56 66.0863 134 66.593 134.32C67.113 134.627 67.6996 134.78 68.353 134.78ZM84.9045 136V123.38H80.7245V122H90.7645V123.38H86.5845V136H84.9045ZM94.5316 136.24C93.7049 136.24 93.0182 136.1 92.4716 135.82C91.9249 135.54 91.5182 135.167 91.2516 134.7C90.9849 134.233 90.8516 133.727 90.8516 133.18C90.8516 132.167 91.2382 131.387 92.0116 130.84C92.7849 130.293 93.8382 130.02 95.1716 130.02H97.8516V129.9C97.8516 129.033 97.6249 128.38 97.1716 127.94C96.7182 127.487 96.1116 127.26 95.3516 127.26C94.6982 127.26 94.1316 127.427 93.6516 127.76C93.1849 128.08 92.8916 128.553 92.7716 129.18H91.0516C91.1182 128.46 91.3582 127.853 91.7716 127.36C92.1982 126.867 92.7249 126.493 93.3516 126.24C93.9782 125.973 94.6449 125.84 95.3516 125.84C96.7382 125.84 97.7782 126.213 98.4716 126.96C99.1782 127.693 99.5316 128.673 99.5316 129.9V136H98.0316L97.9316 134.22C97.6516 134.78 97.2382 135.26 96.6916 135.66C96.1582 136.047 95.4382 136.24 94.5316 136.24ZM94.7916 134.82C95.4316 134.82 95.9782 134.653 96.4316 134.32C96.8982 133.987 97.2516 133.553 97.4916 133.02C97.7316 132.487 97.8516 131.927 97.8516 131.34V131.32H95.3116C94.3249 131.32 93.6249 131.493 93.2116 131.84C92.8116 132.173 92.6116 132.593 92.6116 133.1C92.6116 133.62 92.7982 134.04 93.1716 134.36C93.5582 134.667 94.0982 134.82 94.7916 134.82ZM105.852 136.24C104.665 136.24 103.679 135.94 102.892 135.34C102.105 134.74 101.645 133.927 101.512 132.9H103.232C103.339 133.42 103.612 133.873 104.052 134.26C104.505 134.633 105.112 134.82 105.872 134.82C106.579 134.82 107.099 134.673 107.432 134.38C107.765 134.073 107.932 133.713 107.932 133.3C107.932 132.7 107.712 132.3 107.272 132.1C106.845 131.9 106.239 131.72 105.452 131.56C104.919 131.453 104.385 131.3 103.852 131.1C103.319 130.9 102.872 130.62 102.512 130.26C102.152 129.887 101.972 129.4 101.972 128.8C101.972 127.933 102.292 127.227 102.932 126.68C103.585 126.12 104.465 125.84 105.572 125.84C106.625 125.84 107.485 126.107 108.152 126.64C108.832 127.16 109.225 127.907 109.332 128.88H107.672C107.605 128.373 107.385 127.98 107.012 127.7C106.652 127.407 106.165 127.26 105.552 127.26C104.952 127.26 104.485 127.387 104.152 127.64C103.832 127.893 103.672 128.227 103.672 128.64C103.672 129.04 103.879 129.353 104.292 129.58C104.719 129.807 105.292 130 106.012 130.16C106.625 130.293 107.205 130.46 107.752 130.66C108.312 130.847 108.765 131.133 109.112 131.52C109.472 131.893 109.652 132.44 109.652 133.16C109.665 134.053 109.325 134.793 108.632 135.38C107.952 135.953 107.025 136.24 105.852 136.24ZM112.052 136V121.6H113.732V130.26L117.792 126.08H119.852L115.452 130.56L120.412 136H118.272L113.732 130.86V136H112.052Z" fill="#7C7C7C"/>
<path d="M37.6 136L42.76 122H44.54L49.68 136H47.9L46.62 132.4H40.66L39.36 136H37.6ZM41.16 131.04H46.12L43.64 124.12L41.16 131.04ZM55.6144 136.24C54.6277 136.24 53.761 136.013 53.0144 135.56C52.281 135.107 51.7077 134.487 51.2944 133.7C50.8944 132.913 50.6944 132.02 50.6944 131.02C50.6944 130.02 50.901 129.133 51.3144 128.36C51.7277 127.573 52.301 126.96 53.0344 126.52C53.7677 126.067 54.6344 125.84 55.6344 125.84C56.4477 125.84 57.1677 126.007 57.7944 126.34C58.421 126.673 58.9077 127.14 59.2544 127.74V121.6H60.9344V136H59.4144L59.2544 134.36C58.9344 134.84 58.4744 135.273 57.8744 135.66C57.2744 136.047 56.521 136.24 55.6144 136.24ZM55.7944 134.78C56.461 134.78 57.0477 134.627 57.5544 134.32C58.0744 134 58.4744 133.56 58.7544 133C59.0477 132.44 59.1944 131.787 59.1944 131.04C59.1944 130.293 59.0477 129.64 58.7544 129.08C58.4744 128.52 58.0744 128.087 57.5544 127.78C57.0477 127.46 56.461 127.3 55.7944 127.3C55.141 127.3 54.5544 127.46 54.0344 127.78C53.5277 128.087 53.1277 128.52 52.8344 129.08C52.5544 129.64 52.4144 130.293 52.4144 131.04C52.4144 131.787 52.5544 132.44 52.8344 133C53.1277 133.56 53.5277 134 54.0344 134.32C54.5544 134.627 55.141 134.78 55.7944 134.78ZM68.173 136.24C67.1863 136.24 66.3196 136.013 65.573 135.56C64.8396 135.107 64.2663 134.487 63.853 133.7C63.453 132.913 63.253 132.02 63.253 131.02C63.253 130.02 63.4596 129.133 63.873 128.36C64.2863 127.573 64.8596 126.96 65.593 126.52C66.3263 126.067 67.193 125.84 68.193 125.84C69.0063 125.84 69.7263 126.007 70.353 126.34C70.9796 126.673 71.4663 127.14 71.813 127.74V121.6H73.493V136H71.973L71.813 134.36C71.493 134.84 71.033 135.273 70.433 135.66C69.833 136.047 69.0796 136.24 68.173 136.24ZM68.353 134.78C69.0196 134.78 69.6063 134.627 70.113 134.32C70.633 134 71.033 133.56 71.313 133C71.6063 132.44 71.753 131.787 71.753 131.04C71.753 130.293 71.6063 129.64 71.313 129.08C71.033 128.52 70.633 128.087 70.113 127.78C69.6063 127.46 69.0196 127.3 68.353 127.3C67.6996 127.3 67.113 127.46 66.593 127.78C66.0863 128.087 65.6863 128.52 65.393 129.08C65.113 129.64 64.973 130.293 64.973 131.04C64.973 131.787 65.113 132.44 65.393 133C65.6863 133.56 66.0863 134 66.593 134.32C67.113 134.627 67.6996 134.78 68.353 134.78ZM84.9045 136V123.38H80.7245V122H90.7645V123.38H86.5845V136H84.9045ZM94.5316 136.24C93.7049 136.24 93.0182 136.1 92.4716 135.82C91.9249 135.54 91.5182 135.167 91.2516 134.7C90.9849 134.233 90.8516 133.727 90.8516 133.18C90.8516 132.167 91.2382 131.387 92.0116 130.84C92.7849 130.293 93.8382 130.02 95.1716 130.02H97.8516V129.9C97.8516 129.033 97.6249 128.38 97.1716 127.94C96.7182 127.487 96.1116 127.26 95.3516 127.26C94.6982 127.26 94.1316 127.427 93.6516 127.76C93.1849 128.08 92.8916 128.553 92.7716 129.18H91.0516C91.1182 128.46 91.3582 127.853 91.7716 127.36C92.1982 126.867 92.7249 126.493 93.3516 126.24C93.9782 125.973 94.6449 125.84 95.3516 125.84C96.7382 125.84 97.7782 126.213 98.4716 126.96C99.1782 127.693 99.5316 128.673 99.5316 129.9V136H98.0316L97.9316 134.22C97.6516 134.78 97.2382 135.26 96.6916 135.66C96.1582 136.047 95.4382 136.24 94.5316 136.24ZM94.7916 134.82C95.4316 134.82 95.9782 134.653 96.4316 134.32C96.8982 133.987 97.2516 133.553 97.4916 133.02C97.7316 132.487 97.8516 131.927 97.8516 131.34V131.32H95.3116C94.3249 131.32 93.6249 131.493 93.2116 131.84C92.8116 132.173 92.6116 132.593 92.6116 133.1C92.6116 133.62 92.7982 134.04 93.1716 134.36C93.5582 134.667 94.0982 134.82 94.7916 134.82ZM105.852 136.24C104.665 136.24 103.679 135.94 102.892 135.34C102.105 134.74 101.645 133.927 101.512 132.9H103.232C103.339 133.42 103.612 133.873 104.052 134.26C104.505 134.633 105.112 134.82 105.872 134.82C106.579 134.82 107.099 134.673 107.432 134.38C107.765 134.073 107.932 133.713 107.932 133.3C107.932 132.7 107.712 132.3 107.272 132.1C106.845 131.9 106.239 131.72 105.452 131.56C104.919 131.453 104.385 131.3 103.852 131.1C103.319 130.9 102.872 130.62 102.512 130.26C102.152 129.887 101.972 129.4 101.972 128.8C101.972 127.933 102.292 127.227 102.932 126.68C103.585 126.12 104.465 125.84 105.572 125.84C106.625 125.84 107.485 126.107 108.152 126.64C108.832 127.16 109.225 127.907 109.332 128.88H107.672C107.605 128.373 107.385 127.98 107.012 127.7C106.652 127.407 106.165 127.26 105.552 127.26C104.952 127.26 104.485 127.387 104.152 127.64C103.832 127.893 103.672 128.227 103.672 128.64C103.672 129.04 103.879 129.353 104.292 129.58C104.719 129.807 105.292 130 106.012 130.16C106.625 130.293 107.205 130.46 107.752 130.66C108.312 130.847 108.765 131.133 109.112 131.52C109.472 131.893 109.652 132.44 109.652 133.16C109.665 134.053 109.325 134.793 108.632 135.38C107.952 135.953 107.025 136.24 105.852 136.24ZM112.052 136V121.6H113.732V130.26L117.792 126.08H119.852L115.452 130.56L120.412 136H118.272L113.732 130.86V136H112.052Z" fill="#7C7C7C"/>
<path d="M50.6166 64.0692C50.7639 63.899 50.874 63.7895 50.9027 63.7618C50.9047 63.7591 50.9071 63.7567 50.9098 63.7548L50.914 63.759C50.9267 63.7759 50.9611 63.8243 51.0171 63.9C51.3042 64.3051 52.0549 65.4776 51.9326 66.5205C51.7805 67.8044 51.1136 68.7819 50.4429 68.7025C49.7722 68.6231 49.3514 67.5182 49.5016 66.2347C49.5694 65.66 49.8583 65.1021 50.1572 64.6622C50.2982 64.4555 50.4516 64.2574 50.6166 64.0692V64.0692Z" fill="#3F964F"/>
<path d="M101.852 22.7853H50.4681C49.6589 22.7853 49.0029 23.4403 49.0029 24.2483V93.5205C49.0029 94.3285 49.6589 94.9835 50.4681 94.9835H101.852C102.661 94.9835 103.317 94.3285 103.317 93.5205V24.2483C103.317 23.4403 102.661 22.7853 101.852 22.7853Z" fill="#8EA5ED"/>
<path d="M60.0132 27.0105L46.0117 32.4388L51.1582 45.6736L65.1596 40.2453L60.0132 27.0105Z" fill="#F5A3B7"/>
<path d="M52.8896 28.9098V44.1176L53.7608 43.853V28.569L52.8896 28.9098Z" fill="#F291A9"/>
<path d="M100.42 91.8573H63.1828L54.5005 85.6356V24.7286H100.42V91.8573Z" fill="#5F7FCF"/>
<path d="M62.4867 91.3366L53.8081 85.1397L59.569 83.9738L62.4867 91.3366Z" fill="#CDD8FA"/>
<path d="M53.8081 85.1398L63.1828 91.8573C63.1828 91.8573 56.1007 89.7679 53.8081 85.1398Z" fill="#5F7FCF"/>
<path d="M90.2723 23.0724V26.4143C90.2722 26.5803 90.206 26.7395 90.0884 26.8569C89.9707 26.9743 89.8112 27.0402 89.6449 27.0402H64.0878C63.9215 27.0402 63.762 26.9743 63.6444 26.8569C63.5267 26.7395 63.4606 26.5803 63.4604 26.4143V23.0724C63.4606 22.3848 63.7342 21.7255 64.2212 21.2393C64.7081 20.7532 65.3685 20.4801 66.0571 20.4801H87.6761C88.3646 20.4802 89.0249 20.7534 89.5118 21.2395C89.9986 21.7256 90.2722 22.3849 90.2723 23.0724V23.0724Z" fill="#F37A50"/>
<path d="M82.378 21.3768H71.3518C71.3451 20.6496 71.4827 19.9283 71.7567 19.2545C72.0308 18.5808 72.4358 17.9679 72.9484 17.4513C73.461 16.9347 74.0711 16.5246 74.7433 16.2448C75.4155 15.9649 76.1366 15.8209 76.8649 15.8209C77.5932 15.8209 78.3143 15.9649 78.9866 16.2448C79.6588 16.5246 80.2688 16.9347 80.7814 17.4513C81.294 17.9679 81.6991 18.5808 81.9731 19.2545C82.2471 19.9283 82.3848 20.6496 82.378 21.3768V21.3768Z" fill="#F37A50"/>
<path d="M89.4142 21.147L63.4585 25.7874V23.0724C63.4586 22.3849 63.7322 21.7255 64.2192 21.2394C64.7062 20.7533 65.3666 20.4802 66.0551 20.4802H71.4254C71.6386 19.1932 72.3025 18.0236 73.2987 17.1799C74.295 16.3361 75.559 15.8729 76.8654 15.8729C78.1718 15.8729 79.4357 16.3361 80.432 17.1799C81.4283 18.0236 82.0921 19.1932 82.3053 20.4802H87.676C88.3182 20.4795 88.9377 20.7172 89.4142 21.147V21.147Z" fill="#DE623C"/>
<path d="M78.5139 18.8376C78.5139 19.1629 78.4173 19.4809 78.2363 19.7514C78.0552 20.0219 77.798 20.2328 77.497 20.3572C77.196 20.4817 76.8647 20.5143 76.5452 20.4508C76.2256 20.3874 75.9321 20.2307 75.7017 20.0007C75.4713 19.7707 75.3145 19.4776 75.2509 19.1585C75.1873 18.8394 75.22 18.5087 75.3446 18.2081C75.4693 17.9076 75.6805 17.6507 75.9514 17.47C76.2223 17.2892 76.5407 17.1927 76.8666 17.1927C77.3035 17.1927 77.7225 17.366 78.0314 17.6745C78.3403 17.983 78.5139 18.4014 78.5139 18.8376V18.8376Z" fill="#E3E9FF"/>
<path d="M64.7103 44.1045H56.9345C56.8163 44.1045 56.7029 44.0576 56.6193 43.9741C56.5357 43.8907 56.4888 43.7775 56.4888 43.6594V35.8952C56.4888 35.7772 56.5357 35.664 56.6193 35.5805C56.7029 35.4971 56.8163 35.4502 56.9345 35.4502H64.7103C64.8285 35.4502 64.9419 35.4971 65.0255 35.5805C65.1091 35.664 65.156 35.7772 65.156 35.8952V43.6594C65.156 43.7775 65.1091 43.8907 65.0255 43.9741C64.9419 44.0576 64.8285 44.1045 64.7103 44.1045ZM57.3807 43.2115H64.2646V36.3403H57.3807V43.2115Z" fill="#8EA5ED"/>
<path d="M86.7203 36.0348H68.7856V37.6308H86.7203V36.0348Z" fill="#CDD8FA"/>
<path d="M97.6061 36.0348H87.9448V37.6308H97.6061V36.0348Z" fill="#CDD8FA"/>
<path d="M79.0772 39.207H68.7856V40.803H79.0772V39.207Z" fill="#CDD8FA"/>
<path d="M91.3488 42.3792H68.7856V43.9747H91.3488V42.3792Z" fill="#CDD8FA"/>
<path d="M97.6056 39.207H80.2324V40.803H97.6056V39.207Z" fill="#CDD8FA"/>
<path d="M64.7103 61.8092H56.9345C56.8163 61.8092 56.7029 61.7623 56.6193 61.6788C56.5357 61.5954 56.4888 61.4822 56.4888 61.3641V53.6C56.4888 53.5415 56.5003 53.4836 56.5227 53.4296C56.5451 53.3756 56.5779 53.3266 56.6193 53.2853C56.6607 53.2439 56.7098 53.2111 56.7639 53.1888C56.818 53.1664 56.876 53.1549 56.9345 53.1549H64.7103C64.7689 53.1549 64.8268 53.1664 64.8809 53.1888C64.935 53.2111 64.9841 53.2439 65.0255 53.2853C65.0669 53.3266 65.0997 53.3756 65.1221 53.4296C65.1445 53.4836 65.156 53.5415 65.156 53.6V61.3632C65.1562 61.4217 65.1447 61.4797 65.1224 61.5338C65.1 61.5879 65.0672 61.6371 65.0258 61.6785C64.9844 61.7199 64.9353 61.7528 64.8811 61.7752C64.827 61.7976 64.7689 61.8092 64.7103 61.8092V61.8092ZM57.3807 60.9163H64.2646V54.045H57.3807V60.9163Z" fill="#8EA5ED"/>
<path d="M93.9883 53.5158H68.7856V55.1118H93.9883V53.5158Z" fill="#CDD8FA"/>
<path d="M84.704 56.688H68.7856V58.284H84.704V56.688Z" fill="#CDD8FA"/>
<path d="M75.0516 59.8602H68.7856V61.4562H75.0516V59.8602Z" fill="#CDD8FA"/>
<path d="M97.4766 59.8602H76.0698V61.4562H97.4766V59.8602Z" fill="#CDD8FA"/>
<path d="M97.4766 56.688H85.998V58.284H97.4766V56.688Z" fill="#CDD8FA"/>
<path d="M64.7103 79.4359H56.9345C56.8163 79.4359 56.7029 79.389 56.6193 79.3055C56.5357 79.2221 56.4888 79.1089 56.4888 78.9908V71.2267C56.4888 71.1086 56.5357 70.9954 56.6193 70.912C56.7029 70.8285 56.8163 70.7816 56.9345 70.7816H64.7103C64.8285 70.7816 64.9419 70.8285 65.0255 70.912C65.1091 70.9954 65.156 71.1086 65.156 71.2267V78.9908C65.156 79.1089 65.1091 79.2221 65.0255 79.3055C64.9419 79.389 64.8285 79.4359 64.7103 79.4359ZM57.3807 78.5458H64.2646V71.6722H57.3807V78.5458Z" fill="#8EA5ED"/>
<path d="M76.5186 71.0743H68.7856V72.6703H76.5186V71.0743Z" fill="#CDD8FA"/>
<path d="M97.4022 71.0743H77.374V72.6703H97.4022V71.0743Z" fill="#CDD8FA"/>
<path d="M89.6954 74.2466H68.7856V75.8426H89.6954V74.2466Z" fill="#CDD8FA"/>
<path d="M82.0805 77.4188H68.7856V79.0148H82.0805V77.4188Z" fill="#CDD8FA"/>
<path d="M93.2877 77.4188H82.9707V79.0148H93.2877V77.4188Z" fill="#CDD8FA"/>
<path d="M97.4767 74.2466H90.8931V75.8426H97.4767V74.2466Z" fill="#CDD8FA"/>
</svg>
