<svg width="157" height="160" viewBox="0 0 157 160" fill="none" xmlns="http://www.w3.org/2000/svg">
<path d="M10.54 136L15.184 123.4H16.786L21.412 136H19.81L18.658 132.76H13.294L12.124 136H10.54ZM13.744 131.536H18.208L15.976 125.308L13.744 131.536ZM23.1951 136V127.072H24.5631L24.6531 128.674C24.9411 128.11 25.3551 127.666 25.8951 127.342C26.4351 127.018 27.0471 126.856 27.7311 126.856C28.7871 126.856 29.6271 127.18 30.2511 127.828C30.8871 128.464 31.2051 129.448 31.2051 130.78V136H29.6931V130.942C29.6931 129.082 28.9251 128.152 27.3891 128.152C26.6211 128.152 25.9791 128.434 25.4631 128.998C24.9591 129.55 24.7071 130.342 24.7071 131.374V136H23.1951ZM33.4959 136V127.072H34.8639L34.9539 128.674C35.2419 128.11 35.6559 127.666 36.1959 127.342C36.7359 127.018 37.3479 126.856 38.0319 126.856C39.0879 126.856 39.9279 127.18 40.5519 127.828C41.1879 128.464 41.5059 129.448 41.5059 130.78V136H39.9939V130.942C39.9939 129.082 39.2259 128.152 37.6899 128.152C36.9219 128.152 36.2799 128.434 35.7639 128.998C35.2599 129.55 35.0079 130.342 35.0079 131.374V136H33.4959ZM47.8647 136.216C47.0247 136.216 46.2687 136.024 45.5967 135.64C44.9247 135.256 44.3907 134.716 43.9947 134.02C43.6107 133.312 43.4187 132.484 43.4187 131.536C43.4187 130.588 43.6167 129.766 44.0127 129.07C44.4087 128.362 44.9427 127.816 45.6147 127.432C46.2987 127.048 47.0607 126.856 47.9007 126.856C48.7407 126.856 49.4967 127.048 50.1687 127.432C50.8407 127.816 51.3687 128.362 51.7527 129.07C52.1487 129.766 52.3467 130.588 52.3467 131.536C52.3467 132.484 52.1487 133.312 51.7527 134.02C51.3567 134.716 50.8167 135.256 50.1327 135.64C49.4607 136.024 48.7047 136.216 47.8647 136.216ZM47.8647 134.92C48.3807 134.92 48.8607 134.794 49.3047 134.542C49.7487 134.29 50.1087 133.912 50.3847 133.408C50.6607 132.904 50.7987 132.28 50.7987 131.536C50.7987 130.792 50.6607 130.168 50.3847 129.664C50.1207 129.16 49.7667 128.782 49.3227 128.53C48.8787 128.278 48.4047 128.152 47.9007 128.152C47.3847 128.152 46.9047 128.278 46.4607 128.53C46.0167 128.782 45.6567 129.16 45.3807 129.664C45.1047 130.168 44.9667 130.792 44.9667 131.536C44.9667 132.28 45.1047 132.904 45.3807 133.408C45.6567 133.912 46.0107 134.29 46.4427 134.542C46.8867 134.794 47.3607 134.92 47.8647 134.92ZM57.707 136.216C56.651 136.216 55.811 135.898 55.187 135.262C54.563 134.614 54.251 133.624 54.251 132.292V127.072H55.763V132.13C55.763 133.99 56.525 134.92 58.049 134.92C58.829 134.92 59.471 134.644 59.975 134.092C60.491 133.528 60.749 132.73 60.749 131.698V127.072H62.261V136H60.893L60.785 134.398C60.509 134.962 60.095 135.406 59.543 135.73C59.003 136.054 58.391 136.216 57.707 136.216ZM64.7498 136V127.072H66.1178L66.2078 128.674C66.4958 128.11 66.9098 127.666 67.4498 127.342C67.9898 127.018 68.6018 126.856 69.2858 126.856C70.3418 126.856 71.1818 127.18 71.8058 127.828C72.4418 128.464 72.7598 129.448 72.7598 130.78V136H71.2478V130.942C71.2478 129.082 70.4798 128.152 68.9438 128.152C68.1758 128.152 67.5338 128.434 67.0178 128.998C66.5138 129.55 66.2618 130.342 66.2618 131.374V136H64.7498ZM79.1546 136.216C78.3026 136.216 77.5346 136.024 76.8506 135.64C76.1786 135.244 75.6446 134.698 75.2486 134.002C74.8646 133.294 74.6726 132.472 74.6726 131.536C74.6726 130.6 74.8646 129.784 75.2486 129.088C75.6446 128.38 76.1786 127.834 76.8506 127.45C77.5346 127.054 78.3026 126.856 79.1546 126.856C80.2106 126.856 81.0986 127.132 81.8186 127.684C82.5506 128.236 83.0126 128.974 83.2046 129.898H81.6566C81.5366 129.346 81.2426 128.92 80.7746 128.62C80.3066 128.308 79.7606 128.152 79.1366 128.152C78.6326 128.152 78.1586 128.278 77.7146 128.53C77.2706 128.782 76.9106 129.16 76.6346 129.664C76.3586 130.168 76.2206 130.792 76.2206 131.536C76.2206 132.28 76.3586 132.904 76.6346 133.408C76.9106 133.912 77.2706 134.296 77.7146 134.56C78.1586 134.812 78.6326 134.938 79.1366 134.938C79.7606 134.938 80.3066 134.788 80.7746 134.488C81.2426 134.176 81.5366 133.738 81.6566 133.174H83.2046C83.0246 134.074 82.5686 134.806 81.8366 135.37C81.1046 135.934 80.2106 136.216 79.1546 136.216ZM89.3302 136.216C88.4782 136.216 87.7222 136.024 87.0622 135.64C86.4022 135.244 85.8802 134.698 85.4962 134.002C85.1242 133.306 84.9382 132.484 84.9382 131.536C84.9382 130.6 85.1242 129.784 85.4962 129.088C85.8682 128.38 86.3842 127.834 87.0442 127.45C87.7162 127.054 88.4902 126.856 89.3662 126.856C90.2302 126.856 90.9742 127.054 91.5982 127.45C92.2342 127.834 92.7202 128.344 93.0562 128.98C93.3922 129.616 93.5602 130.3 93.5602 131.032C93.5602 131.164 93.5542 131.296 93.5422 131.428C93.5422 131.56 93.5422 131.71 93.5422 131.878H86.4322C86.4682 132.562 86.6242 133.132 86.9002 133.588C87.1882 134.032 87.5422 134.368 87.9622 134.596C88.3942 134.824 88.8502 134.938 89.3302 134.938C89.9542 134.938 90.4762 134.794 90.8962 134.506C91.3162 134.218 91.6222 133.828 91.8142 133.336H93.3082C93.0682 134.164 92.6062 134.854 91.9222 135.406C91.2502 135.946 90.3862 136.216 89.3302 136.216ZM89.3302 128.134C88.6102 128.134 87.9682 128.356 87.4042 128.8C86.8522 129.232 86.5342 129.868 86.4502 130.708H92.0662C92.0302 129.904 91.7542 129.274 91.2382 128.818C90.7222 128.362 90.0862 128.134 89.3302 128.134ZM95.5643 136V127.072H96.9323L97.0403 128.368C97.3283 127.888 97.7123 127.516 98.1923 127.252C98.6723 126.988 99.2123 126.856 99.8123 126.856C100.52 126.856 101.126 127 101.63 127.288C102.146 127.576 102.542 128.014 102.818 128.602C103.13 128.062 103.556 127.636 104.096 127.324C104.648 127.012 105.242 126.856 105.878 126.856C106.946 126.856 107.798 127.18 108.434 127.828C109.07 128.464 109.388 129.448 109.388 130.78V136H107.894V130.942C107.894 130.018 107.708 129.322 107.336 128.854C106.964 128.386 106.43 128.152 105.734 128.152C105.014 128.152 104.414 128.434 103.934 128.998C103.466 129.55 103.232 130.342 103.232 131.374V136H101.72V130.942C101.72 130.018 101.534 129.322 101.162 128.854C100.79 128.386 100.256 128.152 99.5603 128.152C98.8523 128.152 98.2583 128.434 97.7783 128.998C97.3103 129.55 97.0763 130.342 97.0763 131.374V136H95.5643ZM115.68 136.216C114.828 136.216 114.072 136.024 113.412 135.64C112.752 135.244 112.23 134.698 111.846 134.002C111.474 133.306 111.288 132.484 111.288 131.536C111.288 130.6 111.474 129.784 111.846 129.088C112.218 128.38 112.734 127.834 113.394 127.45C114.066 127.054 114.84 126.856 115.716 126.856C116.58 126.856 117.324 127.054 117.948 127.45C118.584 127.834 119.07 128.344 119.406 128.98C119.742 129.616 119.91 130.3 119.91 131.032C119.91 131.164 119.904 131.296 119.892 131.428C119.892 131.56 119.892 131.71 119.892 131.878H112.782C112.818 132.562 112.974 133.132 113.25 133.588C113.538 134.032 113.892 134.368 114.312 134.596C114.744 134.824 115.2 134.938 115.68 134.938C116.304 134.938 116.826 134.794 117.246 134.506C117.666 134.218 117.972 133.828 118.164 133.336H119.658C119.418 134.164 118.956 134.854 118.272 135.406C117.6 135.946 116.736 136.216 115.68 136.216ZM115.68 128.134C114.96 128.134 114.318 128.356 113.754 128.8C113.202 129.232 112.884 129.868 112.8 130.708H118.416C118.38 129.904 118.104 129.274 117.588 128.818C117.072 128.362 116.436 128.134 115.68 128.134ZM121.914 136V127.072H123.282L123.372 128.674C123.66 128.11 124.074 127.666 124.614 127.342C125.154 127.018 125.766 126.856 126.45 126.856C127.506 126.856 128.346 127.18 128.97 127.828C129.606 128.464 129.924 129.448 129.924 130.78V136H128.412V130.942C128.412 129.082 127.644 128.152 126.108 128.152C125.34 128.152 124.698 128.434 124.182 128.998C123.678 129.55 123.426 130.342 123.426 131.374V136H121.914ZM135.743 136C134.927 136 134.285 135.802 133.817 135.406C133.349 135.01 133.115 134.296 133.115 133.264V128.35H131.567V127.072H133.115L133.313 124.93H134.627V127.072H137.255V128.35H134.627V133.264C134.627 133.828 134.741 134.212 134.969 134.416C135.197 134.608 135.599 134.704 136.175 134.704H137.111V136H135.743ZM142.596 136.216C141.528 136.216 140.64 135.946 139.932 135.406C139.224 134.866 138.81 134.134 138.69 133.21H140.238C140.334 133.678 140.58 134.086 140.976 134.434C141.384 134.77 141.93 134.938 142.614 134.938C143.25 134.938 143.718 134.806 144.018 134.542C144.318 134.266 144.468 133.942 144.468 133.57C144.468 133.03 144.27 132.67 143.874 132.49C143.49 132.31 142.944 132.148 142.236 132.004C141.756 131.908 141.276 131.77 140.796 131.59C140.316 131.41 139.914 131.158 139.59 130.834C139.266 130.498 139.104 130.06 139.104 129.52C139.104 128.74 139.392 128.104 139.968 127.612C140.556 127.108 141.348 126.856 142.344 126.856C143.292 126.856 144.066 127.096 144.666 127.576C145.278 128.044 145.632 128.716 145.728 129.592H144.234C144.174 129.136 143.976 128.782 143.64 128.53C143.316 128.266 142.878 128.134 142.326 128.134C141.786 128.134 141.366 128.248 141.066 128.476C140.778 128.704 140.634 129.004 140.634 129.376C140.634 129.736 140.82 130.018 141.192 130.222C141.576 130.426 142.092 130.6 142.74 130.744C143.292 130.864 143.814 131.014 144.306 131.194C144.81 131.362 145.218 131.62 145.53 131.968C145.854 132.304 146.016 132.796 146.016 133.444C146.028 134.248 145.722 134.914 145.098 135.442C144.486 135.958 143.652 136.216 142.596 136.216Z" fill="#7C7C7C"/>
<path d="M81.3028 29.0005H42.5953C41.5542 28.9883 40.522 29.1928 39.5642 29.601C38.6064 30.0091 37.744 30.612 37.0317 31.3714C36.3195 32.1308 35.773 33.03 35.4269 34.0119C35.0808 34.9938 34.9428 36.037 35.0215 37.0752L36.1078 54.0693L36.5785 61.5827L43.6212 54.0693H82.884C83.9248 54.0798 84.9565 53.8739 85.9135 53.4647C86.8706 53.0555 87.7322 52.4519 88.4437 51.6922C89.1553 50.9324 89.7011 50.0331 90.0468 49.0513C90.3924 48.0695 90.5303 47.0266 90.4517 45.9886L89.8904 37.0752C89.7223 34.9013 88.7486 32.8685 87.1602 31.375C85.5717 29.8814 83.4829 29.0346 81.3028 29.0005V29.0005Z" fill="#407BFF"/>
<path opacity="0.5" d="M81.3028 29.0005H42.5953C41.5542 28.9883 40.522 29.1928 39.5642 29.601C38.6064 30.0091 37.744 30.612 37.0317 31.3714C36.3195 32.1308 35.773 33.03 35.4269 34.0119C35.0808 34.9938 34.9428 36.037 35.0215 37.0752L36.1078 54.0693L36.5785 61.5827L43.6212 54.0693H82.884C83.9248 54.0798 84.9565 53.8739 85.9135 53.4647C86.8706 53.0555 87.7322 52.4519 88.4437 51.6922C89.1553 50.9324 89.7011 50.0331 90.0468 49.0513C90.3924 48.0695 90.5303 47.0266 90.4517 45.9886L89.8904 37.0752C89.7223 34.9013 88.7486 32.8685 87.1602 31.375C85.5717 29.8814 83.4829 29.0346 81.3028 29.0005V29.0005Z" fill="white"/>
<path d="M80.6575 40.0685H44.0742C43.7111 40.0621 43.3635 39.9207 43.0991 39.6719C42.8346 39.4231 42.6723 39.0847 42.6439 38.7227V38.7227C42.6314 38.5499 42.6548 38.3764 42.7127 38.2131C42.7705 38.0498 42.8615 37.9002 42.98 37.7738C43.0985 37.6474 43.2418 37.5468 43.4011 37.4785C43.5603 37.4102 43.7319 37.3756 43.9052 37.3769H80.4764C80.8405 37.3818 81.1896 37.5225 81.4553 37.7715C81.721 38.0205 81.8842 38.3597 81.9127 38.7227C81.9252 38.895 81.9019 39.068 81.8445 39.2309C81.787 39.3938 81.6965 39.5431 81.5787 39.6694C81.4608 39.7957 81.3182 39.8964 81.1597 39.965C81.0012 40.0337 80.8302 40.0689 80.6575 40.0685V40.0685Z" fill="white"/>
<path d="M68.5937 46.2844H44.4542C44.0905 46.2782 43.7422 46.137 43.4768 45.8883C43.2113 45.6396 43.0478 45.3011 43.0179 44.9386C43.0054 44.7658 43.0288 44.5923 43.0867 44.429C43.1445 44.2657 43.2355 44.1161 43.354 43.9897C43.4725 43.8633 43.6159 43.7628 43.7751 43.6945C43.9343 43.6262 44.106 43.5916 44.2792 43.5929H68.4186C68.7825 43.5965 69.1317 43.737 69.3967 43.9863C69.6617 44.2357 69.8231 44.5757 69.8489 44.9386C69.8614 45.1109 69.8381 45.2839 69.7806 45.4468C69.7232 45.6097 69.6327 45.759 69.5148 45.8854C69.397 46.0117 69.2544 46.1123 69.0959 46.181C68.9374 46.2497 68.7664 46.2849 68.5937 46.2844Z" fill="white"/>
<path d="M72.0874 61.5828H110.789C112.97 61.6171 115.06 62.4647 116.648 63.9595C118.237 65.4543 119.21 67.4886 119.377 69.6635L120.523 87.7681L121 95.2815L113.01 87.7681H73.7409C71.5603 87.7325 69.4714 86.8844 67.8831 85.3899C66.2948 83.8953 65.3214 81.8618 65.1533 79.6874L64.5197 69.6394C64.4445 68.6034 64.585 67.5631 64.9323 66.5841C65.2795 65.6052 65.8259 64.7089 66.5371 63.9518C67.2482 63.1947 68.1086 62.5933 69.0639 62.1856C70.0193 61.7778 71.0487 61.5726 72.0874 61.5828V61.5828Z" fill="#407BFF"/>
<path d="M89.3654 73.7189C89.4213 74.4844 89.7622 75.2011 90.3209 75.7274C90.8796 76.2537 91.6154 76.5513 92.3829 76.5613C92.7494 76.5657 93.1129 76.4938 93.4502 76.3502C93.7874 76.2066 94.0912 75.9944 94.342 75.7271C94.5929 75.4597 94.7854 75.1432 94.9073 74.7975C95.0292 74.4518 95.0779 74.0845 95.0503 73.7189C94.9917 72.9544 94.65 72.2393 94.0919 71.7135C93.5337 71.1878 92.7995 70.8893 92.0328 70.8765C91.666 70.8712 91.3021 70.9425 90.9644 71.0858C90.6267 71.2291 90.3226 71.4413 90.0716 71.7088C89.8205 71.9763 89.6281 72.2933 89.5065 72.6394C89.3849 72.9855 89.3369 73.3532 89.3654 73.7189V73.7189Z" fill="white"/>
<path d="M79.8845 74.6724C79.9403 75.4379 80.2813 76.1546 80.84 76.6809C81.3987 77.2072 82.1344 77.5048 82.9019 77.5148C83.2682 77.5193 83.6314 77.4474 83.9684 77.3037C84.3054 77.16 84.6088 76.9477 84.8592 76.6803C85.1095 76.4128 85.3015 76.0962 85.4227 75.7505C85.5439 75.4048 85.5918 75.0376 85.5633 74.6724C85.5048 73.9079 85.163 73.1927 84.6049 72.667C84.0467 72.1413 83.3125 71.8428 82.5458 71.83C82.1795 71.8255 81.8163 71.8974 81.4793 72.0411C81.1423 72.1848 80.839 72.3971 80.5886 72.6645C80.3382 72.9319 80.1463 73.2486 80.0251 73.5943C79.9038 73.94 79.8559 74.3072 79.8845 74.6724V74.6724Z" fill="white"/>
<path d="M99.051 76.1026C99.1095 76.8671 99.4513 77.5823 100.009 78.108C100.568 78.6337 101.302 78.9322 102.068 78.945C102.435 78.9495 102.798 78.8776 103.135 78.7339C103.472 78.5902 103.775 78.3779 104.026 78.1105C104.276 77.8431 104.468 77.5264 104.589 77.1807C104.71 76.835 104.758 76.4678 104.73 76.1026C104.674 75.3371 104.333 74.6204 103.774 74.0941C103.216 73.5678 102.48 73.2702 101.712 73.2602C101.346 73.2566 100.984 73.3292 100.647 73.4732C100.31 73.6172 100.007 73.8295 99.7572 74.0967C99.507 74.3639 99.315 74.6802 99.1935 75.0255C99.0719 75.3708 99.0234 75.7376 99.051 76.1026Z" fill="white"/>
</svg>
