<svg width="157" height="160" viewBox="0 0 157 160" fill="none" xmlns="http://www.w3.org/2000/svg">
<path d="M30.62 136.24C29.2467 136.24 28.06 135.94 27.06 135.34C26.0733 134.727 25.3067 133.88 24.76 132.8C24.2133 131.707 23.94 130.44 23.94 129C23.94 127.573 24.2133 126.32 24.76 125.24C25.3067 124.147 26.0733 123.293 27.06 122.68C28.06 122.067 29.2467 121.76 30.62 121.76C32.22 121.76 33.52 122.147 34.52 122.92C35.5333 123.68 36.18 124.747 36.46 126.12H34.6C34.3867 125.253 33.9467 124.56 33.28 124.04C32.6267 123.507 31.74 123.24 30.62 123.24C29.62 123.24 28.7467 123.473 28 123.94C27.2533 124.393 26.6733 125.053 26.26 125.92C25.86 126.773 25.66 127.8 25.66 129C25.66 130.2 25.86 131.233 26.26 132.1C26.6733 132.953 27.2533 133.613 28 134.08C28.7467 134.533 29.62 134.76 30.62 134.76C31.74 134.76 32.6267 134.507 33.28 134C33.9467 133.48 34.3867 132.793 34.6 131.94H36.46C36.18 133.287 35.5333 134.34 34.52 135.1C33.52 135.86 32.22 136.24 30.62 136.24ZM38.7745 136V126.08H40.2945L40.4345 127.98C40.7412 127.327 41.2079 126.807 41.8345 126.42C42.4612 126.033 43.2345 125.84 44.1545 125.84V127.6H43.6945C43.1079 127.6 42.5679 127.707 42.0745 127.92C41.5812 128.12 41.1879 128.467 40.8945 128.96C40.6012 129.453 40.4545 130.133 40.4545 131V136H38.7745ZM50.1291 136.24C49.1824 136.24 48.3424 136.027 47.6091 135.6C46.8757 135.16 46.2957 134.553 45.8691 133.78C45.4557 133.007 45.2491 132.093 45.2491 131.04C45.2491 130 45.4557 129.093 45.8691 128.32C46.2824 127.533 46.8557 126.927 47.5891 126.5C48.3357 126.06 49.1957 125.84 50.1691 125.84C51.1291 125.84 51.9557 126.06 52.6491 126.5C53.3557 126.927 53.8957 127.493 54.2691 128.2C54.6424 128.907 54.8291 129.667 54.8291 130.48C54.8291 130.627 54.8224 130.773 54.8091 130.92C54.8091 131.067 54.8091 131.233 54.8091 131.42H46.9091C46.9491 132.18 47.1224 132.813 47.4291 133.32C47.7491 133.813 48.1424 134.187 48.6091 134.44C49.0891 134.693 49.5957 134.82 50.1291 134.82C50.8224 134.82 51.4024 134.66 51.8691 134.34C52.3357 134.02 52.6757 133.587 52.8891 133.04H54.5491C54.2824 133.96 53.7691 134.727 53.0091 135.34C52.2624 135.94 51.3024 136.24 50.1291 136.24ZM50.1291 127.26C49.3291 127.26 48.6157 127.507 47.9891 128C47.3757 128.48 47.0224 129.187 46.9291 130.12H53.1691C53.1291 129.227 52.8224 128.527 52.2491 128.02C51.6757 127.513 50.9691 127.26 50.1291 127.26ZM60.3558 136.24C59.5291 136.24 58.8424 136.1 58.2958 135.82C57.7491 135.54 57.3424 135.167 57.0758 134.7C56.8091 134.233 56.6758 133.727 56.6758 133.18C56.6758 132.167 57.0624 131.387 57.8358 130.84C58.6091 130.293 59.6624 130.02 60.9958 130.02H63.6758V129.9C63.6758 129.033 63.4491 128.38 62.9958 127.94C62.5424 127.487 61.9358 127.26 61.1758 127.26C60.5224 127.26 59.9558 127.427 59.4758 127.76C59.0091 128.08 58.7158 128.553 58.5958 129.18H56.8758C56.9424 128.46 57.1824 127.853 57.5958 127.36C58.0224 126.867 58.5491 126.493 59.1758 126.24C59.8024 125.973 60.4691 125.84 61.1758 125.84C62.5624 125.84 63.6024 126.213 64.2958 126.96C65.0024 127.693 65.3558 128.673 65.3558 129.9V136H63.8558L63.7558 134.22C63.4758 134.78 63.0624 135.26 62.5158 135.66C61.9824 136.047 61.2624 136.24 60.3558 136.24ZM60.6158 134.82C61.2558 134.82 61.8024 134.653 62.2558 134.32C62.7224 133.987 63.0758 133.553 63.3158 133.02C63.5558 132.487 63.6758 131.927 63.6758 131.34V131.32H61.1358C60.1491 131.32 59.4491 131.493 59.0358 131.84C58.6358 132.173 58.4358 132.593 58.4358 133.1C58.4358 133.62 58.6224 134.04 58.9958 134.36C59.3824 134.667 59.9224 134.82 60.6158 134.82ZM71.5227 136C70.616 136 69.9027 135.78 69.3827 135.34C68.8627 134.9 68.6027 134.107 68.6027 132.96V127.5H66.8827V126.08H68.6027L68.8227 123.7H70.2827V126.08H73.2027V127.5H70.2827V132.96C70.2827 133.587 70.4093 134.013 70.6627 134.24C70.916 134.453 71.3627 134.56 72.0027 134.56H73.0427V136H71.5227ZM79.5236 136.24C78.5769 136.24 77.7369 136.027 77.0036 135.6C76.2703 135.16 75.6903 134.553 75.2636 133.78C74.8503 133.007 74.6436 132.093 74.6436 131.04C74.6436 130 74.8503 129.093 75.2636 128.32C75.6769 127.533 76.2503 126.927 76.9836 126.5C77.7303 126.06 78.5903 125.84 79.5636 125.84C80.5236 125.84 81.3503 126.06 82.0436 126.5C82.7503 126.927 83.2903 127.493 83.6636 128.2C84.0369 128.907 84.2236 129.667 84.2236 130.48C84.2236 130.627 84.2169 130.773 84.2036 130.92C84.2036 131.067 84.2036 131.233 84.2036 131.42H76.3036C76.3436 132.18 76.5169 132.813 76.8236 133.32C77.1436 133.813 77.5369 134.187 78.0036 134.44C78.4836 134.693 78.9903 134.82 79.5236 134.82C80.2169 134.82 80.7969 134.66 81.2636 134.34C81.7303 134.02 82.0703 133.587 82.2836 133.04H83.9436C83.6769 133.96 83.1636 134.727 82.4036 135.34C81.6569 135.94 80.6969 136.24 79.5236 136.24ZM79.5236 127.26C78.7236 127.26 78.0103 127.507 77.3836 128C76.7703 128.48 76.4169 129.187 76.3236 130.12H82.5636C82.5236 129.227 82.2169 128.527 81.6436 128.02C81.0703 127.513 80.3636 127.26 79.5236 127.26ZM96.9033 136.24C95.9433 136.24 95.0699 136.053 94.2833 135.68C93.5099 135.293 92.8899 134.7 92.4233 133.9C91.9566 133.1 91.7233 132.08 91.7233 130.84V122H93.4033V130.86C93.4033 132.22 93.7299 133.207 94.3833 133.82C95.0366 134.433 95.8899 134.74 96.9433 134.74C97.9966 134.74 98.8433 134.433 99.4833 133.82C100.123 133.207 100.443 132.22 100.443 130.86V122H102.123V130.84C102.123 132.08 101.89 133.1 101.423 133.9C100.957 134.7 100.33 135.293 99.5433 135.68C98.7566 136.053 97.8766 136.24 96.9033 136.24ZM108.668 136.24C107.482 136.24 106.495 135.94 105.708 135.34C104.922 134.74 104.462 133.927 104.328 132.9H106.048C106.155 133.42 106.428 133.873 106.868 134.26C107.322 134.633 107.928 134.82 108.688 134.82C109.395 134.82 109.915 134.673 110.248 134.38C110.582 134.073 110.748 133.713 110.748 133.3C110.748 132.7 110.528 132.3 110.088 132.1C109.662 131.9 109.055 131.72 108.268 131.56C107.735 131.453 107.202 131.3 106.668 131.1C106.135 130.9 105.688 130.62 105.328 130.26C104.968 129.887 104.788 129.4 104.788 128.8C104.788 127.933 105.108 127.227 105.748 126.68C106.402 126.12 107.282 125.84 108.388 125.84C109.442 125.84 110.302 126.107 110.968 126.64C111.648 127.16 112.042 127.907 112.148 128.88H110.488C110.422 128.373 110.202 127.98 109.828 127.7C109.468 127.407 108.982 127.26 108.368 127.26C107.768 127.26 107.302 127.387 106.968 127.64C106.648 127.893 106.488 128.227 106.488 128.64C106.488 129.04 106.695 129.353 107.108 129.58C107.535 129.807 108.108 130 108.828 130.16C109.442 130.293 110.022 130.46 110.568 130.66C111.128 130.847 111.582 131.133 111.928 131.52C112.288 131.893 112.468 132.44 112.468 133.16C112.482 134.053 112.142 134.793 111.448 135.38C110.768 135.953 109.842 136.24 108.668 136.24ZM119.328 136.24C118.382 136.24 117.542 136.027 116.808 135.6C116.075 135.16 115.495 134.553 115.068 133.78C114.655 133.007 114.448 132.093 114.448 131.04C114.448 130 114.655 129.093 115.068 128.32C115.482 127.533 116.055 126.927 116.788 126.5C117.535 126.06 118.395 125.84 119.368 125.84C120.328 125.84 121.155 126.06 121.848 126.5C122.555 126.927 123.095 127.493 123.468 128.2C123.842 128.907 124.028 129.667 124.028 130.48C124.028 130.627 124.022 130.773 124.008 130.92C124.008 131.067 124.008 131.233 124.008 131.42H116.108C116.148 132.18 116.322 132.813 116.628 133.32C116.948 133.813 117.342 134.187 117.808 134.44C118.288 134.693 118.795 134.82 119.328 134.82C120.022 134.82 120.602 134.66 121.068 134.34C121.535 134.02 121.875 133.587 122.088 133.04H123.748C123.482 133.96 122.968 134.727 122.208 135.34C121.462 135.94 120.502 136.24 119.328 136.24ZM119.328 127.26C118.528 127.26 117.815 127.507 117.188 128C116.575 128.48 116.222 129.187 116.128 130.12H122.368C122.328 129.227 122.022 128.527 121.448 128.02C120.875 127.513 120.168 127.26 119.328 127.26ZM126.255 136V126.08H127.775L127.915 127.98C128.222 127.327 128.688 126.807 129.315 126.42C129.942 126.033 130.715 125.84 131.635 125.84V127.6H131.175C130.588 127.6 130.048 127.707 129.555 127.92C129.062 128.12 128.668 128.467 128.375 128.96C128.082 129.453 127.935 130.133 127.935 131V136H126.255Z" fill="#7C7C7C"/>
<path d="M113.789 68.2111C118.324 48.9977 106.424 29.7459 87.2108 25.2112C67.9974 20.6764 48.7457 32.5758 44.2109 51.7892C39.6762 71.0026 51.5755 90.2543 70.7889 94.7891C90.0023 99.3238 109.254 87.4245 113.789 68.2111Z" fill="#FCE8E3"/>
<path d="M90 55H69V76H90V55Z" fill="#E2988F"/>
<path d="M97.6956 40.9756C96.6429 38.5009 94.4989 39.7033 94.4989 39.7033C95.7388 28.4368 89.9203 21 79.0002 21C68.08 21 62.2809 28.4368 63.5014 39.7033C63.5014 39.7033 61.3574 38.4882 60.3048 40.9756C59.2521 43.463 61.1701 49.2458 62.3583 51.1161C62.7045 51.6452 63.2022 52.0612 63.7885 52.3115C64.3748 52.5617 65.0233 52.635 65.6518 52.5221C65.6518 52.5221 65.7939 56.4281 66.3428 57.8722C66.8917 59.3163 70.7083 68 78.9808 68C87.2533 68 91.0698 59.3163 91.6188 57.8722C92.1677 56.4281 92.3097 52.363 92.3097 52.363C92.9248 52.5197 93.5743 52.481 94.1658 52.2526C94.7572 52.0241 95.2602 51.6175 95.6032 51.0907C96.8302 49.2649 98.7482 43.4567 97.6956 40.9756Z" fill="#E2988F"/>
<path d="M79.5187 68C74.5083 68 69.8776 61.631 69 60.3542L69.361 60C70.2137 61.2472 74.7199 67.4465 79.5187 67.4465C84.3174 67.4465 88.7988 61.3358 89.639 60.1107L90 60.4649C89.1349 61.7196 84.5664 68 79.5187 68Z" fill="#C46966"/>
<path d="M65.8396 48.8806L65.3604 48.9126L65.5621 51.9348L66.0413 51.9028L65.8396 48.8806Z" fill="#C46966"/>
<path d="M92.2261 48.901L91.998 51.7607L92.4768 51.7989L92.7049 48.9392L92.2261 48.901Z" fill="#C46966"/>
<path d="M61.8034 45C60.5607 42.92 60.7564 41.645 62.4132 41L63 41.275C61.6193 41.83 61.5042 43.02 62.6433 44.925L61.8034 45Z" fill="#C46966"/>
<path d="M96.1857 45L95.3534 44.9055C96.4935 43.0099 96.3681 41.8209 95 41.2736L95.57 41C97.2232 41.6716 97.4626 42.9403 96.1857 45Z" fill="#C46966"/>
<path d="M96 28.6775C92.049 25.6771 88.1043 22.6887 85.0509 21.9579C83.044 21.3001 80.9304 20.9764 78.8052 21.0013C71.5479 21.0013 65.4855 23.0986 64.5499 29.5686C61.2437 30.8817 61.8506 35.9496 62.5523 38.1894C62.9378 38.1959 63.3157 38.2918 63.6522 38.4687V38.4687C65.0683 39.3301 65.3907 41.6769 65.1694 44C68.3302 44 65.9407 34.4108 68.4251 32.0877C77.8253 37.6547 90.3801 34.7197 90.3801 34.7197C90.7341 38.3439 90.2157 44.0119 92.4409 44C92.2197 41.7779 92.2133 39.348 93.9518 38.4687C94.1919 36.5224 94.16 34.555 93.857 32.6165C95.0966 31.6208 95.8669 30.2049 96 28.6775V28.6775Z" fill="#F4BA5D"/>
<path d="M71 52C69.6155 52 68.2622 51.5895 67.111 50.8203C65.9599 50.0511 65.0627 48.9579 64.5328 47.6788C64.003 46.3997 63.8644 44.9922 64.1345 43.6344C64.4046 42.2765 65.0713 41.0292 66.0503 40.0502C67.0292 39.0713 68.2765 38.4046 69.6344 38.1345C70.9922 37.8644 72.3997 38.003 73.6788 38.5328C74.9579 39.0627 76.0511 39.9599 76.8203 41.111C77.5894 42.2622 78 43.6155 78 45C77.9982 46.856 77.2601 48.6354 75.9478 49.9478C74.6354 51.2601 72.856 51.9982 71 52V52ZM71 38.5125C69.7153 38.5125 68.4594 38.8936 67.3913 39.6075C66.3232 40.3214 65.4908 41.336 64.9995 42.5231C64.5082 43.7101 64.3799 45.0162 64.6311 46.2762C64.8822 47.5361 65.5014 48.6933 66.4103 49.6012C67.3192 50.5092 68.477 51.1272 69.7372 51.377C70.9974 51.6268 72.3034 51.4972 73.4899 51.0047C74.6764 50.5121 75.6902 49.6787 76.403 48.6098C77.1158 47.541 77.4956 46.2847 77.4942 45C77.4907 43.2793 76.8051 41.6303 75.5877 40.4142C74.3704 39.1982 72.7207 38.5143 71 38.5125V38.5125Z" fill="#CBCBCB"/>
<path d="M87.0067 52C85.622 52.0013 84.268 51.5919 83.1159 50.8236C81.9639 50.0552 81.0656 48.9624 80.5348 47.6835C80.0039 46.4045 79.8644 44.9968 80.1337 43.6385C80.403 42.2802 81.0692 41.0323 82.0479 40.0526C83.0266 39.073 84.2738 38.4056 85.6319 38.135C86.9899 37.8644 88.3977 38.0026 89.6772 38.5322C90.9567 39.0618 92.0504 39.959 92.8198 41.1103C93.5893 42.2616 94 43.6152 94 45C93.9964 46.8543 93.2587 48.6316 91.9482 49.9434C90.6377 51.2552 88.861 51.9947 87.0067 52ZM87.0067 38.5125C85.7217 38.5112 84.4652 38.8911 83.3962 39.6042C82.3272 40.3173 81.4938 41.3315 81.0014 42.5184C80.5091 43.7053 80.3799 45.0117 80.6302 46.272C80.8806 47.5324 81.4993 48.6902 82.4079 49.5988C83.3165 50.5075 84.4743 51.1261 85.7347 51.3765C86.9951 51.6269 88.3014 51.4977 89.4884 51.0053C90.6753 50.513 91.6895 49.6795 92.4026 48.6105C93.1156 47.5415 93.4956 46.285 93.4942 45C93.4907 43.2805 92.806 41.6325 91.5902 40.4166C90.3743 39.2007 88.7262 38.5161 87.0067 38.5125V38.5125Z" fill="#CBCBCB"/>
<path d="M80.7059 44C80.4448 43.784 80.1301 43.6148 79.7824 43.5036C79.4347 43.3924 79.0619 43.3416 78.6882 43.3546C78.4233 43.3745 78.1668 43.4403 77.9363 43.5476C77.7059 43.6549 77.5069 43.8012 77.3529 43.9763L77 43.7627C77.1913 43.5485 77.4373 43.3698 77.7214 43.2388C78.0055 43.1079 78.3212 43.0276 78.6471 43.0034C79.0814 42.9851 79.5156 43.0412 79.9211 43.168C80.3266 43.2948 80.6943 43.4894 81 43.739L80.7059 44Z" fill="#CBCBCB"/>
<path d="M110 79.0229C103.518 76.265 96.7307 74.2441 89.773 73C84.6529 78.2005 72.7753 78.2701 68.2465 73C61.2822 74.2426 54.4884 76.2636 48 79.0229C51.2353 84.2063 55.787 88.491 61.2165 91.4645C66.6461 94.438 72.7706 96 79 96C85.2295 96 91.3539 94.438 96.7835 91.4645C102.213 88.491 106.765 84.2063 110 79.0229Z" fill="#94A5E4"/>
<path d="M78.5805 78.997C75.8375 79.0431 73.1155 78.5574 70.5997 77.5728C68.0838 76.5881 65.8329 75.1277 64 73.2907L64.3757 73C70.3872 79.2758 82.7397 81.3638 94.6968 73.2195L95 73.5694C89.3972 77.3895 83.7021 78.997 78.5805 78.997Z" fill="#6C82BC"/>
</svg>
