<svg width="157" height="160" viewBox="0 0 157 160" fill="none" xmlns="http://www.w3.org/2000/svg">
<path d="M55.0445 120.216C53.8085 120.216 52.7405 119.946 51.8405 119.406C50.9525 118.854 50.2625 118.092 49.7705 117.12C49.2785 116.136 49.0325 114.996 49.0325 113.7C49.0325 112.416 49.2785 111.288 49.7705 110.316C50.2625 109.332 50.9525 108.564 51.8405 108.012C52.7405 107.46 53.8085 107.184 55.0445 107.184C56.4845 107.184 57.6545 107.532 58.5545 108.228C59.4665 108.912 60.0485 109.872 60.3005 111.108H58.6265C58.4345 110.328 58.0385 109.704 57.4385 109.236C56.8505 108.756 56.0525 108.516 55.0445 108.516C54.1445 108.516 53.3585 108.726 52.6865 109.146C52.0145 109.554 51.4925 110.148 51.1205 110.928C50.7605 111.696 50.5805 112.62 50.5805 113.7C50.5805 114.78 50.7605 115.71 51.1205 116.49C51.4925 117.258 52.0145 117.852 52.6865 118.272C53.3585 118.68 54.1445 118.884 55.0445 118.884C56.0525 118.884 56.8505 118.656 57.4385 118.2C58.0385 117.732 58.4345 117.114 58.6265 116.346H60.3005C60.0485 117.558 59.4665 118.506 58.5545 119.19C57.6545 119.874 56.4845 120.216 55.0445 120.216ZM62.3836 120V111.072H63.7516L63.8776 112.782C64.1536 112.194 64.5736 111.726 65.1376 111.378C65.7016 111.03 66.3976 110.856 67.2256 110.856V112.44H66.8116C66.2836 112.44 65.7976 112.536 65.3536 112.728C64.9096 112.908 64.5556 113.22 64.2916 113.664C64.0276 114.108 63.8956 114.72 63.8956 115.5V120H62.3836ZM72.6027 120.216C71.7507 120.216 70.9947 120.024 70.3347 119.64C69.6747 119.244 69.1527 118.698 68.7687 118.002C68.3967 117.306 68.2107 116.484 68.2107 115.536C68.2107 114.6 68.3967 113.784 68.7687 113.088C69.1407 112.38 69.6567 111.834 70.3167 111.45C70.9887 111.054 71.7627 110.856 72.6387 110.856C73.5027 110.856 74.2467 111.054 74.8707 111.45C75.5067 111.834 75.9927 112.344 76.3287 112.98C76.6647 113.616 76.8327 114.3 76.8327 115.032C76.8327 115.164 76.8267 115.296 76.8147 115.428C76.8147 115.56 76.8147 115.71 76.8147 115.878H69.7047C69.7407 116.562 69.8967 117.132 70.1727 117.588C70.4607 118.032 70.8147 118.368 71.2347 118.596C71.6667 118.824 72.1227 118.938 72.6027 118.938C73.2267 118.938 73.7487 118.794 74.1687 118.506C74.5887 118.218 74.8947 117.828 75.0867 117.336H76.5807C76.3407 118.164 75.8787 118.854 75.1947 119.406C74.5227 119.946 73.6587 120.216 72.6027 120.216ZM72.6027 112.134C71.8827 112.134 71.2407 112.356 70.6767 112.8C70.1247 113.232 69.8067 113.868 69.7227 114.708H75.3387C75.3027 113.904 75.0267 113.274 74.5107 112.818C73.9947 112.362 73.3587 112.134 72.6027 112.134ZM81.8067 120.216C81.0627 120.216 80.4447 120.09 79.9527 119.838C79.4607 119.586 79.0947 119.25 78.8547 118.83C78.6147 118.41 78.4947 117.954 78.4947 117.462C78.4947 116.55 78.8427 115.848 79.5387 115.356C80.2347 114.864 81.1827 114.618 82.3827 114.618H84.7947V114.51C84.7947 113.73 84.5907 113.142 84.1827 112.746C83.7747 112.338 83.2287 112.134 82.5447 112.134C81.9567 112.134 81.4467 112.284 81.0147 112.584C80.5947 112.872 80.3307 113.298 80.2227 113.862H78.6747C78.7347 113.214 78.9507 112.668 79.3227 112.224C79.7067 111.78 80.1807 111.444 80.7447 111.216C81.3087 110.976 81.9087 110.856 82.5447 110.856C83.7927 110.856 84.7287 111.192 85.3527 111.864C85.9887 112.524 86.3067 113.406 86.3067 114.51V120H84.9567L84.8667 118.398C84.6147 118.902 84.2427 119.334 83.7507 119.694C83.2707 120.042 82.6227 120.216 81.8067 120.216ZM82.0407 118.938C82.6167 118.938 83.1087 118.788 83.5167 118.488C83.9367 118.188 84.2547 117.798 84.4707 117.318C84.6867 116.838 84.7947 116.334 84.7947 115.806V115.788H82.5087C81.6207 115.788 80.9907 115.944 80.6187 116.256C80.2587 116.556 80.0787 116.934 80.0787 117.39C80.0787 117.858 80.2467 118.236 80.5827 118.524C80.9307 118.8 81.4167 118.938 82.0407 118.938ZM91.8569 120C91.0409 120 90.3989 119.802 89.9309 119.406C89.4629 119.01 89.2289 118.296 89.2289 117.264V112.35H87.6809V111.072H89.2289L89.4269 108.93H90.7409V111.072H93.3689V112.35H90.7409V117.264C90.7409 117.828 90.8549 118.212 91.0829 118.416C91.3109 118.608 91.7129 118.704 92.2889 118.704H93.2249V120H91.8569ZM99.0578 120.216C98.2058 120.216 97.4498 120.024 96.7898 119.64C96.1298 119.244 95.6078 118.698 95.2238 118.002C94.8518 117.306 94.6658 116.484 94.6658 115.536C94.6658 114.6 94.8518 113.784 95.2238 113.088C95.5958 112.38 96.1118 111.834 96.7718 111.45C97.4438 111.054 98.2178 110.856 99.0938 110.856C99.9578 110.856 100.702 111.054 101.326 111.45C101.962 111.834 102.448 112.344 102.784 112.98C103.12 113.616 103.288 114.3 103.288 115.032C103.288 115.164 103.282 115.296 103.27 115.428C103.27 115.56 103.27 115.71 103.27 115.878H96.1598C96.1958 116.562 96.3518 117.132 96.6278 117.588C96.9158 118.032 97.2698 118.368 97.6898 118.596C98.1218 118.824 98.5778 118.938 99.0578 118.938C99.6818 118.938 100.204 118.794 100.624 118.506C101.044 118.218 101.35 117.828 101.542 117.336H103.036C102.796 118.164 102.334 118.854 101.65 119.406C100.978 119.946 100.114 120.216 99.0578 120.216ZM99.0578 112.134C98.3378 112.134 97.6958 112.356 97.1318 112.8C96.5798 113.232 96.2618 113.868 96.1778 114.708H101.794C101.758 113.904 101.482 113.274 100.966 112.818C100.45 112.362 99.8138 112.134 99.0578 112.134ZM30.8154 143V130.4H34.6854C36.9054 130.4 38.5374 130.964 39.5814 132.092C40.6374 133.22 41.1654 134.768 41.1654 136.736C41.1654 138.668 40.6374 140.198 39.5814 141.326C38.5374 142.442 36.9054 143 34.6854 143H30.8154ZM32.3274 141.74H34.6494C35.8734 141.74 36.8454 141.542 37.5654 141.146C38.2974 140.738 38.8194 140.162 39.1314 139.418C39.4434 138.662 39.5994 137.768 39.5994 136.736C39.5994 135.68 39.4434 134.774 39.1314 134.018C38.8194 133.262 38.2974 132.68 37.5654 132.272C36.8454 131.864 35.8734 131.66 34.6494 131.66H32.3274V141.74ZM47.2726 143.216C46.4206 143.216 45.6646 143.024 45.0046 142.64C44.3446 142.244 43.8226 141.698 43.4386 141.002C43.0666 140.306 42.8806 139.484 42.8806 138.536C42.8806 137.6 43.0666 136.784 43.4386 136.088C43.8106 135.38 44.3266 134.834 44.9866 134.45C45.6586 134.054 46.4326 133.856 47.3086 133.856C48.1726 133.856 48.9166 134.054 49.5406 134.45C50.1766 134.834 50.6626 135.344 50.9986 135.98C51.3346 136.616 51.5026 137.3 51.5026 138.032C51.5026 138.164 51.4966 138.296 51.4846 138.428C51.4846 138.56 51.4846 138.71 51.4846 138.878H44.3746C44.4106 139.562 44.5666 140.132 44.8426 140.588C45.1306 141.032 45.4846 141.368 45.9046 141.596C46.3366 141.824 46.7926 141.938 47.2726 141.938C47.8966 141.938 48.4186 141.794 48.8386 141.506C49.2586 141.218 49.5646 140.828 49.7566 140.336H51.2506C51.0106 141.164 50.5486 141.854 49.8646 142.406C49.1926 142.946 48.3286 143.216 47.2726 143.216ZM47.2726 135.134C46.5526 135.134 45.9106 135.356 45.3466 135.8C44.7946 136.232 44.4766 136.868 44.3926 137.708H50.0086C49.9726 136.904 49.6966 136.274 49.1806 135.818C48.6646 135.362 48.0286 135.134 47.2726 135.134ZM56.9266 143.216C55.8586 143.216 54.9706 142.946 54.2626 142.406C53.5546 141.866 53.1406 141.134 53.0206 140.21H54.5686C54.6646 140.678 54.9106 141.086 55.3066 141.434C55.7146 141.77 56.2606 141.938 56.9446 141.938C57.5806 141.938 58.0486 141.806 58.3486 141.542C58.6486 141.266 58.7986 140.942 58.7986 140.57C58.7986 140.03 58.6006 139.67 58.2046 139.49C57.8206 139.31 57.2746 139.148 56.5666 139.004C56.0866 138.908 55.6066 138.77 55.1266 138.59C54.6466 138.41 54.2446 138.158 53.9206 137.834C53.5966 137.498 53.4346 137.06 53.4346 136.52C53.4346 135.74 53.7226 135.104 54.2986 134.612C54.8866 134.108 55.6786 133.856 56.6746 133.856C57.6226 133.856 58.3966 134.096 58.9966 134.576C59.6086 135.044 59.9626 135.716 60.0586 136.592H58.5646C58.5046 136.136 58.3066 135.782 57.9706 135.53C57.6466 135.266 57.2086 135.134 56.6566 135.134C56.1166 135.134 55.6966 135.248 55.3966 135.476C55.1086 135.704 54.9646 136.004 54.9646 136.376C54.9646 136.736 55.1506 137.018 55.5226 137.222C55.9066 137.426 56.4226 137.6 57.0706 137.744C57.6226 137.864 58.1446 138.014 58.6366 138.194C59.1406 138.362 59.5486 138.62 59.8606 138.968C60.1846 139.304 60.3466 139.796 60.3466 140.444C60.3586 141.248 60.0526 141.914 59.4286 142.442C58.8166 142.958 57.9826 143.216 56.9266 143.216ZM63.4246 132.092C63.1246 132.092 62.8726 131.996 62.6686 131.804C62.4766 131.6 62.3806 131.348 62.3806 131.048C62.3806 130.76 62.4766 130.52 62.6686 130.328C62.8726 130.136 63.1246 130.04 63.4246 130.04C63.7126 130.04 63.9586 130.136 64.1626 130.328C64.3666 130.52 64.4686 130.76 64.4686 131.048C64.4686 131.348 64.3666 131.6 64.1626 131.804C63.9586 131.996 63.7126 132.092 63.4246 132.092ZM62.6686 143V134.072H64.1806V143H62.6686ZM70.3413 140.192C69.8373 140.192 69.3753 140.126 68.9553 139.994L68.0553 140.84C68.1873 140.936 68.3493 141.02 68.5413 141.092C68.7453 141.152 69.0333 141.212 69.4053 141.272C69.7773 141.32 70.2993 141.374 70.9713 141.434C72.1713 141.518 73.0293 141.794 73.5453 142.262C74.0613 142.73 74.3193 143.342 74.3193 144.098C74.3193 144.614 74.1753 145.106 73.8873 145.574C73.6113 146.042 73.1793 146.426 72.5913 146.726C72.0153 147.026 71.2713 147.176 70.3593 147.176C69.5553 147.176 68.8413 147.068 68.2173 146.852C67.5933 146.648 67.1073 146.33 66.7593 145.898C66.4113 145.478 66.2373 144.944 66.2373 144.296C66.2373 143.96 66.3273 143.594 66.5073 143.198C66.6873 142.814 67.0233 142.448 67.5153 142.1C67.2513 141.992 67.0233 141.878 66.8313 141.758C66.6513 141.626 66.4833 141.482 66.3273 141.326V140.912L67.8573 139.4C67.1493 138.8 66.7953 138.008 66.7953 137.024C66.7953 136.436 66.9333 135.902 67.2093 135.422C67.4853 134.942 67.8873 134.564 68.4153 134.288C68.9433 134 69.5853 133.856 70.3413 133.856C70.8573 133.856 71.3253 133.928 71.7453 134.072H75.0393V135.206L73.3653 135.278C73.7133 135.782 73.8873 136.364 73.8873 137.024C73.8873 137.612 73.7433 138.146 73.4553 138.626C73.1793 139.106 72.7773 139.49 72.2493 139.778C71.7333 140.054 71.0973 140.192 70.3413 140.192ZM70.3413 138.95C70.9773 138.95 71.4813 138.788 71.8533 138.464C72.2373 138.128 72.4293 137.648 72.4293 137.024C72.4293 136.412 72.2373 135.944 71.8533 135.62C71.4813 135.284 70.9773 135.116 70.3413 135.116C69.6933 135.116 69.1773 135.284 68.7933 135.62C68.4213 135.944 68.2353 136.412 68.2353 137.024C68.2353 137.648 68.4213 138.128 68.7933 138.464C69.1773 138.788 69.6933 138.95 70.3413 138.95ZM67.7133 144.152C67.7133 144.752 67.9653 145.196 68.4693 145.484C68.9733 145.784 69.6033 145.934 70.3593 145.934C71.1033 145.934 71.6973 145.772 72.1413 145.448C72.5973 145.124 72.8253 144.692 72.8253 144.152C72.8253 143.768 72.6693 143.432 72.3573 143.144C72.0453 142.868 71.4693 142.706 70.6293 142.658C69.9693 142.61 69.3993 142.55 68.9193 142.478C68.4273 142.742 68.1033 143.024 67.9473 143.324C67.7913 143.636 67.7133 143.912 67.7133 144.152ZM76.7449 143V134.072H78.1129L78.2029 135.674C78.4909 135.11 78.9049 134.666 79.4449 134.342C79.9849 134.018 80.5969 133.856 81.2809 133.856C82.3369 133.856 83.1769 134.18 83.8009 134.828C84.4369 135.464 84.7549 136.448 84.7549 137.78V143H83.2429V137.942C83.2429 136.082 82.4749 135.152 80.9389 135.152C80.1709 135.152 79.5289 135.434 79.0129 135.998C78.5089 136.55 78.2569 137.342 78.2569 138.374V143H76.7449ZM90.0157 143.216C89.2717 143.216 88.6537 143.09 88.1617 142.838C87.6697 142.586 87.3037 142.25 87.0637 141.83C86.8237 141.41 86.7037 140.954 86.7037 140.462C86.7037 139.55 87.0517 138.848 87.7477 138.356C88.4437 137.864 89.3917 137.618 90.5917 137.618H93.0037V137.51C93.0037 136.73 92.7997 136.142 92.3917 135.746C91.9837 135.338 91.4377 135.134 90.7537 135.134C90.1657 135.134 89.6557 135.284 89.2237 135.584C88.8037 135.872 88.5397 136.298 88.4317 136.862H86.8837C86.9437 136.214 87.1597 135.668 87.5317 135.224C87.9157 134.78 88.3897 134.444 88.9537 134.216C89.5177 133.976 90.1177 133.856 90.7537 133.856C92.0017 133.856 92.9377 134.192 93.5617 134.864C94.1977 135.524 94.5157 136.406 94.5157 137.51V143H93.1657L93.0757 141.398C92.8237 141.902 92.4517 142.334 91.9597 142.694C91.4797 143.042 90.8317 143.216 90.0157 143.216ZM90.2497 141.938C90.8257 141.938 91.3177 141.788 91.7257 141.488C92.1457 141.188 92.4637 140.798 92.6797 140.318C92.8957 139.838 93.0037 139.334 93.0037 138.806V138.788H90.7177C89.8297 138.788 89.1997 138.944 88.8277 139.256C88.4677 139.556 88.2877 139.934 88.2877 140.39C88.2877 140.858 88.4557 141.236 88.7917 141.524C89.1397 141.8 89.6257 141.938 90.2497 141.938ZM100.066 143C99.2499 143 98.6079 142.802 98.1399 142.406C97.6719 142.01 97.4379 141.296 97.4379 140.264V135.35H95.8899V134.072H97.4379L97.6359 131.93H98.9499V134.072H101.578V135.35H98.9499V140.264C98.9499 140.828 99.0639 141.212 99.2919 141.416C99.5199 141.608 99.9219 141.704 100.498 141.704H101.434V143H100.066ZM104.417 132.092C104.117 132.092 103.865 131.996 103.661 131.804C103.469 131.6 103.373 131.348 103.373 131.048C103.373 130.76 103.469 130.52 103.661 130.328C103.865 130.136 104.117 130.04 104.417 130.04C104.705 130.04 104.951 130.136 105.155 130.328C105.359 130.52 105.461 130.76 105.461 131.048C105.461 131.348 105.359 131.6 105.155 131.804C104.951 131.996 104.705 132.092 104.417 132.092ZM103.661 143V134.072H105.173V143H103.661ZM111.873 143.216C111.033 143.216 110.277 143.024 109.605 142.64C108.933 142.256 108.399 141.716 108.003 141.02C107.619 140.312 107.427 139.484 107.427 138.536C107.427 137.588 107.625 136.766 108.021 136.07C108.417 135.362 108.951 134.816 109.623 134.432C110.307 134.048 111.069 133.856 111.909 133.856C112.749 133.856 113.505 134.048 114.177 134.432C114.849 134.816 115.377 135.362 115.761 136.07C116.157 136.766 116.355 137.588 116.355 138.536C116.355 139.484 116.157 140.312 115.761 141.02C115.365 141.716 114.825 142.256 114.141 142.64C113.469 143.024 112.713 143.216 111.873 143.216ZM111.873 141.92C112.389 141.92 112.869 141.794 113.313 141.542C113.757 141.29 114.117 140.912 114.393 140.408C114.669 139.904 114.807 139.28 114.807 138.536C114.807 137.792 114.669 137.168 114.393 136.664C114.129 136.16 113.775 135.782 113.331 135.53C112.887 135.278 112.413 135.152 111.909 135.152C111.393 135.152 110.913 135.278 110.469 135.53C110.025 135.782 109.665 136.16 109.389 136.664C109.113 137.168 108.975 137.792 108.975 138.536C108.975 139.28 109.113 139.904 109.389 140.408C109.665 140.912 110.019 141.29 110.451 141.542C110.895 141.794 111.369 141.92 111.873 141.92ZM118.458 143V134.072H119.826L119.916 135.674C120.204 135.11 120.618 134.666 121.158 134.342C121.698 134.018 122.31 133.856 122.994 133.856C124.05 133.856 124.89 134.18 125.514 134.828C126.15 135.464 126.468 136.448 126.468 137.78V143H124.956V137.942C124.956 136.082 124.188 135.152 122.652 135.152C121.884 135.152 121.242 135.434 120.726 135.998C120.222 136.55 119.97 137.342 119.97 138.374V143H118.458Z" fill="#7C7C7C"/>
<g clip-path="url(#clip0_1881_9616)">
<path d="M99.6467 85.9333H61.8945V88.3365H99.6467V85.9333Z" fill="#FAB914"/>
<path d="M75.0899 70.4615L59.7505 80.1945L61.0349 82.2244L76.3743 72.4914L75.0899 70.4615Z" fill="#FAB914"/>
<path d="M84.4952 69.988L83.1963 72.0087L100.512 83.1702L101.811 81.1496L84.4952 69.988Z" fill="#FAB914"/>
<path d="M64.1691 87.1369C64.1691 89.8247 58.311 92.0026 51.0844 92.0026C43.8579 92.0026 37.9985 89.8247 37.9985 87.1369C37.9985 84.4491 43.8579 82.2724 51.0844 82.2724C58.311 82.2724 64.1691 84.4478 64.1691 87.1369Z" fill="#008EE5"/>
<path d="M64.1705 83.1304H38V87.1343H64.1705V83.1304Z" fill="#008EE5"/>
<path d="M64.1692 83.1252C64.1692 85.8117 58.3112 87.991 51.0846 87.991C43.858 87.991 38 85.8169 38 83.1252C38 80.4335 43.8593 78.2595 51.0859 78.2595C58.3125 78.2595 64.1692 80.4426 64.1692 83.1252Z" fill="#53A7DD"/>
<path d="M55.7744 78.8301H53.0566V80.8709H55.7744V78.8301Z" fill="#D2F7FF"/>
<path d="M58.806 82.3203L58.797 82.0783C58.797 81.474 57.8924 81.5374 57.3561 81.5219C56.7474 81.5024 56.1077 81.3769 55.7743 80.8748H53.0604C52.7387 81.5646 53.0204 82.3112 53.0204 82.3112V82.7874H54.9588V82.5998C56.5122 82.9738 57.979 82.693 58.806 82.3203Z" fill="#2D2D2D"/>
<path d="M49.1152 78.8301H46.3975V80.8709H49.1152V78.8301Z" fill="#D2F7FF"/>
<path d="M47.2157 82.5959V82.7836H49.1541V82.3073C49.1541 82.3073 49.4372 81.5607 49.1141 80.8709H46.4002C46.0655 81.3769 45.4258 81.5024 44.8172 81.518C44.277 81.5335 43.3762 81.47 43.3762 82.0744L43.3672 82.3164C44.1917 82.693 45.6585 82.9738 47.2157 82.5959Z" fill="#2D2D2D"/>
<path d="M40.7964 67.6791C40.7822 67.7211 40.7852 67.7671 40.8049 67.8069C40.8245 67.8467 40.8591 67.8771 40.9011 67.8913C40.9431 67.9056 40.989 67.9025 41.0288 67.8829C41.0685 67.8632 41.0988 67.8285 41.113 67.7865L41.4335 66.7914L41.4852 66.8133L41.1298 68.1178C41.0614 68.3701 41.4852 68.4827 41.5175 68.2213L41.8665 66.9427C41.8918 66.951 41.9177 66.9575 41.944 66.9622C41.9311 66.9919 41.9518 66.8936 41.6713 68.4038C41.6658 68.4535 41.6792 68.5034 41.7089 68.5436C41.7386 68.5838 41.7825 68.6112 41.8315 68.6204C41.8806 68.6296 41.9314 68.6198 41.9736 68.5931C42.0158 68.5663 42.0463 68.5246 42.059 68.4762C42.3407 66.9609 42.3175 67.0657 42.3175 67.0372L42.3795 67.0463L42.2632 68.3636C42.2624 68.414 42.2807 68.4628 42.3144 68.5002C42.348 68.5376 42.3946 68.5608 42.4447 68.5652C42.4948 68.5697 42.5447 68.5549 42.5844 68.524C42.6241 68.4931 42.6506 68.4483 42.6587 68.3986L42.7724 67.1045C42.7724 67.0864 42.8641 66.5545 42.9494 66.4885C43.1174 66.3591 43.1937 67.0631 43.3746 67.3568C43.5555 67.6506 43.783 67.4475 43.783 67.4475C43.783 67.4475 43.7145 67.2637 43.6382 67.0243C43.4831 66.5377 43.5904 65.958 43.111 65.5361C42.921 65.3679 42.9817 65.1284 43.014 64.5138L41.9647 64.2549C41.9647 64.2549 41.8264 64.4219 41.7204 64.9693C41.3625 64.9563 41.1673 65.8945 41.2164 66.3837L40.7964 67.6791Z" fill="#FFC37B"/>
<path d="M61.3754 67.6791C61.3869 67.7205 61.3821 67.7649 61.362 67.803C61.3419 67.841 61.308 67.8699 61.2673 67.8836C61.2265 67.8974 61.1821 67.895 61.143 67.8769C61.104 67.8588 61.0734 67.8265 61.0575 67.7865L60.7383 66.7914L60.6853 66.8133L61.0407 68.1178C61.1105 68.3701 60.6853 68.4827 60.653 68.2213L60.3041 66.9427C60.2791 66.9509 60.2536 66.9574 60.2278 66.9622C60.2395 66.9919 60.2188 66.8936 60.4992 68.4038C60.5048 68.4535 60.4913 68.5034 60.4616 68.5436C60.4319 68.5838 60.3881 68.6112 60.339 68.6204C60.2899 68.6296 60.2392 68.6198 60.197 68.5931C60.1548 68.5663 60.1242 68.5246 60.1115 68.4762C59.8298 66.9609 59.853 67.0657 59.853 67.0372L59.791 67.0463L59.9073 68.3636C59.9033 68.4099 59.8831 68.4533 59.8503 68.4862C59.8176 68.5191 59.7743 68.5394 59.7281 68.5436C59.6819 68.5477 59.6357 68.5355 59.5976 68.509C59.5595 68.4825 59.5319 68.4434 59.5196 68.3986L59.4046 67.1045C59.4046 67.0864 59.3129 66.5545 59.2276 66.4885C59.0596 66.3591 58.9846 67.0631 58.8024 67.3568C58.6202 67.6506 58.394 67.4475 58.394 67.4475C58.394 67.4475 58.4625 67.2637 58.5388 67.0243C58.6939 66.5377 58.5866 65.958 59.066 65.5361C59.256 65.3679 59.1953 65.1284 59.163 64.5138L60.2123 64.2549C60.2123 64.2549 60.3506 64.4219 60.4579 64.9693C60.8158 64.9563 61.011 65.8945 60.9606 66.3837L61.3754 67.6791Z" fill="#FFC37B"/>
<path d="M48.8823 48.3145L51.0818 57.7561L53.2813 48.3145H48.8823Z" fill="#B6E9FF"/>
<path d="M51.8421 50.8353H50.3236L49.6865 53.1233L50.4735 58.4691L51.0835 58.6412L51.6935 58.4691L52.4805 53.1233L51.8421 50.8353Z" fill="#0258A0"/>
<path d="M53.288 48.3145H56.6558C59.0582 48.3145 58.6072 48.7091 61.0238 64.9705L58.3901 65.5063L56.4878 52.7299V62.9777H51.0859V57.7612L53.288 48.3145Z" fill="#2D2D2D"/>
<path d="M48.8827 48.3145H45.515C43.1126 48.3145 43.5636 48.7091 41.147 64.9705L43.7807 65.5063L45.683 52.7299V62.9777H51.0861V57.7612L48.8827 48.3145Z" fill="#474646"/>
<path d="M49.207 46.9816L52.9638 46.9893L51.0822 48.6949L49.207 46.9816Z" fill="#98DCF4"/>
<path d="M52.3108 47.7477V45.2889H49.8555L49.8477 47.7477C49.6565 47.7593 49.46 47.7684 49.2739 47.7839C49.3464 48.2119 49.5679 48.6003 49.899 48.8804C50.2302 49.1605 50.6497 49.3142 51.0832 49.3142C51.5166 49.3142 51.9361 49.1605 52.2673 48.8804C52.5984 48.6003 52.8199 48.2119 52.8924 47.7839C52.6998 47.7658 52.5047 47.758 52.3108 47.7477Z" fill="#FCB560"/>
<path d="M52.0825 48.6949H50.0846L49.5146 49.4973L50.3236 50.8354H51.8421L52.6524 49.4973L52.0825 48.6949Z" fill="#033D91"/>
<path d="M54.9445 53.6965H52.9492V55.8331H54.9445V53.6965Z" fill="#686868"/>
<path d="M48.8823 48.3145L46.6401 50.539L51.0818 57.7548L48.8823 48.3145Z" fill="#2D2D2D"/>
<path d="M53.2828 48.3145L55.525 50.539L51.082 57.7548L53.2828 48.3145Z" fill="#474646"/>
<path d="M48.3516 47.8357L49.2071 46.9816L51.0822 48.6949L49.7124 50.1456L48.3516 47.8357Z" fill="#D2F7FF"/>
<path d="M53.8153 47.846L52.9636 46.9893L51.082 48.6949L52.4454 50.152L53.8153 47.846Z" fill="#D2F7FF"/>
<path d="M56.2329 62.9777V80.3986H52.387L51.4281 66.4031H50.7368L49.7766 80.3986H45.9307V62.9777H56.2329Z" fill="#686868"/>
<path d="M56.2329 62.9777H45.9307V64.0569H56.2329V62.9777Z" fill="#222324"/>
<path d="M52.1975 62.9777H49.9683V64.0569H52.1975V62.9777Z" fill="#FAB914"/>
<path d="M47.9622 64.9706H45.9307V69.4494H47.9622V64.9706Z" fill="#414344"/>
<path d="M56.2317 64.9706H54.2002V69.4494H56.2317V64.9706Z" fill="#414344"/>
<path d="M56.6364 38.7383C56.0368 35.9819 53.7791 33.6771 51.0795 33.6771C48.3798 33.6771 46.1248 35.9819 45.5225 38.7383C45.3847 38.7309 45.2467 38.7518 45.1172 38.7997C44.9877 38.8476 44.8693 38.9215 44.7694 39.0168C44.6694 39.1122 44.59 39.2271 44.5359 39.3543C44.4819 39.4815 44.4544 39.6185 44.4551 39.7567V40.8088C44.4551 41.3471 44.8428 41.8273 45.5742 41.8273C46.2437 44.4892 48.4509 46.671 51.0769 46.671C53.7028 46.671 55.9127 44.4892 56.5795 41.8273C57.3149 41.8273 57.6987 41.3471 57.6987 40.8088V39.7645C57.6994 39.6262 57.6719 39.4893 57.6179 39.362C57.5638 39.2348 57.4844 39.12 57.3844 39.0246C57.2844 38.9292 57.1661 38.8553 57.0365 38.8074C56.907 38.7595 56.7691 38.7386 56.6312 38.7461L56.6364 38.7383Z" fill="#FFC37B"/>
<path d="M55.5986 34.1352L56.1065 34.0498C55.4513 33.0352 54.221 32.735 54.221 32.735L54.6668 32.3274C52.8576 31.6337 51.7721 32.1449 51.7721 32.1449C51.922 31.9262 53.3319 31.3413 53.3319 31.3413C48.5387 30.7188 43.3811 34.0498 45.5276 38.7408L46.6429 37.8893C46.9081 37.6867 47.2165 37.5481 47.544 37.4843C47.8715 37.4206 48.2092 37.4334 48.531 37.5218L50.6865 38.1145C50.9454 38.1856 51.2186 38.1856 51.4774 38.1145L53.633 37.5218C53.9545 37.4334 54.2921 37.4206 54.6194 37.4844C54.9466 37.5481 55.2548 37.6867 55.5198 37.8893L56.6363 38.7408C57.2424 36.7091 56.7061 35.1718 55.6025 34.1352H55.5986Z" fill="#222324"/>
<path d="M122 87.1369C122 89.8247 116.142 92.0026 108.914 92.0026C101.686 92.0026 95.8306 89.8221 95.8306 87.1369C95.8306 84.4516 101.689 82.2724 108.915 82.2724C116.142 82.2724 122 84.4478 122 87.1369Z" fill="#008EE5"/>
<path d="M122 83.1304H95.8296V87.1343H122V83.1304Z" fill="#008EE5"/>
<path d="M122 83.1252C122 85.8117 116.142 87.991 108.914 87.991C101.686 87.991 95.8306 85.8169 95.8306 83.1252C95.8306 80.4335 101.689 78.2595 108.915 78.2595C116.142 78.2595 122 80.4426 122 83.1252Z" fill="#53A7DD"/>
<path d="M93.3185 68.6483C93.3185 71.3361 87.4604 73.5141 80.2339 73.5141C73.0073 73.5141 67.1479 71.3361 67.1479 68.6483C67.1479 65.9605 73.006 63.7826 80.2339 63.7826C87.4617 63.7826 93.3185 65.9618 93.3185 68.6483Z" fill="#008EE5"/>
<path d="M93.3198 64.6445H67.1479V68.6496H93.3198V64.6445Z" fill="#008EE5"/>
<path d="M93.3185 64.6445C93.3185 67.331 87.4604 69.5089 80.2339 69.5089C73.0073 69.5089 67.1479 67.331 67.1479 64.6445C67.1479 61.958 73.006 59.7787 80.2339 59.7787C87.4617 59.7787 93.3185 61.9567 93.3185 64.6445Z" fill="#53A7DD"/>
<path d="M85.4599 59.5639H82.7422V61.6047H85.4599V59.5639Z" fill="#D2F7FF"/>
<path d="M88.4929 63.0527L88.4838 62.8107C88.4838 62.2064 87.5792 62.2711 87.0429 62.2543C86.4342 62.2349 85.7945 62.1106 85.4598 61.6072H82.746C82.4242 62.297 82.7059 63.0437 82.7059 63.0437V63.5199H84.6444V63.3258C86.199 63.7062 87.6658 63.4254 88.4929 63.0527Z" fill="#2D2D2D"/>
<path d="M78.8007 59.5639H76.083V61.6047H78.8007V59.5639Z" fill="#D2F7FF"/>
<path d="M76.9022 63.3258V63.5121H78.8407V63.0359C78.8407 63.0359 79.1224 62.2892 78.8006 61.5995H76.0868C75.752 62.1068 75.1124 62.231 74.505 62.2465C73.9635 62.2634 73.064 62.1987 73.0628 62.803L73.0537 63.045C73.8769 63.4255 75.345 63.7063 76.9022 63.3258Z" fill="#2D2D2D"/>
<path d="M70.4822 48.4115C70.4707 48.453 70.4755 48.4973 70.4956 48.5353C70.5157 48.5734 70.5496 48.6023 70.5904 48.616C70.6311 48.6298 70.6756 48.6274 70.7146 48.6093C70.7536 48.5913 70.7842 48.5589 70.8002 48.5189L71.1194 47.525L71.171 47.5471L70.8157 48.8502C70.7472 49.109 71.1723 49.2151 71.2034 48.955L71.5536 47.6752C71.5785 47.6833 71.604 47.6898 71.6298 47.6946C71.6169 47.7256 71.6376 47.626 71.3571 49.1362C71.3509 49.1861 71.364 49.2365 71.3936 49.2772C71.4231 49.3178 71.4671 49.3457 71.5164 49.3551C71.5658 49.3645 71.6169 49.3547 71.6593 49.3277C71.7017 49.3008 71.7323 49.2586 71.7448 49.2099C72.0278 47.6933 72.0097 47.7981 72.0033 47.7696L72.0653 47.78L71.9477 49.0961C71.9466 49.1465 71.9646 49.1956 71.9982 49.2332C72.0317 49.2709 72.0783 49.2944 72.1285 49.2991C72.1788 49.3037 72.2288 49.289 72.2687 49.258C72.3085 49.2271 72.3351 49.1822 72.3432 49.1323L72.4569 47.8382C72.4569 47.8188 72.5486 47.2882 72.6339 47.2209C72.8019 47.0915 72.8782 47.7955 73.0604 48.0906C73.2426 48.3856 73.4675 48.1798 73.4675 48.1798C73.4675 48.1798 73.4003 47.9961 73.3227 47.7567C73.1676 47.2701 73.2762 46.6916 72.7968 46.2685C72.6055 46.1003 72.6675 45.8609 72.6998 45.2475L71.6505 44.9822C71.6505 44.9822 71.5109 45.1504 71.4049 45.6965C71.047 45.6836 70.8518 46.6218 70.9009 47.1109C70.9009 47.1109 70.9009 47.1109 70.9009 47.1174L70.4822 48.4115Z" fill="#FFC37B"/>
<path d="M91.0608 48.4115C91.0723 48.453 91.0675 48.4973 91.0474 48.5353C91.0273 48.5734 90.9933 48.6023 90.9526 48.616C90.9119 48.6298 90.8674 48.6274 90.8284 48.6093C90.7894 48.5913 90.7587 48.5589 90.7428 48.5189L90.4236 47.525L90.3707 47.5471L90.7273 48.8502C90.7958 49.109 90.3707 49.2151 90.3396 48.955L89.9907 47.6752C89.9658 47.6835 89.9403 47.6899 89.9145 47.6946C89.9274 47.7256 89.9067 47.626 90.1859 49.1362C90.1956 49.1877 90.1846 49.2409 90.1551 49.2842C90.1257 49.3276 90.0802 49.3574 90.0288 49.3672C89.9774 49.3769 89.9242 49.3659 89.881 49.3364C89.8377 49.3069 89.8079 49.2614 89.7982 49.2099C89.5152 47.6933 89.5332 47.7981 89.5397 47.7696L89.4777 47.78L89.5953 49.0961C89.5964 49.1465 89.5784 49.1956 89.5448 49.2332C89.5113 49.2709 89.4647 49.2945 89.4145 49.2991C89.3642 49.3037 89.3141 49.289 89.2743 49.258C89.2345 49.2271 89.2078 49.1822 89.1998 49.1323L89.0861 47.8382C89.0861 47.8188 88.9943 47.2882 88.909 47.2209C88.741 47.0915 88.6648 47.7955 88.4826 48.0906C88.3004 48.3856 88.0742 48.1798 88.0742 48.1798C88.0742 48.1798 88.144 47.9961 88.219 47.7567C88.374 47.2701 88.2668 46.6916 88.7475 46.2685C88.9362 46.1003 88.8767 45.8609 88.8431 45.2475L89.8938 44.9822C89.8938 44.9822 90.0321 45.1504 90.138 45.6965C90.496 45.6836 90.6912 46.6218 90.642 47.1109V47.1174L91.0608 48.4115Z" fill="#FFC37B"/>
<path d="M78.5684 29.0469L80.7679 38.4885L82.9687 29.0469H78.5684Z" fill="#B6E9FF"/>
<path d="M81.5289 31.5677H80.0105L79.3721 33.8557L80.1604 39.2015L80.7691 39.3749L81.379 39.2015L82.1673 33.8557L81.5289 31.5677Z" fill="#0258A0"/>
<path d="M82.9736 29.0469H86.3413C88.7437 29.0469 88.294 29.4352 90.7106 45.7017L88.0769 46.2439L86.1733 33.4688V43.7166H80.7715V38.495L82.9736 29.0469Z" fill="#2D2D2D"/>
<path d="M78.5696 29.0469H75.2005C72.7981 29.0469 73.2491 29.4352 70.8325 45.7017L73.4662 46.2375L75.3698 33.4623V43.7101H80.7716V38.4885L78.5696 29.0469Z" fill="#474646"/>
<path d="M78.8936 27.7153L82.649 27.7231L80.7674 29.4287L78.8936 27.7153Z" fill="#98DCF4"/>
<path d="M82.0033 28.4801V26.0214H79.5479V28.4801C79.3553 28.4905 79.1602 28.4995 78.9741 28.5151C79.0466 28.943 79.2681 29.3315 79.5992 29.6115C79.9304 29.8916 80.3499 30.0453 80.7834 30.0453C81.2168 30.0453 81.6363 29.8916 81.9675 29.6115C82.2986 29.3315 82.5201 28.943 82.5926 28.5151C82.391 28.4995 82.1907 28.4905 82.0033 28.4801Z" fill="#FCB560"/>
<path d="M81.768 29.4286H79.7714L79.2002 30.2297L80.0105 31.5678H81.5289L82.3392 30.2297L81.768 29.4286Z" fill="#033D91"/>
<path d="M84.6306 34.429H82.6353V36.5655H84.6306V34.429Z" fill="#686868"/>
<path d="M78.568 29.0469L76.3271 31.2715L80.7688 38.4872L78.568 29.0469Z" fill="#2D2D2D"/>
<path d="M82.9698 29.0469L85.2107 31.2715L80.769 38.4872L82.9698 29.0469Z" fill="#474646"/>
<path d="M78.0371 28.5681L78.8939 27.7153L80.7678 29.4287L79.3992 30.8794L78.0371 28.5681Z" fill="#D2F7FF"/>
<path d="M83.5008 28.5785L82.6492 27.7231L80.7676 29.4287L82.131 30.8845L83.5008 28.5785Z" fill="#D2F7FF"/>
<path d="M85.919 43.7101V61.131H82.0744L81.1142 47.1356H80.4228L79.4639 61.131H75.6167V43.7101H85.919Z" fill="#686868"/>
<path d="M85.92 43.7101H75.6177V44.7894H85.92V43.7101Z" fill="#222324"/>
<path d="M81.883 43.7101H79.6538V44.7894H81.883V43.7101Z" fill="#FAB914"/>
<path d="M77.6492 45.703H75.6177V50.1818H77.6492V45.703Z" fill="#414344"/>
<path d="M85.9187 45.703H83.8872V50.1818H85.9187V45.703Z" fill="#414344"/>
<path d="M86.3232 19.4733C85.7236 16.7182 83.4659 14.4122 80.7663 14.4122C78.0667 14.4122 75.8116 16.7182 75.2094 19.4733C75.0714 19.4659 74.9334 19.4868 74.8039 19.5347C74.6743 19.5826 74.5558 19.6565 74.4557 19.7518C74.3557 19.8472 74.2761 19.962 74.2219 20.0892C74.1677 20.2165 74.1401 20.3534 74.1406 20.4918V21.5374C74.1406 22.0744 74.5283 22.5558 75.2598 22.5558C75.9292 25.2164 78.1364 27.3995 80.7624 27.3995C83.3884 27.3995 85.5982 25.2164 86.2664 22.5558C87.0004 22.5558 87.3842 22.0744 87.3842 21.5374V20.4918C87.3847 20.3537 87.3571 20.2169 87.3031 20.0898C87.2491 19.9628 87.1698 19.8481 87.07 19.7528C86.9702 19.6575 86.852 19.5835 86.7228 19.5355C86.5935 19.4874 86.4558 19.4663 86.318 19.4733H86.3232Z" fill="#FFC37B"/>
<path d="M85.2844 14.8677L85.7936 14.7836C85.1371 13.7677 83.9081 13.4675 83.9081 13.4675L84.3527 13.0599C82.5434 12.3662 81.4592 12.8774 81.4592 12.8774C81.6078 12.6587 83.019 12.0751 83.019 12.0751C78.2245 11.4526 73.0682 14.7836 75.2147 19.4733L76.3287 18.6218C76.5943 18.4194 76.9029 18.281 77.2305 18.2172C77.5582 18.1535 77.8961 18.1662 78.2181 18.2543L80.3723 18.847C80.6312 18.9181 80.9044 18.9181 81.1632 18.847L83.3188 18.2543C83.6406 18.1662 83.9783 18.1535 84.3057 18.2173C84.6331 18.281 84.9415 18.4194 85.2069 18.6218L86.3221 19.4733C86.9282 17.4416 86.3932 15.9055 85.2883 14.8677H85.2844Z" fill="#933709"/>
<path d="M113.604 79.56H110.886V81.6008H113.604V79.56Z" fill="#D2F7FF"/>
<path d="M116.637 83.0489L116.628 82.8082C116.628 82.2026 115.723 82.2673 115.187 82.2504C114.578 82.2323 113.939 82.1068 113.605 81.6034H110.892C110.57 82.2918 110.851 83.0398 110.851 83.0398V83.5135H112.79V83.3258C114.342 83.7024 115.809 83.4216 116.637 83.0489Z" fill="#2D2D2D"/>
<path d="M106.943 79.56H104.226V81.6008H106.943V79.56Z" fill="#D2F7FF"/>
<path d="M105.045 83.3258V83.5134H106.983V83.0372C106.983 83.0372 107.265 82.2892 106.943 81.6008H104.23C103.896 82.1068 103.256 82.2323 102.648 82.2478C102.106 82.2646 101.207 82.1999 101.207 82.8056L101.198 83.0462C102.021 83.4215 103.488 83.7024 105.045 83.3258Z" fill="#2D2D2D"/>
<path d="M98.6246 68.4076C98.6113 68.4496 98.6149 68.4951 98.6346 68.5344C98.6544 68.5737 98.6888 68.6037 98.7304 68.618C98.772 68.6322 98.8175 68.6295 98.8572 68.6105C98.8968 68.5915 98.9275 68.5577 98.9425 68.5164L99.2617 67.5212L99.3147 67.5432L98.958 68.8463C98.8895 69.1051 99.3147 69.2125 99.3457 68.9511L99.6946 67.6713C99.7196 67.6795 99.7451 67.6859 99.7709 67.6907C99.7593 67.7218 99.7799 67.6234 99.4995 69.1336C99.4899 69.1851 99.5011 69.2383 99.5307 69.2815C99.5603 69.3247 99.6058 69.3543 99.6572 69.3639C99.7086 69.3736 99.7617 69.3623 99.8049 69.3327C99.848 69.3031 99.8776 69.2576 99.8872 69.2061C100.17 67.6907 100.152 67.7942 100.146 67.7658L100.208 67.7761L100.09 69.0922C100.089 69.1427 100.107 69.1917 100.141 69.2294C100.174 69.2671 100.221 69.2906 100.271 69.2952C100.321 69.2998 100.371 69.2851 100.411 69.2542C100.451 69.2232 100.478 69.1783 100.486 69.1284L100.601 67.8344C100.601 67.815 100.692 67.2844 100.778 67.2184C100.944 67.089 101.021 67.793 101.203 68.0867C101.385 68.3805 101.611 68.176 101.611 68.176C101.611 68.176 101.543 67.9922 101.466 67.7528C101.311 67.2663 101.419 66.6878 100.939 66.2646C100.749 66.0964 100.81 65.8583 100.842 65.2436L99.7929 64.9848C99.7929 64.9848 99.6533 65.1517 99.5473 65.6978C99.1894 65.6849 98.9942 66.6231 99.0434 67.1123C99.0434 67.1123 99.0434 67.1123 99.0434 67.1187L98.6246 68.4076Z" fill="#FFC37B"/>
<path d="M119.205 68.4076C119.218 68.4496 119.214 68.4951 119.195 68.5344C119.175 68.5737 119.14 68.6037 119.099 68.618C119.057 68.6322 119.012 68.6295 118.972 68.6105C118.932 68.5915 118.902 68.5577 118.887 68.5164L118.566 67.5212L118.515 67.5432L118.87 68.8463C118.938 69.1051 118.515 69.2125 118.482 68.9511L118.133 67.6713C118.108 67.6796 118.082 67.6861 118.056 67.6907C118.069 67.7218 118.048 67.6234 118.328 69.1336C118.334 69.1833 118.321 69.2333 118.291 69.2735C118.261 69.3136 118.217 69.3411 118.168 69.3503C118.119 69.3594 118.068 69.3497 118.026 69.3229C117.984 69.2962 117.953 69.2544 117.941 69.2061C117.659 67.6907 117.682 67.7942 117.682 67.7658L117.619 67.7761L117.737 69.0922C117.738 69.1427 117.72 69.1917 117.686 69.2294C117.653 69.2671 117.606 69.2906 117.556 69.2952C117.506 69.2998 117.455 69.2851 117.416 69.2542C117.376 69.2232 117.349 69.1783 117.341 69.1284L117.227 67.8344C117.227 67.815 117.136 67.2844 117.05 67.2184C116.882 67.089 116.807 67.793 116.625 68.0867C116.443 68.3805 116.217 68.176 116.217 68.176C116.217 68.176 116.285 67.9922 116.362 67.7528C116.517 67.2663 116.409 66.6878 116.889 66.2646C117.079 66.0964 117.018 65.8583 116.984 65.2436L118.035 64.9848C118.035 64.9848 118.173 65.1517 118.279 65.6978C118.637 65.6849 118.832 66.6231 118.783 67.1123C118.783 67.1144 118.783 67.1166 118.783 67.1187L119.205 68.4076Z" fill="#FFC37B"/>
<path d="M106.711 49.043L108.91 58.4859L111.111 49.043H106.711Z" fill="#B6E9FF"/>
<path d="M109.672 51.5639H108.153L107.515 53.8518L108.303 59.199L108.913 59.3711L109.523 59.199L110.31 53.8518L109.672 51.5639Z" fill="#0258A0"/>
<path d="M111.116 49.043H114.485C116.887 49.043 116.436 49.4313 118.853 65.6992L116.219 66.2336L114.311 53.4584V63.7063H108.909V58.4847L111.116 49.043Z" fill="#2D2D2D"/>
<path d="M106.712 49.043H103.344C100.942 49.043 101.392 49.4313 98.9751 65.6992L101.61 66.2336L103.512 53.4584V63.7063H108.914V58.4847L106.712 49.043Z" fill="#474646"/>
<path d="M107.036 47.7114L110.793 47.7192L108.91 49.4248L107.036 47.7114Z" fill="#98DCF4"/>
<path d="M110.139 48.4762V46.0175H107.684L107.676 48.4762C107.483 48.4866 107.288 48.4956 107.102 48.5112C107.178 48.9352 107.401 49.3189 107.731 49.5952C108.061 49.8715 108.478 50.0229 108.908 50.0229C109.338 50.0229 109.755 49.8715 110.085 49.5952C110.415 49.3189 110.638 48.9352 110.714 48.5112C110.529 48.4956 110.333 48.4866 110.139 48.4762Z" fill="#FCB560"/>
<path d="M109.911 49.4248H107.914L107.343 50.2258L108.153 51.5639H109.672L110.482 50.2258L109.911 49.4248Z" fill="#033D91"/>
<path d="M112.774 54.4251H110.779V56.5616H112.774V54.4251Z" fill="#686868"/>
<path d="M106.712 49.043L104.47 51.2676L108.911 58.4846L106.712 49.043Z" fill="#2D2D2D"/>
<path d="M111.112 49.043L113.353 51.2676L108.912 58.4846L111.112 49.043Z" fill="#474646"/>
<path d="M106.181 48.5642L107.036 47.7114L108.91 49.4248L107.541 50.8755L106.181 48.5642Z" fill="#D2F7FF"/>
<path d="M111.645 48.5746L110.793 47.7192L108.91 49.4248L110.274 50.8819L111.645 48.5746Z" fill="#D2F7FF"/>
<path d="M114.063 63.7062V81.1271H110.217L109.256 67.1317H108.566L107.606 81.1271H103.76V63.7062H114.063Z" fill="#686868"/>
<path d="M114.063 63.7062H103.76V64.7855H114.063V63.7062Z" fill="#222324"/>
<path d="M110.026 63.7062H107.796V64.7855H110.026V63.7062Z" fill="#FAB914"/>
<path d="M105.792 65.6991H103.76V70.1779H105.792V65.6991Z" fill="#414344"/>
<path d="M114.061 65.6991H112.03V70.1779H114.061V65.6991Z" fill="#414344"/>
<path d="M114.466 39.4694C113.866 36.7143 111.609 34.4096 108.909 34.4096C106.209 34.4096 103.955 36.7143 103.352 39.4694C103.214 39.4622 103.076 39.4832 102.947 39.5312C102.817 39.5792 102.699 39.6531 102.599 39.7484C102.499 39.8437 102.419 39.9584 102.365 40.0856C102.311 40.2127 102.283 40.3496 102.283 40.4879V41.5335C102.283 42.0706 102.671 42.5519 103.402 42.5519C104.073 45.2126 106.28 47.3957 108.905 47.3957C111.53 47.3957 113.741 45.2126 114.409 42.5519C115.143 42.5519 115.528 42.0706 115.528 41.5335V40.4879C115.529 40.3497 115.501 40.2128 115.447 40.0857C115.393 39.9585 115.313 39.8438 115.213 39.7484C115.113 39.6531 114.995 39.5792 114.866 39.5312C114.736 39.4833 114.598 39.4622 114.461 39.4694H114.466Z" fill="#FFC37B"/>
<path d="M113.427 34.8651L113.936 34.7797C113.28 33.7651 112.051 33.4636 112.051 33.4636L112.496 33.056C110.687 32.3636 109.602 32.8735 109.602 32.8735C109.75 32.6548 111.161 32.0712 111.161 32.0712C106.368 31.4487 101.211 34.7797 103.357 39.4694L104.473 38.6179C104.738 38.4154 105.046 38.277 105.374 38.2135C105.701 38.1499 106.039 38.163 106.361 38.2517L108.516 38.8431C108.775 38.9142 109.048 38.9142 109.307 38.8431L111.461 38.2517C111.783 38.163 112.121 38.1499 112.448 38.2135C112.776 38.277 113.084 38.4154 113.349 38.6179L114.465 39.4694C115.071 37.4377 114.536 35.9016 113.431 34.8651H113.427Z" fill="#BCA14D"/>
</g>
<defs>
<clipPath id="clip0_1881_9616">
<rect width="84" height="80" fill="white" transform="translate(38 12)"/>
</clipPath>
</defs>
</svg>
