<svg width="157" height="160" viewBox="0 0 157 160" fill="none" xmlns="http://www.w3.org/2000/svg">
<path d="M27.62 136.24C26.2467 136.24 25.06 135.94 24.06 135.34C23.0733 134.727 22.3067 133.88 21.76 132.8C21.2133 131.707 20.94 130.44 20.94 129C20.94 127.573 21.2133 126.32 21.76 125.24C22.3067 124.147 23.0733 123.293 24.06 122.68C25.06 122.067 26.2467 121.76 27.62 121.76C29.22 121.76 30.52 122.147 31.52 122.92C32.5333 123.68 33.18 124.747 33.46 126.12H31.6C31.3867 125.253 30.9467 124.56 30.28 124.04C29.6267 123.507 28.74 123.24 27.62 123.24C26.62 123.24 25.7467 123.473 25 123.94C24.2533 124.393 23.6733 125.053 23.26 125.92C22.86 126.773 22.66 127.8 22.66 129C22.66 130.2 22.86 131.233 23.26 132.1C23.6733 132.953 24.2533 133.613 25 134.08C25.7467 134.533 26.62 134.76 27.62 134.76C28.74 134.76 29.6267 134.507 30.28 134C30.9467 133.48 31.3867 132.793 31.6 131.94H33.46C33.18 133.287 32.5333 134.34 31.52 135.1C30.52 135.86 29.22 136.24 27.62 136.24ZM35.7745 136V126.08H37.2945L37.4345 127.98C37.7412 127.327 38.2079 126.807 38.8345 126.42C39.4612 126.033 40.2345 125.84 41.1545 125.84V127.6H40.6945C40.1079 127.6 39.5679 127.707 39.0745 127.92C38.5812 128.12 38.1879 128.467 37.8945 128.96C37.6012 129.453 37.4545 130.133 37.4545 131V136H35.7745ZM47.1291 136.24C46.1824 136.24 45.3424 136.027 44.6091 135.6C43.8757 135.16 43.2957 134.553 42.8691 133.78C42.4557 133.007 42.2491 132.093 42.2491 131.04C42.2491 130 42.4557 129.093 42.8691 128.32C43.2824 127.533 43.8557 126.927 44.5891 126.5C45.3357 126.06 46.1957 125.84 47.1691 125.84C48.1291 125.84 48.9557 126.06 49.6491 126.5C50.3557 126.927 50.8957 127.493 51.2691 128.2C51.6424 128.907 51.8291 129.667 51.8291 130.48C51.8291 130.627 51.8224 130.773 51.8091 130.92C51.8091 131.067 51.8091 131.233 51.8091 131.42H43.9091C43.9491 132.18 44.1224 132.813 44.4291 133.32C44.7491 133.813 45.1424 134.187 45.6091 134.44C46.0891 134.693 46.5957 134.82 47.1291 134.82C47.8224 134.82 48.4024 134.66 48.8691 134.34C49.3357 134.02 49.6757 133.587 49.8891 133.04H51.5491C51.2824 133.96 50.7691 134.727 50.0091 135.34C49.2624 135.94 48.3024 136.24 47.1291 136.24ZM47.1291 127.26C46.3291 127.26 45.6157 127.507 44.9891 128C44.3757 128.48 44.0224 129.187 43.9291 130.12H50.1691C50.1291 129.227 49.8224 128.527 49.2491 128.02C48.6757 127.513 47.9691 127.26 47.1291 127.26ZM57.3558 136.24C56.5291 136.24 55.8424 136.1 55.2958 135.82C54.7491 135.54 54.3424 135.167 54.0758 134.7C53.8091 134.233 53.6758 133.727 53.6758 133.18C53.6758 132.167 54.0624 131.387 54.8358 130.84C55.6091 130.293 56.6624 130.02 57.9958 130.02H60.6758V129.9C60.6758 129.033 60.4491 128.38 59.9958 127.94C59.5424 127.487 58.9358 127.26 58.1758 127.26C57.5224 127.26 56.9558 127.427 56.4758 127.76C56.0091 128.08 55.7158 128.553 55.5958 129.18H53.8758C53.9424 128.46 54.1824 127.853 54.5958 127.36C55.0224 126.867 55.5491 126.493 56.1758 126.24C56.8024 125.973 57.4691 125.84 58.1758 125.84C59.5624 125.84 60.6024 126.213 61.2958 126.96C62.0024 127.693 62.3558 128.673 62.3558 129.9V136H60.8558L60.7558 134.22C60.4758 134.78 60.0624 135.26 59.5158 135.66C58.9824 136.047 58.2624 136.24 57.3558 136.24ZM57.6158 134.82C58.2558 134.82 58.8024 134.653 59.2558 134.32C59.7224 133.987 60.0758 133.553 60.3158 133.02C60.5558 132.487 60.6758 131.927 60.6758 131.34V131.32H58.1358C57.1491 131.32 56.4491 131.493 56.0358 131.84C55.6358 132.173 55.4358 132.593 55.4358 133.1C55.4358 133.62 55.6224 134.04 55.9958 134.36C56.3824 134.667 56.9224 134.82 57.6158 134.82ZM68.5227 136C67.616 136 66.9027 135.78 66.3827 135.34C65.8627 134.9 65.6027 134.107 65.6027 132.96V127.5H63.8827V126.08H65.6027L65.8227 123.7H67.2827V126.08H70.2027V127.5H67.2827V132.96C67.2827 133.587 67.4093 134.013 67.6627 134.24C67.916 134.453 68.3627 134.56 69.0027 134.56H70.0427V136H68.5227ZM76.5236 136.24C75.5769 136.24 74.7369 136.027 74.0036 135.6C73.2703 135.16 72.6903 134.553 72.2636 133.78C71.8503 133.007 71.6436 132.093 71.6436 131.04C71.6436 130 71.8503 129.093 72.2636 128.32C72.6769 127.533 73.2503 126.927 73.9836 126.5C74.7303 126.06 75.5903 125.84 76.5636 125.84C77.5236 125.84 78.3503 126.06 79.0436 126.5C79.7503 126.927 80.2903 127.493 80.6636 128.2C81.0369 128.907 81.2236 129.667 81.2236 130.48C81.2236 130.627 81.2169 130.773 81.2036 130.92C81.2036 131.067 81.2036 131.233 81.2036 131.42H73.3036C73.3436 132.18 73.5169 132.813 73.8236 133.32C74.1436 133.813 74.5369 134.187 75.0036 134.44C75.4836 134.693 75.9903 134.82 76.5236 134.82C77.2169 134.82 77.7969 134.66 78.2636 134.34C78.7303 134.02 79.0703 133.587 79.2836 133.04H80.9436C80.6769 133.96 80.1636 134.727 79.4036 135.34C78.6569 135.94 77.6969 136.24 76.5236 136.24ZM76.5236 127.26C75.7236 127.26 75.0103 127.507 74.3836 128C73.7703 128.48 73.4169 129.187 73.3236 130.12H79.5636C79.5236 129.227 79.2169 128.527 78.6436 128.02C78.0703 127.513 77.3636 127.26 76.5236 127.26ZM92.1233 136V123.38H87.9433V122H97.9833V123.38H93.8033V136H92.1233ZM102.598 136.24C101.651 136.24 100.811 136.027 100.078 135.6C99.3445 135.16 98.7645 134.553 98.3378 133.78C97.9245 133.007 97.7178 132.093 97.7178 131.04C97.7178 130 97.9245 129.093 98.3378 128.32C98.7511 127.533 99.3245 126.927 100.058 126.5C100.804 126.06 101.664 125.84 102.638 125.84C103.598 125.84 104.424 126.06 105.118 126.5C105.824 126.927 106.364 127.493 106.738 128.2C107.111 128.907 107.298 129.667 107.298 130.48C107.298 130.627 107.291 130.773 107.278 130.92C107.278 131.067 107.278 131.233 107.278 131.42H99.3778C99.4178 132.18 99.5911 132.813 99.8978 133.32C100.218 133.813 100.611 134.187 101.078 134.44C101.558 134.693 102.064 134.82 102.598 134.82C103.291 134.82 103.871 134.66 104.338 134.34C104.804 134.02 105.144 133.587 105.358 133.04H107.018C106.751 133.96 106.238 134.727 105.478 135.34C104.731 135.94 103.771 136.24 102.598 136.24ZM102.598 127.26C101.798 127.26 101.084 127.507 100.458 128C99.8445 128.48 99.4911 129.187 99.3978 130.12H105.638C105.598 129.227 105.291 128.527 104.718 128.02C104.144 127.513 103.438 127.26 102.598 127.26ZM112.825 136.24C111.998 136.24 111.311 136.1 110.765 135.82C110.218 135.54 109.811 135.167 109.545 134.7C109.278 134.233 109.145 133.727 109.145 133.18C109.145 132.167 109.531 131.387 110.305 130.84C111.078 130.293 112.131 130.02 113.465 130.02H116.145V129.9C116.145 129.033 115.918 128.38 115.465 127.94C115.011 127.487 114.405 127.26 113.645 127.26C112.991 127.26 112.425 127.427 111.945 127.76C111.478 128.08 111.185 128.553 111.065 129.18H109.345C109.411 128.46 109.651 127.853 110.065 127.36C110.491 126.867 111.018 126.493 111.645 126.24C112.271 125.973 112.938 125.84 113.645 125.84C115.031 125.84 116.071 126.213 116.765 126.96C117.471 127.693 117.825 128.673 117.825 129.9V136H116.325L116.225 134.22C115.945 134.78 115.531 135.26 114.985 135.66C114.451 136.047 113.731 136.24 112.825 136.24ZM113.085 134.82C113.725 134.82 114.271 134.653 114.725 134.32C115.191 133.987 115.545 133.553 115.785 133.02C116.025 132.487 116.145 131.927 116.145 131.34V131.32H113.605C112.618 131.32 111.918 131.493 111.505 131.84C111.105 132.173 110.905 132.593 110.905 133.1C110.905 133.62 111.091 134.04 111.465 134.36C111.851 134.667 112.391 134.82 113.085 134.82ZM120.345 136V126.08H121.865L121.985 127.52C122.305 126.987 122.732 126.573 123.265 126.28C123.798 125.987 124.398 125.84 125.065 125.84C125.852 125.84 126.525 126 127.085 126.32C127.658 126.64 128.098 127.127 128.405 127.78C128.752 127.18 129.225 126.707 129.825 126.36C130.438 126.013 131.098 125.84 131.805 125.84C132.992 125.84 133.938 126.2 134.645 126.92C135.352 127.627 135.705 128.72 135.705 130.2V136H134.045V130.38C134.045 129.353 133.838 128.58 133.425 128.06C133.012 127.54 132.418 127.28 131.645 127.28C130.845 127.28 130.178 127.593 129.645 128.22C129.125 128.833 128.865 129.713 128.865 130.86V136H127.185V130.38C127.185 129.353 126.978 128.58 126.565 128.06C126.152 127.54 125.558 127.28 124.785 127.28C123.998 127.28 123.338 127.593 122.805 128.22C122.285 128.833 122.025 129.713 122.025 130.86V136H120.345Z" fill="#7C7C7C"/>
<g clip-path="url(#clip0_1373_7686)">
<path d="M103.2 86.53C103.2 87.87 91.4901 88.95 77.0401 88.95C62.5901 88.95 50.8901 87.87 50.8901 86.53C50.8901 85.19 62.6001 84.11 77.0401 84.11C91.4801 84.11 103.2 85.2 103.2 86.53Z" fill="#CBCBCB"/>
<path d="M102.89 86.51C102.89 87.83 91.3202 88.9 77.0402 88.9C62.7602 88.9 51.2002 87.83 51.2002 86.51C51.2002 85.19 62.7702 84.12 77.0402 84.12C91.3102 84.12 102.89 85.19 102.89 86.51Z" fill="#FEFEFE"/>
<path d="M102.58 86.48C102.58 87.79 91.1498 88.85 77.0398 88.85C62.9298 88.85 51.5098 87.79 51.5098 86.48C51.5098 85.17 62.9398 84.12 77.0398 84.12C91.1398 84.12 102.58 85.18 102.58 86.48Z" fill="#FDFDFD"/>
<path d="M102.26 86.46C102.26 87.75 90.9798 88.79 77.0398 88.79C63.0998 88.79 51.8198 87.79 51.8198 86.46C51.8198 85.13 63.1198 84.12 77.0398 84.12C90.9598 84.12 102.26 85.17 102.26 86.46Z" fill="#FCFDFD"/>
<path d="M101.95 86.43C101.95 87.71 90.8001 88.74 77.0401 88.74C63.2801 88.74 52.1401 87.74 52.1401 86.43C52.1401 85.12 63.2901 84.13 77.0401 84.13C90.7901 84.13 101.95 85.16 101.95 86.43Z" fill="#FBFCFC"/>
<path d="M101.64 86.41C101.64 87.66 90.6402 88.68 77.0402 88.68C63.4402 88.68 52.4502 87.68 52.4502 86.41C52.4502 85.14 63.4502 84.13 77.0402 84.13C90.6302 84.13 101.64 85.15 101.64 86.41Z" fill="#FAFBFB"/>
<path d="M101.33 86.38C101.33 87.62 90.4598 88.63 77.0398 88.63C63.6198 88.63 52.7598 87.63 52.7598 86.38C52.7598 85.13 63.6298 84.13 77.0398 84.13C90.4498 84.13 101.33 85.14 101.33 86.38Z" fill="#F9FAFA"/>
<path d="M101.02 86.36C101.02 87.58 90.29 88.57 77.02 88.57C63.75 88.57 53.02 87.57 53.02 86.36C53.02 85.15 63.76 84.14 77.02 84.14C90.28 84.14 101.02 85.13 101.02 86.36Z" fill="#F8F9F9"/>
<path d="M100.71 86.33C100.71 87.54 90.1099 88.52 77.0399 88.52C63.9699 88.52 53.3799 87.52 53.3799 86.33C53.3799 85.14 63.9799 84.14 77.0399 84.14C90.0999 84.14 100.71 85.12 100.71 86.33Z" fill="#F7F9F9"/>
<path d="M100.39 86.3C100.39 87.5 89.9399 88.46 77.0399 88.46C64.1399 88.46 53.6899 87.46 53.6899 86.3C53.6899 85.14 64.1499 84.14 77.0399 84.14C89.9299 84.14 100.39 85.11 100.39 86.3Z" fill="#F6F8F8"/>
<path d="M100.08 86.28C100.08 87.46 89.7701 88.41 77.0801 88.41C64.3901 88.41 54.0801 87.46 54.0801 86.28C54.0801 85.1 64.3901 84.15 77.0801 84.15C89.7701 84.15 100.08 85.1 100.08 86.28Z" fill="#F5F7F7"/>
<path d="M99.8201 86.25C99.8201 87.41 89.6501 88.36 77.0901 88.36C64.5301 88.36 54.3701 87.36 54.3701 86.25C54.3701 85.14 64.5401 84.15 77.0901 84.15C89.6401 84.15 99.8201 85.09 99.8201 86.25Z" fill="#F4F6F6"/>
<path d="M99.4599 86.23C99.4599 87.37 89.4599 88.3 77.0399 88.3C64.6199 88.3 54.6299 87.37 54.6299 86.23C54.6299 85.09 64.6299 84.15 77.0399 84.15C89.4499 84.15 99.4599 85.08 99.4599 86.23Z" fill="#F3F6F6"/>
<path d="M99.1499 86.2C99.1499 87.33 89.2499 88.2 77.0399 88.2C64.8299 88.2 54.9399 87.28 54.9399 86.2C54.9399 85.12 64.8399 84.2 77.0399 84.2C89.2399 84.2 99.1499 85.07 99.1499 86.2Z" fill="#F2F5F5"/>
<path d="M98.8202 86.18C98.8202 87.29 89.0702 88.18 77.0302 88.18C64.9902 88.18 55.2402 87.28 55.2402 86.18C55.2402 85.08 65.0002 84.18 77.0302 84.18C89.0602 84.18 98.8202 85.06 98.8202 86.18Z" fill="#F1F4F4"/>
<path d="M98.5198 86.15C98.5198 87.25 88.9098 88.15 77.0398 88.15C65.1698 88.15 55.5698 87.26 55.5698 86.15C55.5698 85.04 65.1798 84.15 77.0398 84.15C88.8998 84.15 98.5198 85.05 98.5198 86.15Z" fill="#F0F3F3"/>
<path d="M98.2099 86.13C98.2099 87.21 88.7399 88.13 77.0399 88.13C65.3399 88.13 55.8799 87.26 55.8799 86.13C55.8799 85 65.3499 84.13 77.0399 84.13C88.7299 84.13 98.2099 85.04 98.2099 86.13Z" fill="#EFF2F2"/>
<path d="M97.8999 86.1C97.8999 87.17 88.5599 88.03 77.0399 88.03C65.5199 88.03 56.1899 87.17 56.1899 86.1C56.1899 85.03 65.5299 84.17 77.0399 84.17C88.5499 84.17 97.8999 85.03 97.8999 86.1Z" fill="#EEF2F2"/>
<path d="M97.59 86.07C97.59 87.12 88.39 87.97 77.04 87.97C65.69 87.97 56.5 87.12 56.5 86.07C56.5 85.02 65.7 84.17 77.04 84.17C88.38 84.17 97.59 85.02 97.59 86.07Z" fill="#EDF1F1"/>
<path d="M97.2698 86.05C97.2698 87.05 88.2198 87.92 77.0398 87.92C65.8598 87.92 56.8198 87.08 56.8198 86.05C56.8198 85.02 65.8798 84.18 77.0498 84.18C88.2198 84.18 97.2698 85.01 97.2698 86.05Z" fill="#EDF0F0"/>
<path d="M96.9599 86.02C96.9599 87.02 88.0499 87.87 77.0399 87.87C66.0299 87.87 57.1299 87.04 57.1299 86.02C57.1299 85 66.0399 84.18 77.0399 84.18C88.0399 84.18 96.9599 85 96.9599 86.02Z" fill="#ECEFEF"/>
<path d="M96.6499 86C96.6499 87 87.8699 87.81 77.0399 87.81C66.2099 87.81 57.4399 87 57.4399 86C57.4399 85 66.2199 84.18 77.0399 84.18C87.8599 84.18 96.6499 85 96.6499 86Z" fill="#EBEEEE"/>
<path d="M96.34 85.97C96.34 86.97 87.7 87.76 77.04 87.76C66.38 87.76 57.75 86.96 57.75 85.97C57.75 84.98 66.39 84.19 77.04 84.19C87.69 84.19 96.34 84.99 96.34 85.97Z" fill="#EAEEEE"/>
<path d="M96.0298 85.95C96.0298 86.95 87.5298 87.7 77.0298 87.7C66.5298 87.7 58.0298 86.92 58.0298 85.95C58.0298 84.98 66.5298 84.19 77.0298 84.19C87.5298 84.19 96.0298 84.98 96.0298 85.95Z" fill="#E9EDED"/>
<path d="M95.7201 85.92C95.7201 86.87 87.3601 87.65 77.0401 87.65C66.7201 87.65 58.3701 86.87 58.3701 85.92C58.3701 84.97 66.7301 84.19 77.0401 84.19C87.3501 84.19 95.7201 84.97 95.7201 85.92Z" fill="#E8ECEC"/>
<path d="M95.4002 85.89C95.4002 86.83 87.1802 87.59 77.0402 87.59C66.9002 87.59 58.6802 86.83 58.6802 85.89C58.6802 84.95 66.9002 84.2 77.0402 84.2C87.1802 84.2 95.4002 84.96 95.4002 85.89Z" fill="#E7EBEB"/>
<path d="M95.0898 85.87C95.0898 86.79 87.0098 87.54 77.0898 87.54C67.1698 87.54 59.0898 86.79 59.0898 85.87C59.0898 84.95 67.1698 84.2 77.0898 84.2C87.0098 84.2 95.0898 84.95 95.0898 85.87Z" fill="#E6EAEA"/>
<path d="M94.8201 85.84C94.8201 86.75 86.8801 87.48 77.0801 87.48C67.2801 87.48 59.3501 86.75 59.3501 85.84C59.3501 84.93 67.2901 84.2 77.0801 84.2C86.8701 84.2 94.8201 84.94 94.8201 85.84Z" fill="#E5EAEA"/>
<path d="M94.4701 85.82C94.4701 86.71 86.6701 87.43 77.0401 87.43C67.4101 87.43 59.6201 86.71 59.6201 85.82C59.6201 84.93 67.4201 84.21 77.0401 84.21C86.6601 84.21 94.4701 84.93 94.4701 85.82Z" fill="#E4E9E9"/>
<path d="M94.1602 85.79C94.1602 86.67 86.4902 87.38 77.0402 87.38C67.5902 87.38 59.9302 86.67 59.9302 85.79C59.9302 84.91 67.5902 84.21 77.0402 84.21C86.4902 84.21 94.1602 84.92 94.1602 85.79Z" fill="#E3E8E8"/>
<path d="M93.8202 85.77C93.8202 86.63 86.3002 87.32 77.0202 87.32C67.7402 87.32 60.2202 86.63 60.2202 85.77C60.2202 84.91 67.7402 84.21 77.0202 84.21C86.3002 84.21 93.8202 84.91 93.8202 85.77Z" fill="#E2E7E7"/>
<path d="M93.5301 85.74C93.5301 86.58 86.1501 87.27 77.0401 87.27C67.9301 87.27 60.5601 86.58 60.5601 85.74C60.5601 84.9 67.9401 84.22 77.0401 84.22C86.1401 84.22 93.5301 84.9 93.5301 85.74Z" fill="#E1E7E7"/>
<path d="M93.2201 85.68C93.2201 86.5 85.9801 87.17 77.0401 87.17C68.1001 87.17 60.8701 86.5 60.8701 85.68C60.8701 84.86 68.1101 84.18 77.0401 84.18C85.9701 84.18 93.2201 84.89 93.2201 85.68Z" fill="#E0E6E6"/>
<path d="M92.9102 85.68C92.9102 86.49 85.8102 87.15 77.0402 87.15C68.2702 87.15 61.1802 86.49 61.1802 85.68C61.1802 84.87 68.2802 84.21 77.0402 84.21C85.8002 84.21 92.9102 84.88 92.9102 85.68Z" fill="#DFE5E5"/>
<path d="M92.6002 85.68C92.6002 86.48 85.6002 87.12 77.0402 87.12C68.4802 87.12 61.4902 86.48 61.4902 85.68C61.4902 84.88 68.4902 84.24 77.0402 84.24C85.5902 84.24 92.6002 84.87 92.6002 85.68Z" fill="#DEE4E4"/>
<path d="M92.2798 85.68C92.2798 86.46 85.4598 87.09 77.0398 87.09C68.6198 87.09 61.8198 86.42 61.8198 85.68C61.8198 84.94 68.6498 84.27 77.0598 84.27C85.4698 84.27 92.2798 84.86 92.2798 85.68Z" fill="#DDE3E3"/>
<path d="M91.9701 85.61C91.9701 86.38 85.2901 86.99 77.0401 86.99C68.7901 86.99 62.1201 86.38 62.1201 85.61C62.1201 84.84 68.8001 84.23 77.0401 84.23C85.2801 84.23 91.9701 84.85 91.9701 85.61Z" fill="#DCE3E3"/>
<path d="M91.6602 85.59C91.6602 86.33 85.1202 86.94 77.0402 86.94C68.9602 86.94 62.4302 86.33 62.4302 85.59C62.4302 84.85 68.9702 84.23 77.0402 84.23C85.1102 84.23 91.6602 84.84 91.6602 85.59Z" fill="#DBE2E2"/>
<path d="M91.3502 85.56C91.3502 86.29 84.9402 86.88 77.0402 86.88C69.1402 86.88 62.7402 86.29 62.7402 85.56C62.7402 84.83 69.1402 84.24 77.0402 84.24C84.9402 84.24 91.3502 84.83 91.3502 85.56Z" fill="#DAE1E1"/>
<path d="M77.32 77C77.32 78.33 65.6 79.42 51.16 79.42C36.72 79.42 25 78.33 25 77C25 75.67 36.71 74.57 51.16 74.57C65.61 74.57 77.32 75.68 77.32 77Z" fill="#CBCBCB"/>
<path d="M76.9998 76.97C76.9998 78.29 65.4298 79.36 51.1598 79.36C36.8898 79.36 25.3198 78.29 25.3198 76.97C25.3198 75.65 36.8898 74.58 51.1598 74.58C65.4298 74.58 76.9998 75.68 76.9998 76.97Z" fill="#FEFEFE"/>
<path d="M76.6899 76.94C76.6899 78.25 65.2599 79.31 51.1599 79.31C37.0599 79.31 25.6299 78.25 25.6299 76.94C25.6299 75.63 37.0599 74.58 51.1599 74.58C65.2599 74.58 76.6899 75.68 76.6899 76.94Z" fill="#FDFDFD"/>
<path d="M76.3799 76.92C76.3799 78.21 65.0899 79.25 51.1599 79.25C37.2299 79.25 25.9399 78.25 25.9399 76.92C25.9399 75.59 37.2299 74.58 51.1599 74.58C65.0899 74.58 76.3799 75.68 76.3799 76.92Z" fill="#FCFDFD"/>
<path d="M76.07 76.89C76.07 78.17 64.92 79.2 51.16 79.2C37.4 79.2 26.25 78.2 26.25 76.89C26.25 75.58 37.4 74.59 51.16 74.59C64.92 74.59 76.07 75.62 76.07 76.89Z" fill="#FBFCFC"/>
<path d="M75.7601 76.87C75.7601 78.12 64.7601 79.14 51.1601 79.14C37.5601 79.14 26.5601 78.14 26.5601 76.87C26.5601 75.6 37.5601 74.59 51.1601 74.59C64.7601 74.59 75.7601 75.61 75.7601 76.87Z" fill="#FAFBFB"/>
<path d="M75.4499 76.84C75.4499 78.08 64.5699 79.09 51.1599 79.09C37.7499 79.09 26.8799 78.09 26.8799 76.84C26.8799 75.59 37.7499 74.59 51.1599 74.59C64.5699 74.59 75.4499 75.6 75.4499 76.84Z" fill="#F9FAFA"/>
<path d="M75.1299 76.82C75.1299 78.04 64.3999 79.03 51.1299 79.03C37.8599 79.03 27.1299 78.03 27.1299 76.82C27.1299 75.61 37.8599 74.6 51.1299 74.6C64.3999 74.6 75.1299 75.59 75.1299 76.82Z" fill="#F8F9F9"/>
<path d="M74.82 76.79C74.82 78 64.23 78.98 51.16 78.98C38.09 78.98 27.5 77.98 27.5 76.79C27.5 75.6 38.09 74.6 51.16 74.6C64.23 74.6 74.82 75.58 74.82 76.79Z" fill="#F7F9F9"/>
<path d="M74.5101 76.77C74.5101 77.96 64.0501 78.93 51.1601 78.93C38.2701 78.93 27.8101 77.93 27.8101 76.77C27.8101 75.61 38.2601 74.6 51.1601 74.6C64.0601 74.6 74.5101 75.57 74.5101 76.77Z" fill="#F6F8F8"/>
<path d="M74.2002 76.74C74.2002 77.92 63.8802 78.87 51.2002 78.87C38.5202 78.87 28.2002 77.92 28.2002 76.74C28.2002 75.56 38.5202 74.61 51.2002 74.61C63.8802 74.61 74.2002 75.56 74.2002 76.74Z" fill="#F5F7F7"/>
<path d="M73.8902 76.68C73.8902 77.84 63.7102 78.79 51.1602 78.79C38.6102 78.79 28.4302 77.84 28.4302 76.68C28.4302 75.52 38.6102 74.58 51.1602 74.58C63.7102 74.58 73.8902 75.55 73.8902 76.68Z" fill="#F4F6F6"/>
<path d="M73.57 76.68C73.57 77.82 63.57 78.75 51.16 78.75C38.75 78.75 28.75 77.82 28.75 76.68C28.75 75.54 38.75 74.6 51.16 74.6C63.57 74.6 73.57 75.54 73.57 76.68Z" fill="#F3F6F6"/>
<path d="M73.2601 76.68C73.2601 77.81 63.3701 78.73 51.1601 78.73C38.9501 78.73 29.0601 77.81 29.0601 76.68C29.0601 75.55 38.9501 74.68 51.1601 74.68C63.3701 74.68 73.2601 75.53 73.2601 76.68Z" fill="#F2F5F5"/>
<path d="M72.9501 76.68C72.9501 77.79 63.1901 78.68 51.1601 78.68C39.1301 78.68 29.3701 77.78 29.3701 76.68C29.3701 75.58 39.1301 74.68 51.1601 74.68C63.1901 74.68 72.9501 75.52 72.9501 76.68Z" fill="#F1F4F4"/>
<path d="M72.6402 76.61C72.6402 77.71 63.0202 78.61 51.1602 78.61C39.3002 78.61 29.6802 77.72 29.6802 76.61C29.6802 75.5 39.3002 74.61 51.1602 74.61C63.0202 74.61 72.6402 75.51 72.6402 76.61Z" fill="#F0F3F3"/>
<path d="M72.3302 76.59C72.3302 77.67 62.8502 78.59 51.1602 78.59C39.4702 78.59 29.9902 77.72 29.9902 76.59C29.9902 75.46 39.4702 74.59 51.1602 74.59C62.8502 74.59 72.3302 75.5 72.3302 76.59Z" fill="#EFF2F2"/>
<path d="M72.0101 76.56C72.0101 77.62 62.6801 78.49 51.1601 78.49C39.6401 78.49 30.3101 77.62 30.3101 76.56C30.3101 75.5 39.6401 74.63 51.1601 74.63C62.6801 74.63 72.0101 75.49 72.0101 76.56Z" fill="#EEF2F2"/>
<path d="M71.7001 76.53C71.7001 77.58 62.5001 78.44 51.1601 78.44C39.8201 78.44 30.6201 77.58 30.6201 76.53C30.6201 75.48 39.8201 74.68 51.1601 74.68C62.5001 74.68 71.7001 75.49 71.7001 76.53Z" fill="#EDF1F1"/>
<path d="M71.3902 76.51C71.3902 77.51 62.3302 78.38 51.1602 78.38C39.9902 78.38 30.9302 77.54 30.9302 76.51C30.9302 75.48 39.9902 74.63 51.1602 74.63C62.3302 74.63 71.3902 75.48 71.3902 76.51Z" fill="#EDF0F0"/>
<path d="M71.0802 76.48C71.0802 77.48 62.1602 78.33 51.1602 78.33C40.1602 78.33 31.2402 77.5 31.2402 76.48C31.2402 75.46 40.1602 74.64 51.1602 74.64C62.1602 74.64 71.0802 75.47 71.0802 76.48Z" fill="#ECEFEF"/>
<path d="M70.8201 76.46C70.8201 77.46 62.0401 78.27 51.2101 78.27C40.3801 78.27 31.6001 77.46 31.6001 76.46C31.6001 75.46 40.3801 74.64 51.2101 74.64C62.0401 74.64 70.8201 75.46 70.8201 76.46Z" fill="#EBEEEE"/>
<path d="M70.4601 76.43C70.4601 77.43 61.8201 78.22 51.1601 78.22C40.5001 78.22 31.8701 77.42 31.8701 76.43C31.8701 75.44 40.5001 74.64 51.1601 74.64C61.8201 74.64 70.4601 75.45 70.4601 76.43Z" fill="#EAEEEE"/>
<path d="M70.1401 76.41C70.1401 77.41 61.6401 78.16 51.1401 78.16C40.6401 78.16 32.1401 77.38 32.1401 76.41C32.1401 75.44 40.6301 74.65 51.1401 74.65C61.6501 74.65 70.1401 75.44 70.1401 76.41Z" fill="#E9EDED"/>
<path d="M69.82 76.38C69.82 77.38 61.46 78.11 51.15 78.11C40.84 78.11 32.48 77.33 32.48 76.38C32.48 75.43 40.82 74.68 51.16 74.68C61.5 74.68 69.82 75.43 69.82 76.38Z" fill="#E8ECEC"/>
<path d="M69.5198 76.36C69.5198 77.29 61.2998 78.05 51.1598 78.05C41.0198 78.05 32.8198 77.29 32.8198 76.36C32.8198 75.43 41.0198 74.68 51.1598 74.68C61.2998 74.68 69.5198 75.42 69.5198 76.36Z" fill="#E7EBEB"/>
<path d="M69.2102 76.33C69.2102 77.25 61.1302 78 51.1602 78C41.1902 78 33.1602 77.25 33.1602 76.33C33.1602 75.41 41.2402 74.66 51.1602 74.66C61.0802 74.66 69.2102 75.41 69.2102 76.33Z" fill="#E6EAEA"/>
<path d="M68.8999 76.3C68.8999 77.21 60.9499 77.94 51.1599 77.94C41.3699 77.94 33.4199 77.21 33.4199 76.3C33.4199 75.39 41.3599 74.66 51.1599 74.66C60.9599 74.66 68.8999 75.4 68.8999 76.3Z" fill="#E5EAEA"/>
<path d="M68.5802 76.28C68.5802 77.17 60.7802 77.89 51.1602 77.89C41.5402 77.89 33.7402 77.17 33.7402 76.28C33.7402 75.39 41.5402 74.66 51.1602 74.66C60.7802 74.66 68.5802 75.39 68.5802 76.28Z" fill="#E4E9E9"/>
<path d="M68.2698 76.25C68.2698 77.13 60.6098 77.84 51.1598 77.84C41.7098 77.84 34.0498 77.13 34.0498 76.25C34.0498 75.37 41.7098 74.67 51.1598 74.67C60.6098 74.67 68.2698 75.38 68.2698 76.25Z" fill="#E3E8E8"/>
<path d="M67.9599 76.23C67.9599 77.08 60.4399 77.78 51.1599 77.78C41.8799 77.78 34.3599 77.08 34.3599 76.23C34.3599 75.38 41.8799 74.67 51.1599 74.67C60.4399 74.67 67.9599 75.37 67.9599 76.23Z" fill="#E2E7E7"/>
<path d="M67.6499 76.2C67.6499 77.04 60.2699 77.73 51.1599 77.73C42.0499 77.73 34.6699 77.04 34.6699 76.2C34.6699 75.36 42.0499 74.67 51.1599 74.67C60.2699 74.67 67.6499 75.36 67.6499 76.2Z" fill="#E1E7E7"/>
<path d="M67.34 76.18C67.34 77 60.09 77.67 51.16 77.67C42.23 77.67 34.98 77 34.98 76.18C34.98 75.36 42.22 74.68 51.16 74.68C60.1 74.68 67.34 75.35 67.34 76.18Z" fill="#E0E6E6"/>
<path d="M67.0198 76.15C67.0198 76.96 59.9198 77.62 51.1598 77.62C42.3998 77.62 35.2998 76.96 35.2998 76.15C35.2998 75.34 42.3998 74.68 51.1598 74.68C59.9198 74.68 67.0198 75.34 67.0198 76.15Z" fill="#DFE5E5"/>
<path d="M66.7099 76.12C66.7099 76.92 59.7099 77.56 51.1599 77.56C42.6099 77.56 35.6099 76.92 35.6099 76.12C35.6099 75.32 42.6099 74.68 51.1599 74.68C59.7099 74.68 66.7099 75.33 66.7099 76.12Z" fill="#DEE4E4"/>
<path d="M66.3999 76.1C66.3999 76.88 59.5799 77.51 51.1599 77.51C42.7399 77.51 35.9199 76.88 35.9199 76.1C35.9199 75.32 42.7399 74.69 51.1599 74.69C59.5799 74.69 66.3999 75.32 66.3999 76.1Z" fill="#DDE3E3"/>
<path d="M66.09 76.07C66.09 76.83 59.4 77.45 51.16 77.45C42.92 77.45 36.23 76.83 36.23 76.07C36.23 75.31 42.91 74.69 51.16 74.69C59.41 74.69 66.09 75.31 66.09 76.07Z" fill="#DCE3E3"/>
<path d="M65.8201 76.05C65.8201 76.79 59.2701 77.4 51.2001 77.4C43.1301 77.4 36.5801 76.79 36.5801 76.05C36.5801 75.31 43.1301 74.69 51.2001 74.69C59.2701 74.69 65.8201 75.3 65.8201 76.05Z" fill="#DBE2E2"/>
<path d="M65.4599 76.02C65.4599 76.75 59.0599 77.34 51.1599 77.34C43.2599 77.34 36.8599 76.75 36.8599 76.02C36.8599 75.29 43.2599 74.7 51.1599 74.7C59.0599 74.7 65.4599 75.29 65.4599 76.02Z" fill="#DAE1E1"/>
<path d="M125.82 76.43C125.82 77.77 114.11 78.85 99.6598 78.85C85.2098 78.85 73.5098 77.77 73.5098 76.43C73.5098 75.09 85.2198 74.01 99.6598 74.01C114.1 74.01 125.82 75.09 125.82 76.43Z" fill="#CBCBCB"/>
<path d="M125.51 76.4C125.51 77.73 113.93 78.8 99.6598 78.8C85.3898 78.8 73.8198 77.73 73.8198 76.4C73.8198 75.07 85.3898 74.01 99.6598 74.01C113.93 74.01 125.51 75.08 125.51 76.4Z" fill="#FEFEFE"/>
<path d="M125.19 76.38C125.19 77.68 113.76 78.74 99.6599 78.74C85.5599 78.74 74.1299 77.68 74.1299 76.38C74.1299 75.08 85.5599 74.02 99.6599 74.02C113.76 74.02 125.19 75.07 125.19 76.38Z" fill="#FDFDFD"/>
<path d="M124.88 76.35C124.88 77.64 113.59 78.69 99.6599 78.69C85.7299 78.69 74.4399 77.69 74.4399 76.35C74.4399 75.01 85.7299 74.02 99.6599 74.02C113.59 74.02 124.88 75.06 124.88 76.35Z" fill="#FCFDFD"/>
<path d="M124.57 76.33C124.57 77.6 113.42 78.63 99.66 78.63C85.9 78.63 74.75 77.63 74.75 76.33C74.75 75.03 85.91 74.02 99.66 74.02C113.41 74.02 124.57 75.05 124.57 76.33Z" fill="#FBFCFC"/>
<path d="M124.26 76.3C124.26 77.56 113.26 78.58 99.6601 78.58C86.0601 78.58 75.0601 77.58 75.0601 76.3C75.0601 75.02 86.0601 74.03 99.6601 74.03C113.26 74.03 124.26 75.05 124.26 76.3Z" fill="#FAFBFB"/>
<path d="M123.95 76.28C123.95 77.52 113.07 78.53 99.6599 78.53C86.2499 78.53 75.3799 77.53 75.3799 76.28C75.3799 75.03 86.2499 74.03 99.6599 74.03C113.07 74.03 123.95 75.04 123.95 76.28Z" fill="#F9FAFA"/>
<path d="M123.63 76.25C123.63 77.48 112.9 78.47 99.6299 78.47C86.3599 78.47 75.6299 77.47 75.6299 76.25C75.6299 75.03 86.3599 74.03 99.6299 74.03C112.9 74.03 123.63 75.03 123.63 76.25Z" fill="#F8F9F9"/>
<path d="M123.32 76.23C123.32 77.43 112.73 78.42 99.66 78.42C86.59 78.42 76 77.42 76 76.23C76 75.04 86.59 74.04 99.66 74.04C112.73 74.04 123.32 75.02 123.32 76.23Z" fill="#F7F9F9"/>
<path d="M123.01 76.2C123.01 77.39 112.55 78.36 99.6601 78.36C86.7701 78.36 76.3101 77.36 76.3101 76.2C76.3101 75.04 86.7701 74.04 99.6601 74.04C112.55 74.04 123.01 75.01 123.01 76.2Z" fill="#F6F8F8"/>
<path d="M122.7 76.17C122.7 77.35 112.38 78.31 99.7002 78.31C87.0202 78.31 76.7002 77.31 76.7002 76.17C76.7002 75.03 87.0202 74.04 99.7002 74.04C112.38 74.04 122.7 75 122.7 76.17Z" fill="#F5F7F7"/>
<path d="M122.39 76.15C122.39 77.31 112.21 78.25 99.6599 78.25C87.1099 78.25 76.9399 77.31 76.9399 76.15C76.9399 74.99 87.1099 74.05 99.6599 74.05C112.21 74.05 122.39 74.99 122.39 76.15Z" fill="#F4F6F6"/>
<path d="M122.08 76.12C122.08 77.27 112.08 78.2 99.66 78.2C87.24 78.2 77.25 77.27 77.25 76.12C77.25 74.97 87.25 74.05 99.66 74.05C112.07 74.05 122.08 74.98 122.08 76.12Z" fill="#F3F6F6"/>
<path d="M121.76 76.1C121.76 77.23 111.87 78.1 99.6601 78.1C87.4501 78.1 77.5601 77.19 77.5601 76.1C77.5601 75.01 87.4601 74.1 99.6601 74.1C111.86 74.1 121.76 74.97 121.76 76.1Z" fill="#F2F5F5"/>
<path d="M121.45 76.07C121.45 77.19 111.69 78.07 99.6601 78.07C87.6301 78.07 77.8701 77.17 77.8701 76.07C77.8701 74.97 87.6301 74.07 99.6601 74.07C111.69 74.07 121.45 74.96 121.45 76.07Z" fill="#F1F4F4"/>
<path d="M121.14 76.05C121.14 77.14 111.52 78.05 99.6602 78.05C87.8002 78.05 78.1802 77.16 78.1802 76.05C78.1802 74.94 87.8002 74.05 99.6602 74.05C111.52 74.05 121.14 74.95 121.14 76.05Z" fill="#F0F3F3"/>
<path d="M120.82 76.02C120.82 77.1 111.34 78.02 99.6502 78.02C87.9602 78.02 78.4902 77.14 78.4902 76.02C78.4902 74.9 87.9602 74.02 99.6502 74.02C111.34 74.02 120.82 74.94 120.82 76.02Z" fill="#EFF2F2"/>
<path d="M120.52 75.99C120.52 77.06 111.18 77.93 99.6598 77.93C88.1398 77.93 78.8198 77.06 78.8198 75.99C78.8198 74.92 88.1498 74.07 99.6698 74.07C111.19 74.07 120.52 74.93 120.52 75.99Z" fill="#EEF2F2"/>
<path d="M120.2 75.97C120.2 77.02 111 77.87 99.6601 77.87C88.3201 77.87 79.1201 77.02 79.1201 75.97C79.1201 74.92 88.3201 74.07 99.6601 74.07C111 74.07 120.2 74.92 120.2 75.97Z" fill="#EDF1F1"/>
<path d="M119.89 75.94C119.89 76.94 110.83 77.82 99.6602 77.82C88.4902 77.82 79.4302 76.98 79.4302 75.94C79.4302 74.9 88.4902 74.07 99.6602 74.07C110.83 74.07 119.89 74.91 119.89 75.94Z" fill="#EDF0F0"/>
<path d="M119.58 75.92C119.58 76.92 110.66 77.76 99.6602 77.76C88.6602 77.76 79.7402 76.94 79.7402 75.92C79.7402 74.9 88.6602 74.08 99.6602 74.08C110.66 74.08 119.58 74.9 119.58 75.92Z" fill="#ECEFEF"/>
<path d="M119.27 75.89C119.27 76.89 110.49 77.71 99.6598 77.71C88.8298 77.71 80.0498 76.89 80.0498 75.89C80.0498 74.89 88.8298 74.08 99.6598 74.08C110.49 74.08 119.27 74.89 119.27 75.89Z" fill="#EBEEEE"/>
<path d="M118.96 75.87C118.96 76.87 110.32 77.65 99.6601 77.65C89.0001 77.65 80.3701 76.85 80.3701 75.87C80.3701 74.89 89.0001 74.08 99.6601 74.08C110.32 74.08 118.96 74.88 118.96 75.87Z" fill="#EAEEEE"/>
<path d="M118.64 75.84C118.64 76.84 110.14 77.6 99.6401 77.6C89.1401 77.6 80.6401 76.81 80.6401 75.84C80.6401 74.87 89.1401 74.08 99.6401 74.08C110.14 74.08 118.64 74.87 118.64 75.84Z" fill="#E9EDED"/>
<path d="M118.33 75.82C118.33 76.82 109.97 77.54 99.6602 77.54C89.3502 77.54 80.9902 76.77 80.9902 75.82C80.9902 74.87 89.3502 74.09 99.6602 74.09C109.97 74.09 118.33 74.86 118.33 75.82Z" fill="#E8ECEC"/>
<path d="M118.02 75.79C118.02 76.73 109.8 77.49 99.6598 77.49C89.5198 77.49 81.2998 76.73 81.2998 75.79C81.2998 74.85 89.5198 74.09 99.6598 74.09C109.8 74.09 118.02 74.85 118.02 75.79Z" fill="#E7EBEB"/>
<path d="M117.71 75.76C117.71 76.69 109.63 77.43 99.6602 77.43C89.6902 77.43 81.6602 76.69 81.6602 75.76C81.6602 74.83 89.7402 74.09 99.6602 74.09C109.58 74.09 117.71 74.84 117.71 75.76Z" fill="#E6EAEA"/>
<path d="M117.4 75.74C117.4 76.65 109.45 77.38 99.6602 77.38C89.8702 77.38 81.9302 76.65 81.9302 75.74C81.9302 74.83 89.8702 74.1 99.6602 74.1C109.45 74.1 117.4 74.83 117.4 75.74Z" fill="#E5EAEA"/>
<path d="M117.08 75.68C117.08 76.57 109.28 77.3 99.6602 77.3C90.0402 77.3 82.2402 76.57 82.2402 75.68C82.2402 74.79 90.0402 74.07 99.6602 74.07C109.28 74.07 117.08 74.82 117.08 75.68Z" fill="#E4E9E9"/>
<path d="M116.82 75.68C116.82 76.55 109.16 77.26 99.7101 77.26C90.2601 77.26 82.6001 76.55 82.6001 75.68C82.6001 74.81 90.2601 74.09 99.7101 74.09C109.16 74.09 116.82 74.81 116.82 75.68Z" fill="#E3E8E8"/>
<path d="M116.46 75.68C116.46 76.54 108.94 77.24 99.6598 77.24C90.3798 77.24 82.8198 76.52 82.8198 75.68C82.8198 74.84 90.3398 74.13 99.6198 74.13C108.9 74.13 116.46 74.8 116.46 75.68Z" fill="#E2E7E7"/>
<path d="M116.15 75.68C116.15 76.52 108.76 77.2 99.6599 77.2C90.5599 77.2 83.1699 76.52 83.1699 75.68C83.1699 74.84 90.5499 74.15 99.6599 74.15C108.77 74.15 116.15 74.79 116.15 75.68Z" fill="#E1E7E7"/>
<path d="M115.82 75.61C115.82 76.44 108.57 77.11 99.6402 77.11C90.7102 77.11 83.4702 76.44 83.4702 75.61C83.4702 74.78 90.7102 74.11 99.6402 74.11C108.57 74.11 115.82 74.78 115.82 75.61Z" fill="#E0E6E6"/>
<path d="M115.53 75.58C115.53 76.4 108.42 77.05 99.6598 77.05C90.8998 77.05 83.8198 76.4 83.8198 75.58C83.8198 74.76 90.9198 74.12 99.6798 74.12C108.44 74.12 115.53 74.77 115.53 75.58Z" fill="#DFE5E5"/>
<path d="M115.21 75.56C115.21 76.35 108.21 77 99.6599 77C91.1099 77 84.1099 76.35 84.1099 75.56C84.1099 74.77 91.1099 74.12 99.6599 74.12C108.21 74.12 115.21 74.76 115.21 75.56Z" fill="#DEE4E4"/>
<path d="M114.9 75.53C114.9 76.31 108.08 76.94 99.6599 76.94C91.2399 76.94 84.4199 76.31 84.4199 75.53C84.4199 74.75 91.2399 74.12 99.6599 74.12C108.08 74.12 114.9 74.75 114.9 75.53Z" fill="#DDE3E3"/>
<path d="M114.59 75.51C114.59 76.27 107.9 76.89 99.66 76.89C91.42 76.89 84.73 76.27 84.73 75.51C84.73 74.75 91.41 74.13 99.66 74.13C107.91 74.13 114.59 74.74 114.59 75.51Z" fill="#DCE3E3"/>
<path d="M114.28 75.48C114.28 76.23 107.73 76.83 99.66 76.83C91.59 76.83 85.04 76.23 85.04 75.48C85.04 74.73 91.59 74.13 99.66 74.13C107.73 74.13 114.28 74.74 114.28 75.48Z" fill="#DBE2E2"/>
<path d="M113.97 75.46C113.97 76.19 107.56 76.78 99.6599 76.78C91.7599 76.78 85.3599 76.19 85.3599 75.46C85.3599 74.73 91.7599 74.13 99.6599 74.13C107.56 74.13 113.97 74.73 113.97 75.46Z" fill="#DAE1E1"/>
<path d="M49.8202 74.73C48.6881 74.8052 47.5523 74.8052 46.4202 74.73C45.846 72.8301 45.4444 70.8822 45.2202 68.91C45.2202 68.14 45.4502 65.59 46.4202 65.59C47.3902 65.59 54.5502 63.69 55.5302 65.22C56.5102 66.75 53.1102 76.68 49.8202 74.73Z" fill="#CCCCCC"/>
<path d="M49.8198 57.24L45.2998 54.98V65.2C45.8734 65.8359 46.5693 66.3496 47.3459 66.7104C48.1225 67.0712 48.9639 67.2717 49.8198 67.3C50.6714 67.3655 51.5263 67.2242 52.3115 66.8882C53.0968 66.5521 53.7892 66.0313 54.3298 65.37V56.48L49.8198 57.24Z" fill="#FFDBA8"/>
<path d="M54.2798 58.96C54.2798 58.96 52.1198 60.96 45.2798 64.68V57.99L54.2798 58.96Z" fill="#F0BD6D"/>
<path d="M49.82 64.81V68.61L48.67 69.02L47.02 66.23C47.8226 65.534 48.7842 65.0463 49.82 64.81V64.81Z" fill="#C94D4D"/>
<path d="M45.2601 62.25L44.3901 62.69L46.4601 69.8L49.7701 64.8C48.0729 64.3511 46.5198 63.4729 45.2601 62.25Z" fill="#DFE1DE"/>
<path d="M42.6899 49.58C42.6899 49.58 43.7599 57.85 43.9799 58.25C44.1999 58.65 48.3799 60.93 49.7699 60.83V40.83C49.7699 40.83 41.0199 37.19 42.6899 49.58Z" fill="#FFDBA8"/>
<path d="M56.82 49.58C56.82 49.58 55.75 57.85 55.53 58.25C55.31 58.65 51.13 60.93 49.75 60.83V40.83C49.75 40.83 57.99 39.08 56.82 49.58Z" fill="#FFDBA8"/>
<path d="M55.5898 54.48C55.5898 54.48 56.8098 54.94 57.5898 52.48C58.4598 49.71 57.8499 48.48 57.0699 48.54C56.8398 48.5538 56.6151 48.6151 56.4099 48.72C56.0827 48.9244 55.8411 49.2407 55.7299 49.61L55.5898 54.48Z" fill="#FFDBA8"/>
<path d="M43.9399 54.48C43.9399 54.48 42.7199 54.94 41.9399 52.48C41.0799 49.71 41.6799 48.48 42.4599 48.54C42.69 48.5538 42.9147 48.6151 43.1199 48.72C43.447 48.9244 43.6887 49.2407 43.7999 49.61L43.9399 54.48Z" fill="#FFDBA8"/>
<path d="M41.91 42.14C41.31 43.8 42.55 48.75 42.55 48.75L43.37 50.02L43.18 47.24C43.18 47.24 44.92 43.47 44.44 42.07L43.34 40.48C42.787 40.9626 42.3055 41.5216 41.91 42.14V42.14Z" fill="#A83D0D"/>
<path d="M57.6201 42.14C58.2201 43.8 56.9801 48.75 56.9801 48.75L56.1601 50.02L56.3501 47.24C56.3501 47.24 54.6101 43.47 55.0901 42.07L56.1901 40.48C56.7432 40.9626 57.2247 41.5216 57.6201 42.14V42.14Z" fill="#A83D0D"/>
<path d="M49.8201 37.01C47.7201 37.01 44.6901 37.96 43.3901 40.48L44.4901 42.07C46.1782 42.9669 48.0084 43.5657 49.9001 43.84C51.4301 43.95 53.9001 44.02 55.7501 42.55L56.2401 40.48C56.2401 40.48 54.6801 37.02 49.8201 37.01Z" fill="#A83D0D"/>
<path d="M49.8198 64.81V68.61L50.9598 69.02L52.6098 66.23C51.8099 65.5358 50.8519 65.0482 49.8198 64.81V64.81Z" fill="#D47171"/>
<path d="M54.2798 62.17L55.2798 62.78L53.1998 69.78L49.8198 64.81C51.4923 64.2905 53.0198 63.3863 54.2798 62.17V62.17Z" fill="#FAF8FA"/>
<path d="M41.5402 70.31L42.4902 68.94L42.9702 68.26L41.2402 65.41L40.6002 64.41C40.6002 64.41 33.8501 67.49 33.8401 67.51C33.3601 68.03 32.4902 72.69 31.9102 76.73H46.3701L41.5402 70.31Z" fill="#3B556C"/>
<path d="M57.9902 70.31L53.1802 76.68H67.6302C67.0502 72.68 66.1802 67.98 65.7002 67.46L58.9502 64.36L56.5602 68.29L57.9902 70.31Z" fill="#60768E"/>
<path d="M49.82 76.68V68.68L48.67 69.09C48.67 69.09 47.93 72.43 47.75 74.09L48.5 76.68H49.82Z" fill="#C94D4D"/>
<path d="M51.07 76.68L51.83 74.09C51.65 72.39 50.91 69.09 50.91 69.09L49.77 68.68V76.68H51.07Z" fill="#D47171"/>
<path d="M42.9701 68.26L42.4901 68.94L41.5401 70.31L46.3501 76.65H48.4501L47.7001 74.05L45.1501 65.32L44.3901 62.69L40.5801 64.33L41.2401 65.41L42.9701 68.26Z" fill="#597D90"/>
<path d="M57.9801 70.31L56.5501 68.26L58.9401 64.33L55.2401 62.78L54.4801 65.32L52.0601 73.44L51.1001 76.65H53.1701L57.9801 70.31Z" fill="#3D5B73"/>
<path d="M102.2 74.73C103.332 74.8052 104.468 74.8052 105.6 74.73C106.171 72.8297 106.569 70.8819 106.79 68.91C106.79 68.14 106.56 65.59 105.6 65.59C104.64 65.59 97.4599 63.69 96.4899 65.22C95.5199 66.75 98.8198 76.68 102.2 74.73Z" fill="#CCCCCC"/>
<path d="M102.2 57.24L106.71 54.98V65.2C106.139 65.8365 105.445 66.3507 104.67 66.7116C103.895 67.0725 103.055 67.2727 102.2 67.3C101.347 67.3663 100.49 67.2254 99.7035 66.8894C98.9165 66.5534 98.2223 66.0321 97.6802 65.37V56.48L102.2 57.24Z" fill="#FFDBA8"/>
<path d="M97.6802 58.96C97.6802 58.96 99.8402 60.96 106.68 64.68V57.99L97.6802 58.96Z" fill="#F0BD6D"/>
<path d="M102.2 64.81V68.61L103.34 69.02L104.99 66.23C104.19 65.5358 103.232 65.0482 102.2 64.81V64.81Z" fill="#D47171"/>
<path d="M106.71 62.25L107.58 62.69L105.5 69.8L102.2 64.8C103.897 64.349 105.449 63.4711 106.71 62.25Z" fill="#DFE1DE"/>
<path d="M109.27 49.58C109.27 49.58 108.2 57.85 107.98 58.25C107.76 58.65 103.58 60.93 102.2 60.83V40.83C102.2 40.83 110.94 37.19 109.27 49.58Z" fill="#FFDBA8"/>
<path d="M95.1301 49.58C95.1301 49.58 96.2001 57.85 96.4201 58.25C96.6401 58.65 100.81 60.93 102.2 60.83V40.83C102.2 40.83 93.9701 39.08 95.1301 49.58Z" fill="#FFDBA8"/>
<path d="M96.3798 54.48C96.3798 54.48 95.1498 54.94 94.3798 52.48C93.5098 49.71 94.1098 48.48 94.8998 48.54C95.1294 48.5565 95.3536 48.6176 95.5598 48.72C95.8819 48.9275 96.1195 49.243 96.2298 49.61L96.3798 54.48Z" fill="#FFDBA8"/>
<path d="M108.02 54.48C108.02 54.48 109.25 54.94 110.02 52.48C110.89 49.71 110.29 48.48 109.5 48.54C109.27 48.5565 109.046 48.6176 108.84 48.72C108.518 48.9275 108.28 49.243 108.17 49.61L108.02 54.48Z" fill="#FFDBA8"/>
<path d="M110.05 42.14C110.66 43.8 109.41 48.75 109.41 48.75L108.6 50.02L108.79 47.24C108.79 47.24 107.05 43.47 107.52 42.07L108.62 40.48C109.176 40.9599 109.658 41.5193 110.05 42.14V42.14Z" fill="#A83D0D"/>
<path d="M94.3499 42.14C93.7399 43.8 94.9899 48.75 94.9899 48.75L95.7999 50.02L95.6099 47.24C95.6099 47.24 97.3499 43.47 96.8799 42.07L95.8199 40.48C95.2501 40.9572 94.7547 41.5167 94.3499 42.14V42.14Z" fill="#A83D0D"/>
<path d="M102.2 37.01C104.3 37.01 107.32 37.96 108.62 40.48L107.52 42.07C105.835 42.9656 104.008 43.5644 102.12 43.84C100.59 43.95 98.12 44.02 96.27 42.55L95.77 40.48C95.77 40.48 97.28 37.02 102.2 37.01Z" fill="#A83D0D"/>
<path d="M102.2 64.81V68.61L101.05 69.02L99.4102 66.23C100.21 65.5358 101.168 65.0482 102.2 64.81V64.81Z" fill="#C94D4D"/>
<path d="M97.6802 62.17L96.6802 62.78L98.7602 69.78L102.16 64.84C100.478 64.3149 98.9426 63.4001 97.6802 62.17V62.17Z" fill="#FAF8FA"/>
<path d="M110.42 70.31L109.42 68.94L108.94 68.26L110.67 65.41L111.32 64.41C111.32 64.41 118.06 67.49 118.07 67.51C118.55 68.03 119.42 72.69 120.01 76.73H105.61L110.42 70.31Z" fill="#3B556C"/>
<path d="M93.9801 70.31L98.8201 76.68H84.3301C84.9101 72.68 85.7801 67.98 86.2601 67.46L93.0201 64.36L95.4001 68.29L93.9801 70.31Z" fill="#60768E"/>
<path d="M102.2 76.68V68.68L103.34 69.09C103.34 69.09 104.08 72.43 104.26 74.09L103.51 76.68H102.2Z" fill="#D47171"/>
<path d="M100.89 76.68L100.14 74.09C100.32 72.39 101.05 69.09 101.05 69.09L102.2 68.68V76.68H100.89Z" fill="#C94D4D"/>
<path d="M108.99 68.26L109.47 68.94L110.42 70.31L105.61 76.65H103.5L104.26 74.05L106.8 65.32L107.57 62.69L111.37 64.33L110.72 65.41L108.99 68.26Z" fill="#597D90"/>
<path d="M93.97 70.31L95.4 68.26L93.02 64.33L96.72 62.78L97.48 65.32L99.9 73.44L100.85 76.65H98.78L93.97 70.31Z" fill="#3D5B73"/>
<path d="M75.9799 83.99C74.4816 84.0902 72.9782 84.0902 71.4799 83.99C70.7201 81.47 70.1912 78.886 69.8999 76.27C69.8999 75.27 70.2099 71.89 71.4799 71.89C72.7499 71.89 82.2599 69.37 83.5599 71.38C84.8599 73.39 80.4199 86.56 75.9799 83.99Z" fill="#CCCCCC"/>
<path d="M75.98 60.81L69.98 57.81V71.36C70.7427 72.2011 71.6671 72.8799 72.698 73.3559C73.7289 73.8318 74.8451 74.0951 75.98 74.13C80.31 74.13 81.98 71.58 81.98 71.58V59.81L75.98 60.81Z" fill="#FFDBA8"/>
<path d="M81.96 63.09C81.96 63.09 79.11 65.73 69.96 70.68V61.81L81.96 63.09Z" fill="#F0BD6D"/>
<path d="M75.9798 70.84V75.89L74.4598 76.43L72.2798 72.68C72.2798 72.68 74.3398 70.98 75.9798 70.84Z" fill="#598997"/>
<path d="M70.0099 67.45L68.8599 68.04L71.6099 77.46L75.9799 70.84C75.9799 70.84 73.5299 70.47 70.0099 67.45Z" fill="#DFE1DE"/>
<path d="M66.6102 50.68C66.6102 50.68 68.0202 61.68 68.3202 62.17C68.6202 62.66 74.1502 65.73 75.9802 65.59V39.06C75.9802 39.06 64.3902 34.24 66.6102 50.68Z" fill="#FFDBA8"/>
<path d="M85.35 50.68C85.35 50.68 83.94 61.68 83.64 62.17C83.34 62.66 77.82 65.73 75.98 65.59V39.06C75.98 39.06 86.89 36.75 85.35 50.68Z" fill="#FFDBA8"/>
<path d="M83.7002 57.17C83.7002 57.17 85.3202 57.77 86.3202 54.58C87.4702 50.9 86.6802 49.25 85.6302 49.36C85.3257 49.3727 85.0281 49.4548 84.7602 49.6C84.3272 49.8669 84.0071 50.2831 83.8602 50.77L83.7002 57.17Z" fill="#FFDBA8"/>
<path d="M68.27 57.17C68.27 57.17 66.64 57.77 65.65 54.58C64.5 50.9 65.29 49.25 66.33 49.36C66.7391 49.3677 67.1341 49.51 67.4541 49.7649C67.7741 50.0198 68.0011 50.373 68.1 50.77L68.27 57.17Z" fill="#FFDBA8"/>
<path d="M65.57 40.81C64.77 43.01 66.43 49.57 66.43 49.57L67.5 51.24L67.25 47.56C67.25 47.56 69.56 42.56 68.93 40.72L67.47 38.61C66.7329 39.2469 66.0928 39.988 65.57 40.81V40.81Z" fill="#A83D0D"/>
<path d="M86.39 40.81C87.19 43.01 85.54 49.57 85.54 49.57L84.46 51.24L84.72 47.56C84.72 47.56 82.41 42.56 83.04 40.72L84.5 38.61C85.2336 39.2476 85.8703 39.9887 86.39 40.81V40.81Z" fill="#A83D0D"/>
<path d="M75.9802 34C73.2002 34 69.1902 35.26 67.4702 38.61L68.9302 40.72C71.1666 41.8992 73.5881 42.6873 76.0902 43.05C78.0902 43.2 81.3702 43.3 83.8402 41.35L84.5002 38.61C84.5002 38.61 82.4902 34.02 75.9802 34Z" fill="#A83D0D"/>
<path d="M75.98 70.84V75.89L77.5 76.43L79.68 72.72C79.68 72.72 77.63 70.98 75.98 70.84Z" fill="#4DBBC9"/>
<path d="M81.96 67.35L83.24 68.16L80.48 77.39L75.98 70.84C75.98 70.84 78.44 70.38 81.96 67.35Z" fill="#FAF8FA"/>
<path d="M65.0901 78.14L66.3501 76.32L66.9801 75.42L64.6901 71.68L63.8301 70.27L54.8801 74.37C54.2401 75.07 53.0801 81.24 52.3101 86.59H71.4701L65.0901 78.14Z" fill="#3B556C"/>
<path d="M86.88 78.14L80.5 86.53H99.66C98.89 81.18 97.74 75.01 97.1 74.31L88.15 70.21L84.98 75.42L86.88 78.14Z" fill="#60768E"/>
<path d="M75.98 86.53V75.89L74.46 76.43C74.46 76.43 73.46 80.85 73.25 83.1L74.25 86.53H75.98Z" fill="#598997"/>
<path d="M77.72 86.53L78.72 83.1C78.48 80.85 77.5 76.43 77.5 76.43L75.98 75.89V86.53H77.72Z" fill="#4DBBC9"/>
<path d="M66.9801 75.41L66.3401 76.32L65.0801 78.14L71.4601 86.53H74.2401L73.2501 83.1L69.8701 71.53L68.8501 68.04L63.8101 70.21L64.6801 71.64L66.9801 75.41Z" fill="#597D90"/>
<path d="M86.87 78.14L84.98 75.41L88.14 70.21L83.23 68.15L82.23 71.52L79.02 82.28L77.75 86.53H80.49L86.87 78.14Z" fill="#3D5B73"/>
</g>
<defs>
<clipPath id="clip0_1373_7686">
<rect width="100.81" height="54.95" fill="white" transform="translate(25 34)"/>
</clipPath>
</defs>
</svg>
