<svg width="157" height="160" viewBox="0 0 157 160" fill="none" xmlns="http://www.w3.org/2000/svg">
<path d="M14.48 136V122H16.44L21.48 131.76L26.48 122H28.46V136H26.78V125L22.1 134H20.84L16.16 125.02V136H14.48ZM35.7736 136.24C34.8269 136.24 33.9869 136.027 33.2536 135.6C32.5203 135.16 31.9403 134.553 31.5136 133.78C31.1003 133.007 30.8936 132.093 30.8936 131.04C30.8936 130 31.1003 129.093 31.5136 128.32C31.9269 127.533 32.5003 126.927 33.2336 126.5C33.9803 126.06 34.8403 125.84 35.8136 125.84C36.7736 125.84 37.6003 126.06 38.2936 126.5C39.0003 126.927 39.5403 127.493 39.9136 128.2C40.2869 128.907 40.4736 129.667 40.4736 130.48C40.4736 130.627 40.4669 130.773 40.4536 130.92C40.4536 131.067 40.4536 131.233 40.4536 131.42H32.5536C32.5936 132.18 32.7669 132.813 33.0736 133.32C33.3936 133.813 33.7869 134.187 34.2536 134.44C34.7336 134.693 35.2403 134.82 35.7736 134.82C36.4669 134.82 37.0469 134.66 37.5136 134.34C37.9803 134.02 38.3203 133.587 38.5336 133.04H40.1936C39.9269 133.96 39.4136 134.727 38.6536 135.34C37.9069 135.94 36.9469 136.24 35.7736 136.24ZM35.7736 127.26C34.9736 127.26 34.2603 127.507 33.6336 128C33.0203 128.48 32.6669 129.187 32.5736 130.12H38.8136C38.7736 129.227 38.4669 128.527 37.8936 128.02C37.3203 127.513 36.6136 127.26 35.7736 127.26ZM42.7003 136V126.08H44.2203L44.3403 127.52C44.6603 126.987 45.087 126.573 45.6203 126.28C46.1536 125.987 46.7536 125.84 47.4203 125.84C48.207 125.84 48.8803 126 49.4403 126.32C50.0136 126.64 50.4536 127.127 50.7603 127.78C51.107 127.18 51.5803 126.707 52.1803 126.36C52.7936 126.013 53.4536 125.84 54.1603 125.84C55.347 125.84 56.2936 126.2 57.0003 126.92C57.707 127.627 58.0603 128.72 58.0603 130.2V136H56.4003V130.38C56.4003 129.353 56.1936 128.58 55.7803 128.06C55.367 127.54 54.7736 127.28 54.0003 127.28C53.2003 127.28 52.5336 127.593 52.0003 128.22C51.4803 128.833 51.2203 129.713 51.2203 130.86V136H49.5403V130.38C49.5403 129.353 49.3336 128.58 48.9203 128.06C48.507 127.54 47.9136 127.28 47.1403 127.28C46.3536 127.28 45.6936 127.593 45.1603 128.22C44.6403 128.833 44.3803 129.713 44.3803 130.86V136H42.7003ZM65.8909 136.24C65.0776 136.24 64.3509 136.073 63.7109 135.74C63.0843 135.407 62.6043 134.94 62.2709 134.34L62.1109 136H60.5909V121.6H62.2709V127.72C62.5909 127.24 63.0443 126.807 63.6309 126.42C64.2309 126.033 64.9909 125.84 65.9109 125.84C66.8976 125.84 67.7576 126.067 68.4909 126.52C69.2243 126.973 69.7909 127.593 70.1909 128.38C70.6043 129.167 70.8109 130.06 70.8109 131.06C70.8109 132.06 70.6043 132.953 70.1909 133.74C69.7909 134.513 69.2176 135.127 68.4709 135.58C67.7376 136.02 66.8776 136.24 65.8909 136.24ZM65.7109 134.78C66.3776 134.78 66.9643 134.627 67.4709 134.32C67.9776 134 68.3776 133.56 68.6709 133C68.9643 132.44 69.1109 131.787 69.1109 131.04C69.1109 130.293 68.9643 129.64 68.6709 129.08C68.3776 128.52 67.9776 128.087 67.4709 127.78C66.9643 127.46 66.3776 127.3 65.7109 127.3C65.0443 127.3 64.4576 127.46 63.9509 127.78C63.4443 128.087 63.0443 128.52 62.7509 129.08C62.4576 129.64 62.3109 130.293 62.3109 131.04C62.3109 131.787 62.4576 132.44 62.7509 133C63.0443 133.56 63.4443 134 63.9509 134.32C64.4576 134.627 65.0443 134.78 65.7109 134.78ZM77.6095 136.24C76.6629 136.24 75.8229 136.027 75.0895 135.6C74.3562 135.16 73.7762 134.553 73.3495 133.78C72.9362 133.007 72.7295 132.093 72.7295 131.04C72.7295 130 72.9362 129.093 73.3495 128.32C73.7629 127.533 74.3362 126.927 75.0695 126.5C75.8162 126.06 76.6762 125.84 77.6495 125.84C78.6095 125.84 79.4362 126.06 80.1295 126.5C80.8362 126.927 81.3762 127.493 81.7495 128.2C82.1229 128.907 82.3095 129.667 82.3095 130.48C82.3095 130.627 82.3029 130.773 82.2895 130.92C82.2895 131.067 82.2895 131.233 82.2895 131.42H74.3895C74.4295 132.18 74.6029 132.813 74.9095 133.32C75.2295 133.813 75.6229 134.187 76.0895 134.44C76.5695 134.693 77.0762 134.82 77.6095 134.82C78.3029 134.82 78.8829 134.66 79.3495 134.34C79.8162 134.02 80.1562 133.587 80.3695 133.04H82.0295C81.7629 133.96 81.2495 134.727 80.4895 135.34C79.7429 135.94 78.7829 136.24 77.6095 136.24ZM77.6095 127.26C76.8095 127.26 76.0962 127.507 75.4695 128C74.8562 128.48 74.5029 129.187 74.4095 130.12H80.6495C80.6095 129.227 80.3029 128.527 79.7295 128.02C79.1562 127.513 78.4495 127.26 77.6095 127.26ZM84.5363 136V126.08H86.0563L86.1963 127.98C86.5029 127.327 86.9696 126.807 87.5963 126.42C88.2229 126.033 88.9963 125.84 89.9163 125.84V127.6H89.4563C88.8696 127.6 88.3296 127.707 87.8363 127.92C87.3429 128.12 86.9496 128.467 86.6563 128.96C86.3629 129.453 86.2163 130.133 86.2163 131V136H84.5363ZM101.655 136.24C100.628 136.24 99.7348 136.053 98.9748 135.68C98.2148 135.307 97.6282 134.787 97.2148 134.12C96.8015 133.453 96.5948 132.68 96.5948 131.8H98.3548C98.3548 132.347 98.4815 132.853 98.7348 133.32C98.9882 133.773 99.3548 134.14 99.8348 134.42C100.328 134.687 100.935 134.82 101.655 134.82C102.602 134.82 103.335 134.593 103.855 134.14C104.375 133.687 104.635 133.12 104.635 132.44C104.635 131.88 104.515 131.433 104.275 131.1C104.035 130.753 103.708 130.473 103.295 130.26C102.895 130.047 102.428 129.86 101.895 129.7C101.375 129.54 100.828 129.36 100.255 129.16C99.1748 128.787 98.3748 128.327 97.8548 127.78C97.3348 127.22 97.0748 126.493 97.0748 125.6C97.0615 124.853 97.2348 124.193 97.5948 123.62C97.9548 123.033 98.4615 122.58 99.1148 122.26C99.7815 121.927 100.568 121.76 101.475 121.76C102.368 121.76 103.142 121.927 103.795 122.26C104.462 122.593 104.975 123.053 105.335 123.64C105.708 124.227 105.902 124.893 105.915 125.64H104.155C104.155 125.253 104.055 124.873 103.855 124.5C103.655 124.113 103.348 123.8 102.935 123.56C102.535 123.32 102.028 123.2 101.415 123.2C100.655 123.187 100.028 123.38 99.5348 123.78C99.0548 124.18 98.8148 124.733 98.8148 125.44C98.8148 126.04 98.9815 126.5 99.3148 126.82C99.6615 127.14 100.142 127.407 100.755 127.62C101.368 127.82 102.075 128.053 102.875 128.32C103.542 128.56 104.142 128.84 104.675 129.16C105.208 129.48 105.622 129.893 105.915 130.4C106.222 130.907 106.375 131.553 106.375 132.34C106.375 133.007 106.202 133.64 105.855 134.24C105.508 134.827 104.982 135.307 104.275 135.68C103.582 136.053 102.708 136.24 101.655 136.24ZM112.577 136C111.671 136 110.957 135.78 110.437 135.34C109.917 134.9 109.657 134.107 109.657 132.96V127.5H107.937V126.08H109.657L109.877 123.7H111.337V126.08H114.257V127.5H111.337V132.96C111.337 133.587 111.464 134.013 111.717 134.24C111.971 134.453 112.417 134.56 113.057 134.56H114.097V136H112.577ZM119.692 136.24C118.865 136.24 118.178 136.1 117.632 135.82C117.085 135.54 116.678 135.167 116.412 134.7C116.145 134.233 116.012 133.727 116.012 133.18C116.012 132.167 116.398 131.387 117.172 130.84C117.945 130.293 118.998 130.02 120.332 130.02H123.012V129.9C123.012 129.033 122.785 128.38 122.332 127.94C121.878 127.487 121.272 127.26 120.512 127.26C119.858 127.26 119.292 127.427 118.812 127.76C118.345 128.08 118.052 128.553 117.932 129.18H116.212C116.278 128.46 116.518 127.853 116.932 127.36C117.358 126.867 117.885 126.493 118.512 126.24C119.138 125.973 119.805 125.84 120.512 125.84C121.898 125.84 122.938 126.213 123.632 126.96C124.338 127.693 124.692 128.673 124.692 129.9V136H123.192L123.092 134.22C122.812 134.78 122.398 135.26 121.852 135.66C121.318 136.047 120.598 136.24 119.692 136.24ZM119.952 134.82C120.592 134.82 121.138 134.653 121.592 134.32C122.058 133.987 122.412 133.553 122.652 133.02C122.892 132.487 123.012 131.927 123.012 131.34V131.32H120.472C119.485 131.32 118.785 131.493 118.372 131.84C117.972 132.173 117.772 132.593 117.772 133.1C117.772 133.62 117.958 134.04 118.332 134.36C118.718 134.667 119.258 134.82 119.952 134.82ZM130.859 136C129.952 136 129.239 135.78 128.719 135.34C128.199 134.9 127.939 134.107 127.939 132.96V127.5H126.219V126.08H127.939L128.159 123.7H129.619V126.08H132.539V127.5H129.619V132.96C129.619 133.587 129.745 134.013 129.999 134.24C130.252 134.453 130.699 134.56 131.339 134.56H132.379V136H130.859ZM138.473 136.24C137.286 136.24 136.3 135.94 135.513 135.34C134.726 134.74 134.266 133.927 134.133 132.9H135.853C135.96 133.42 136.233 133.873 136.673 134.26C137.126 134.633 137.733 134.82 138.493 134.82C139.2 134.82 139.72 134.673 140.053 134.38C140.386 134.073 140.553 133.713 140.553 133.3C140.553 132.7 140.333 132.3 139.893 132.1C139.466 131.9 138.86 131.72 138.073 131.56C137.54 131.453 137.006 131.3 136.473 131.1C135.94 130.9 135.493 130.62 135.133 130.26C134.773 129.887 134.593 129.4 134.593 128.8C134.593 127.933 134.913 127.227 135.553 126.68C136.206 126.12 137.086 125.84 138.193 125.84C139.246 125.84 140.106 126.107 140.773 126.64C141.453 127.16 141.846 127.907 141.953 128.88H140.293C140.226 128.373 140.006 127.98 139.633 127.7C139.273 127.407 138.786 127.26 138.173 127.26C137.573 127.26 137.106 127.387 136.773 127.64C136.453 127.893 136.293 128.227 136.293 128.64C136.293 129.04 136.5 129.353 136.913 129.58C137.34 129.807 137.913 130 138.633 130.16C139.246 130.293 139.826 130.46 140.373 130.66C140.933 130.847 141.386 131.133 141.733 131.52C142.093 131.893 142.273 132.44 142.273 133.16C142.286 134.053 141.946 134.793 141.253 135.38C140.573 135.953 139.646 136.24 138.473 136.24Z" fill="#7C7C7C"/>
<path d="M45 13V101H111V27.4476L96.5049 13H45Z" fill="#F0F1F1"/>
<path d="M111 27L96 13V27H111Z" fill="#D0D2D3"/>
<path d="M61 39.9005C60.9957 43.102 61.8593 46.2455 63.5 49L79 39.9005V22C74.2261 22 69.6477 23.8859 66.2721 27.2429C62.8964 30.5999 61 35.153 61 39.9005V39.9005Z" fill="#F69322"/>
<path d="M78.2683 22V40L63 49.1501C64.5785 51.8647 66.8316 54.111 69.5338 55.664C72.236 57.217 75.2926 58.0224 78.3977 57.9995C81.5028 57.9767 84.5476 57.1264 87.2273 55.5337C89.907 53.9411 92.1278 51.6619 93.6673 48.9243C95.2069 46.1867 96.0112 43.0866 95.9999 39.9343C95.9886 36.782 95.162 33.688 93.6028 30.9619C92.0436 28.2358 89.8065 25.9731 87.1154 24.4004C84.4243 22.8276 81.3735 21.9999 78.2683 22Z" fill="#1E75BA"/>
<path d="M100 93H56V94H100V93Z" fill="#BBBDBF"/>
<path d="M65 78H57V91H65V78Z" fill="#1E75BA"/>
<path d="M76 73H68V91H76V73Z" fill="#1E75BA"/>
<path d="M87 75H80V91H87V75Z" fill="#1E75BA"/>
<path d="M98 69H91V91H98V69Z" fill="#1E75BA"/>
</svg>
