<svg width="157" height="160" viewBox="0 0 157 160" fill="none" xmlns="http://www.w3.org/2000/svg">
<path d="M25.48 136V122H30C31.0933 122 31.9867 122.18 32.68 122.54C33.3733 122.9 33.8867 123.393 34.22 124.02C34.5533 124.647 34.72 125.34 34.72 126.1C34.72 126.98 34.48 127.773 34 128.48C33.5333 129.187 32.8 129.687 31.8 129.98L34.86 136H32.88L30.04 130.22H29.92H27.16V136H25.48ZM27.16 128.9H29.88C30.96 128.9 31.7467 128.64 32.24 128.12C32.7333 127.6 32.98 126.933 32.98 126.12C32.98 125.293 32.7333 124.64 32.24 124.16C31.76 123.667 30.9667 123.42 29.86 123.42H27.16V128.9ZM41.09 136.24C40.1433 136.24 39.3033 136.027 38.57 135.6C37.8367 135.16 37.2567 134.553 36.83 133.78C36.4167 133.007 36.21 132.093 36.21 131.04C36.21 130 36.4167 129.093 36.83 128.32C37.2433 127.533 37.8167 126.927 38.55 126.5C39.2967 126.06 40.1567 125.84 41.13 125.84C42.09 125.84 42.9167 126.06 43.61 126.5C44.3167 126.927 44.8567 127.493 45.23 128.2C45.6033 128.907 45.79 129.667 45.79 130.48C45.79 130.627 45.7833 130.773 45.77 130.92C45.77 131.067 45.77 131.233 45.77 131.42H37.87C37.91 132.18 38.0833 132.813 38.39 133.32C38.71 133.813 39.1033 134.187 39.57 134.44C40.05 134.693 40.5567 134.82 41.09 134.82C41.7833 134.82 42.3633 134.66 42.83 134.34C43.2967 134.02 43.6367 133.587 43.85 133.04H45.51C45.2433 133.96 44.73 134.727 43.97 135.34C43.2233 135.94 42.2633 136.24 41.09 136.24ZM41.09 127.26C40.29 127.26 39.5767 127.507 38.95 128C38.3367 128.48 37.9833 129.187 37.89 130.12H44.13C44.09 129.227 43.7833 128.527 43.21 128.02C42.6367 127.513 41.93 127.26 41.09 127.26ZM50.4861 136L46.7261 126.08H48.4861L51.4661 134.38L54.4661 126.08H56.1861L52.4261 136H50.4861ZM59.0758 123.88C58.7424 123.88 58.4624 123.773 58.2358 123.56C58.0224 123.333 57.9158 123.053 57.9158 122.72C57.9158 122.4 58.0224 122.133 58.2358 121.92C58.4624 121.707 58.7424 121.6 59.0758 121.6C59.3958 121.6 59.6691 121.707 59.8958 121.92C60.1224 122.133 60.2358 122.4 60.2358 122.72C60.2358 123.053 60.1224 123.333 59.8958 123.56C59.6691 123.773 59.3958 123.88 59.0758 123.88ZM58.2358 136V126.08H59.9158V136H58.2358ZM67.3009 136.24C66.3543 136.24 65.5143 136.027 64.7809 135.6C64.0476 135.16 63.4676 134.553 63.0409 133.78C62.6276 133.007 62.4209 132.093 62.4209 131.04C62.4209 130 62.6276 129.093 63.0409 128.32C63.4543 127.533 64.0276 126.927 64.7609 126.5C65.5076 126.06 66.3676 125.84 67.3409 125.84C68.3009 125.84 69.1276 126.06 69.8209 126.5C70.5276 126.927 71.0676 127.493 71.4409 128.2C71.8143 128.907 72.0009 129.667 72.0009 130.48C72.0009 130.627 71.9943 130.773 71.9809 130.92C71.9809 131.067 71.9809 131.233 71.9809 131.42H64.0809C64.1209 132.18 64.2943 132.813 64.6009 133.32C64.9209 133.813 65.3143 134.187 65.7809 134.44C66.2609 134.693 66.7676 134.82 67.3009 134.82C67.9943 134.82 68.5743 134.66 69.0409 134.34C69.5076 134.02 69.8476 133.587 70.0609 133.04H71.7209C71.4543 133.96 70.9409 134.727 70.1809 135.34C69.4343 135.94 68.4743 136.24 67.3009 136.24ZM67.3009 127.26C66.5009 127.26 65.7876 127.507 65.1609 128C64.5476 128.48 64.1943 129.187 64.1009 130.12H70.3409C70.3009 129.227 69.9943 128.527 69.4209 128.02C68.8476 127.513 68.1409 127.26 67.3009 127.26ZM75.837 136L72.937 126.08H74.617L76.717 133.86L79.037 126.08H80.937L83.277 133.86L85.357 126.08H87.057L84.157 136H82.437L79.997 127.82L77.557 136H75.837ZM97.5881 136V123.38H93.4081V122H103.448V123.38H99.2681V136H97.5881ZM107.215 136.24C106.388 136.24 105.702 136.1 105.155 135.82C104.608 135.54 104.202 135.167 103.935 134.7C103.668 134.233 103.535 133.727 103.535 133.18C103.535 132.167 103.922 131.387 104.695 130.84C105.468 130.293 106.522 130.02 107.855 130.02H110.535V129.9C110.535 129.033 110.308 128.38 109.855 127.94C109.402 127.487 108.795 127.26 108.035 127.26C107.382 127.26 106.815 127.427 106.335 127.76C105.868 128.08 105.575 128.553 105.455 129.18H103.735C103.802 128.46 104.042 127.853 104.455 127.36C104.882 126.867 105.408 126.493 106.035 126.24C106.662 125.973 107.328 125.84 108.035 125.84C109.422 125.84 110.462 126.213 111.155 126.96C111.862 127.693 112.215 128.673 112.215 129.9V136H110.715L110.615 134.22C110.335 134.78 109.922 135.26 109.375 135.66C108.842 136.047 108.122 136.24 107.215 136.24ZM107.475 134.82C108.115 134.82 108.662 134.653 109.115 134.32C109.582 133.987 109.935 133.553 110.175 133.02C110.415 132.487 110.535 131.927 110.535 131.34V131.32H107.995C107.008 131.32 106.308 131.493 105.895 131.84C105.495 132.173 105.295 132.593 105.295 133.1C105.295 133.62 105.482 134.04 105.855 134.36C106.242 134.667 106.782 134.82 107.475 134.82ZM118.535 136.24C117.349 136.24 116.362 135.94 115.575 135.34C114.789 134.74 114.329 133.927 114.195 132.9H115.915C116.022 133.42 116.295 133.873 116.735 134.26C117.189 134.633 117.795 134.82 118.555 134.82C119.262 134.82 119.782 134.673 120.115 134.38C120.449 134.073 120.615 133.713 120.615 133.3C120.615 132.7 120.395 132.3 119.955 132.1C119.529 131.9 118.922 131.72 118.135 131.56C117.602 131.453 117.069 131.3 116.535 131.1C116.002 130.9 115.555 130.62 115.195 130.26C114.835 129.887 114.655 129.4 114.655 128.8C114.655 127.933 114.975 127.227 115.615 126.68C116.269 126.12 117.149 125.84 118.255 125.84C119.309 125.84 120.169 126.107 120.835 126.64C121.515 127.16 121.909 127.907 122.015 128.88H120.355C120.289 128.373 120.069 127.98 119.695 127.7C119.335 127.407 118.849 127.26 118.235 127.26C117.635 127.26 117.169 127.387 116.835 127.64C116.515 127.893 116.355 128.227 116.355 128.64C116.355 129.04 116.562 129.353 116.975 129.58C117.402 129.807 117.975 130 118.695 130.16C119.309 130.293 119.889 130.46 120.435 130.66C120.995 130.847 121.449 131.133 121.795 131.52C122.155 131.893 122.335 132.44 122.335 133.16C122.349 134.053 122.009 134.793 121.315 135.38C120.635 135.953 119.709 136.24 118.535 136.24ZM124.735 136V121.6H126.415V130.26L130.475 126.08H132.535L128.135 130.56L133.095 136H130.955L126.415 130.86V136H124.735Z" fill="#7C7C7C"/>
<path d="M25.48 136V122H30C31.0933 122 31.9867 122.18 32.68 122.54C33.3733 122.9 33.8867 123.393 34.22 124.02C34.5533 124.647 34.72 125.34 34.72 126.1C34.72 126.98 34.48 127.773 34 128.48C33.5333 129.187 32.8 129.687 31.8 129.98L34.86 136H32.88L30.04 130.22H29.92H27.16V136H25.48ZM27.16 128.9H29.88C30.96 128.9 31.7467 128.64 32.24 128.12C32.7333 127.6 32.98 126.933 32.98 126.12C32.98 125.293 32.7333 124.64 32.24 124.16C31.76 123.667 30.9667 123.42 29.86 123.42H27.16V128.9ZM41.09 136.24C40.1433 136.24 39.3033 136.027 38.57 135.6C37.8367 135.16 37.2567 134.553 36.83 133.78C36.4167 133.007 36.21 132.093 36.21 131.04C36.21 130 36.4167 129.093 36.83 128.32C37.2433 127.533 37.8167 126.927 38.55 126.5C39.2967 126.06 40.1567 125.84 41.13 125.84C42.09 125.84 42.9167 126.06 43.61 126.5C44.3167 126.927 44.8567 127.493 45.23 128.2C45.6033 128.907 45.79 129.667 45.79 130.48C45.79 130.627 45.7833 130.773 45.77 130.92C45.77 131.067 45.77 131.233 45.77 131.42H37.87C37.91 132.18 38.0833 132.813 38.39 133.32C38.71 133.813 39.1033 134.187 39.57 134.44C40.05 134.693 40.5567 134.82 41.09 134.82C41.7833 134.82 42.3633 134.66 42.83 134.34C43.2967 134.02 43.6367 133.587 43.85 133.04H45.51C45.2433 133.96 44.73 134.727 43.97 135.34C43.2233 135.94 42.2633 136.24 41.09 136.24ZM41.09 127.26C40.29 127.26 39.5767 127.507 38.95 128C38.3367 128.48 37.9833 129.187 37.89 130.12H44.13C44.09 129.227 43.7833 128.527 43.21 128.02C42.6367 127.513 41.93 127.26 41.09 127.26ZM50.4861 136L46.7261 126.08H48.4861L51.4661 134.38L54.4661 126.08H56.1861L52.4261 136H50.4861ZM59.0758 123.88C58.7424 123.88 58.4624 123.773 58.2358 123.56C58.0224 123.333 57.9158 123.053 57.9158 122.72C57.9158 122.4 58.0224 122.133 58.2358 121.92C58.4624 121.707 58.7424 121.6 59.0758 121.6C59.3958 121.6 59.6691 121.707 59.8958 121.92C60.1224 122.133 60.2358 122.4 60.2358 122.72C60.2358 123.053 60.1224 123.333 59.8958 123.56C59.6691 123.773 59.3958 123.88 59.0758 123.88ZM58.2358 136V126.08H59.9158V136H58.2358ZM67.3009 136.24C66.3543 136.24 65.5143 136.027 64.7809 135.6C64.0476 135.16 63.4676 134.553 63.0409 133.78C62.6276 133.007 62.4209 132.093 62.4209 131.04C62.4209 130 62.6276 129.093 63.0409 128.32C63.4543 127.533 64.0276 126.927 64.7609 126.5C65.5076 126.06 66.3676 125.84 67.3409 125.84C68.3009 125.84 69.1276 126.06 69.8209 126.5C70.5276 126.927 71.0676 127.493 71.4409 128.2C71.8143 128.907 72.0009 129.667 72.0009 130.48C72.0009 130.627 71.9943 130.773 71.9809 130.92C71.9809 131.067 71.9809 131.233 71.9809 131.42H64.0809C64.1209 132.18 64.2943 132.813 64.6009 133.32C64.9209 133.813 65.3143 134.187 65.7809 134.44C66.2609 134.693 66.7676 134.82 67.3009 134.82C67.9943 134.82 68.5743 134.66 69.0409 134.34C69.5076 134.02 69.8476 133.587 70.0609 133.04H71.7209C71.4543 133.96 70.9409 134.727 70.1809 135.34C69.4343 135.94 68.4743 136.24 67.3009 136.24ZM67.3009 127.26C66.5009 127.26 65.7876 127.507 65.1609 128C64.5476 128.48 64.1943 129.187 64.1009 130.12H70.3409C70.3009 129.227 69.9943 128.527 69.4209 128.02C68.8476 127.513 68.1409 127.26 67.3009 127.26ZM75.837 136L72.937 126.08H74.617L76.717 133.86L79.037 126.08H80.937L83.277 133.86L85.357 126.08H87.057L84.157 136H82.437L79.997 127.82L77.557 136H75.837ZM97.5881 136V123.38H93.4081V122H103.448V123.38H99.2681V136H97.5881ZM107.215 136.24C106.388 136.24 105.702 136.1 105.155 135.82C104.608 135.54 104.202 135.167 103.935 134.7C103.668 134.233 103.535 133.727 103.535 133.18C103.535 132.167 103.922 131.387 104.695 130.84C105.468 130.293 106.522 130.02 107.855 130.02H110.535V129.9C110.535 129.033 110.308 128.38 109.855 127.94C109.402 127.487 108.795 127.26 108.035 127.26C107.382 127.26 106.815 127.427 106.335 127.76C105.868 128.08 105.575 128.553 105.455 129.18H103.735C103.802 128.46 104.042 127.853 104.455 127.36C104.882 126.867 105.408 126.493 106.035 126.24C106.662 125.973 107.328 125.84 108.035 125.84C109.422 125.84 110.462 126.213 111.155 126.96C111.862 127.693 112.215 128.673 112.215 129.9V136H110.715L110.615 134.22C110.335 134.78 109.922 135.26 109.375 135.66C108.842 136.047 108.122 136.24 107.215 136.24ZM107.475 134.82C108.115 134.82 108.662 134.653 109.115 134.32C109.582 133.987 109.935 133.553 110.175 133.02C110.415 132.487 110.535 131.927 110.535 131.34V131.32H107.995C107.008 131.32 106.308 131.493 105.895 131.84C105.495 132.173 105.295 132.593 105.295 133.1C105.295 133.62 105.482 134.04 105.855 134.36C106.242 134.667 106.782 134.82 107.475 134.82ZM118.535 136.24C117.349 136.24 116.362 135.94 115.575 135.34C114.789 134.74 114.329 133.927 114.195 132.9H115.915C116.022 133.42 116.295 133.873 116.735 134.26C117.189 134.633 117.795 134.82 118.555 134.82C119.262 134.82 119.782 134.673 120.115 134.38C120.449 134.073 120.615 133.713 120.615 133.3C120.615 132.7 120.395 132.3 119.955 132.1C119.529 131.9 118.922 131.72 118.135 131.56C117.602 131.453 117.069 131.3 116.535 131.1C116.002 130.9 115.555 130.62 115.195 130.26C114.835 129.887 114.655 129.4 114.655 128.8C114.655 127.933 114.975 127.227 115.615 126.68C116.269 126.12 117.149 125.84 118.255 125.84C119.309 125.84 120.169 126.107 120.835 126.64C121.515 127.16 121.909 127.907 122.015 128.88H120.355C120.289 128.373 120.069 127.98 119.695 127.7C119.335 127.407 118.849 127.26 118.235 127.26C117.635 127.26 117.169 127.387 116.835 127.64C116.515 127.893 116.355 128.227 116.355 128.64C116.355 129.04 116.562 129.353 116.975 129.58C117.402 129.807 117.975 130 118.695 130.16C119.309 130.293 119.889 130.46 120.435 130.66C120.995 130.847 121.449 131.133 121.795 131.52C122.155 131.893 122.335 132.44 122.335 133.16C122.349 134.053 122.009 134.793 121.315 135.38C120.635 135.953 119.709 136.24 118.535 136.24ZM124.735 136V121.6H126.415V130.26L130.475 126.08H132.535L128.135 130.56L133.095 136H130.955L126.415 130.86V136H124.735Z" fill="#7C7C7C"/>
<path d="M50.6166 64.0692C50.7639 63.899 50.874 63.7895 50.9027 63.7618C50.9047 63.7591 50.9071 63.7567 50.9098 63.7548L50.914 63.759C50.9267 63.7759 50.9611 63.8243 51.0171 63.9C51.3042 64.3051 52.0549 65.4776 51.9326 66.5205C51.7805 67.8044 51.1136 68.7819 50.4429 68.7025C49.7722 68.6231 49.3514 67.5182 49.5016 66.2347C49.5694 65.66 49.8583 65.1021 50.1572 64.6622C50.2982 64.4555 50.4516 64.2574 50.6166 64.0692V64.0692Z" fill="#3F964F"/>
<path d="M101.852 22.7853H50.4681C49.6589 22.7853 49.0029 23.4403 49.0029 24.2483V93.5205C49.0029 94.3285 49.6589 94.9835 50.4681 94.9835H101.852C102.661 94.9835 103.317 94.3285 103.317 93.5205V24.2483C103.317 23.4403 102.661 22.7853 101.852 22.7853Z" fill="#8EA5ED"/>
<path d="M60.0132 27.0105L46.0117 32.4388L51.1582 45.6736L65.1596 40.2453L60.0132 27.0105Z" fill="#F5A3B7"/>
<path d="M52.8896 28.9098V44.1176L53.7608 43.853V28.569L52.8896 28.9098Z" fill="#F291A9"/>
<path d="M100.42 91.8573H63.1828L54.5005 85.6356V24.7286H100.42V91.8573Z" fill="#5F7FCF"/>
<path d="M62.4867 91.3366L53.8081 85.1397L59.569 83.9738L62.4867 91.3366Z" fill="#CDD8FA"/>
<path d="M53.8081 85.1398L63.1828 91.8573C63.1828 91.8573 56.1007 89.7679 53.8081 85.1398Z" fill="#5F7FCF"/>
<path d="M90.2723 23.0724V26.4143C90.2722 26.5803 90.206 26.7395 90.0884 26.8569C89.9707 26.9743 89.8112 27.0402 89.6449 27.0402H64.0878C63.9215 27.0402 63.762 26.9743 63.6444 26.8569C63.5267 26.7395 63.4606 26.5803 63.4604 26.4143V23.0724C63.4606 22.3848 63.7342 21.7255 64.2212 21.2393C64.7081 20.7532 65.3685 20.4801 66.0571 20.4801H87.6761C88.3646 20.4802 89.0249 20.7534 89.5118 21.2395C89.9986 21.7256 90.2722 22.3849 90.2723 23.0724V23.0724Z" fill="#F37A50"/>
<path d="M82.378 21.3768H71.3518C71.3451 20.6496 71.4827 19.9283 71.7567 19.2545C72.0308 18.5808 72.4358 17.9679 72.9484 17.4513C73.461 16.9347 74.0711 16.5246 74.7433 16.2448C75.4155 15.9649 76.1366 15.8209 76.8649 15.8209C77.5932 15.8209 78.3143 15.9649 78.9866 16.2448C79.6588 16.5246 80.2688 16.9347 80.7814 17.4513C81.294 17.9679 81.6991 18.5808 81.9731 19.2545C82.2471 19.9283 82.3848 20.6496 82.378 21.3768V21.3768Z" fill="#F37A50"/>
<path d="M89.4142 21.147L63.4585 25.7874V23.0724C63.4586 22.3849 63.7322 21.7255 64.2192 21.2394C64.7062 20.7533 65.3666 20.4802 66.0551 20.4802H71.4254C71.6386 19.1932 72.3025 18.0236 73.2987 17.1799C74.295 16.3361 75.559 15.8729 76.8654 15.8729C78.1718 15.8729 79.4357 16.3361 80.432 17.1799C81.4283 18.0236 82.0921 19.1932 82.3053 20.4802H87.676C88.3182 20.4795 88.9377 20.7172 89.4142 21.147V21.147Z" fill="#DE623C"/>
<path d="M78.5139 18.8376C78.5139 19.1629 78.4173 19.4809 78.2363 19.7514C78.0552 20.0219 77.798 20.2328 77.497 20.3572C77.196 20.4817 76.8647 20.5143 76.5452 20.4508C76.2256 20.3874 75.9321 20.2307 75.7017 20.0007C75.4713 19.7707 75.3145 19.4776 75.2509 19.1585C75.1873 18.8394 75.22 18.5087 75.3446 18.2081C75.4693 17.9076 75.6805 17.6507 75.9514 17.47C76.2223 17.2892 76.5407 17.1927 76.8666 17.1927C77.3035 17.1927 77.7225 17.366 78.0314 17.6745C78.3403 17.983 78.5139 18.4014 78.5139 18.8376V18.8376Z" fill="#E3E9FF"/>
<path d="M64.7103 44.1045H56.9345C56.8163 44.1045 56.7029 44.0576 56.6193 43.9741C56.5357 43.8907 56.4888 43.7775 56.4888 43.6594V35.8952C56.4888 35.7772 56.5357 35.664 56.6193 35.5805C56.7029 35.4971 56.8163 35.4502 56.9345 35.4502H64.7103C64.8285 35.4502 64.9419 35.4971 65.0255 35.5805C65.1091 35.664 65.156 35.7772 65.156 35.8952V43.6594C65.156 43.7775 65.1091 43.8907 65.0255 43.9741C64.9419 44.0576 64.8285 44.1045 64.7103 44.1045ZM57.3807 43.2115H64.2646V36.3403H57.3807V43.2115Z" fill="#8EA5ED"/>
<path d="M60.0364 43.5635L55.8701 38.7418L57.348 37.4682L60.0501 40.5957L65.5545 34.3444L67.0206 35.6311L60.0364 43.5635Z" fill="#E62552"/>
<path d="M86.7203 36.0348H68.7856V37.6308H86.7203V36.0348Z" fill="#CDD8FA"/>
<path d="M97.6061 36.0348H87.9448V37.6308H97.6061V36.0348Z" fill="#CDD8FA"/>
<path d="M79.0772 39.207H68.7856V40.803H79.0772V39.207Z" fill="#CDD8FA"/>
<path d="M91.3488 42.3792H68.7856V43.9747H91.3488V42.3792Z" fill="#CDD8FA"/>
<path d="M97.6056 39.207H80.2324V40.803H97.6056V39.207Z" fill="#CDD8FA"/>
<path d="M64.7103 61.8092H56.9345C56.8163 61.8092 56.7029 61.7623 56.6193 61.6788C56.5357 61.5954 56.4888 61.4822 56.4888 61.3641V53.6C56.4888 53.5415 56.5003 53.4836 56.5227 53.4296C56.5451 53.3756 56.5779 53.3266 56.6193 53.2853C56.6607 53.2439 56.7098 53.2111 56.7639 53.1888C56.818 53.1664 56.876 53.1549 56.9345 53.1549H64.7103C64.7689 53.1549 64.8268 53.1664 64.8809 53.1888C64.935 53.2111 64.9841 53.2439 65.0255 53.2853C65.0669 53.3266 65.0997 53.3756 65.1221 53.4296C65.1445 53.4836 65.156 53.5415 65.156 53.6V61.3632C65.1562 61.4217 65.1447 61.4797 65.1224 61.5338C65.1 61.5879 65.0672 61.6371 65.0258 61.6785C64.9844 61.7199 64.9353 61.7528 64.8811 61.7752C64.827 61.7976 64.7689 61.8092 64.7103 61.8092V61.8092ZM57.3807 60.9163H64.2646V54.045H57.3807V60.9163Z" fill="#8EA5ED"/>
<path d="M60.0364 61.2682L55.8701 56.4465L57.348 55.1734L60.0501 58.3005L65.5545 52.0491L67.0206 53.3358L60.0364 61.2682Z" fill="#E62552"/>
<path d="M93.9883 53.5158H68.7856V55.1118H93.9883V53.5158Z" fill="#CDD8FA"/>
<path d="M84.704 56.688H68.7856V58.284H84.704V56.688Z" fill="#CDD8FA"/>
<path d="M75.0516 59.8602H68.7856V61.4562H75.0516V59.8602Z" fill="#CDD8FA"/>
<path d="M97.4766 59.8602H76.0698V61.4562H97.4766V59.8602Z" fill="#CDD8FA"/>
<path d="M97.4766 56.688H85.998V58.284H97.4766V56.688Z" fill="#CDD8FA"/>
<path d="M64.7103 79.4359H56.9345C56.8163 79.4359 56.7029 79.389 56.6193 79.3055C56.5357 79.2221 56.4888 79.1089 56.4888 78.9908V71.2267C56.4888 71.1086 56.5357 70.9954 56.6193 70.912C56.7029 70.8285 56.8163 70.7816 56.9345 70.7816H64.7103C64.8285 70.7816 64.9419 70.8285 65.0255 70.912C65.1091 70.9954 65.156 71.1086 65.156 71.2267V78.9908C65.156 79.1089 65.1091 79.2221 65.0255 79.3055C64.9419 79.389 64.8285 79.4359 64.7103 79.4359ZM57.3807 78.5458H64.2646V71.6722H57.3807V78.5458Z" fill="#8EA5ED"/>
<path d="M60.0364 78.8949L55.8701 74.0732L57.348 72.8001L60.0501 75.9276L65.5545 69.6758L67.0206 70.9625L60.0364 78.8949Z" fill="#E62552"/>
<path d="M76.5186 71.0743H68.7856V72.6703H76.5186V71.0743Z" fill="#CDD8FA"/>
<path d="M97.4022 71.0743H77.374V72.6703H97.4022V71.0743Z" fill="#CDD8FA"/>
<path d="M89.6954 74.2466H68.7856V75.8426H89.6954V74.2466Z" fill="#CDD8FA"/>
<path d="M82.0805 77.4188H68.7856V79.0148H82.0805V77.4188Z" fill="#CDD8FA"/>
<path d="M93.2877 77.4188H82.9707V79.0148H93.2877V77.4188Z" fill="#CDD8FA"/>
<path d="M97.4767 74.2466H90.8931V75.8426H97.4767V74.2466Z" fill="#CDD8FA"/>
<path d="M95.6603 79.8335L102.782 90.5956C102.851 90.69 102.955 90.753 103.071 90.7708C103.187 90.7886 103.305 90.7598 103.4 90.6905L106.46 88.4453C106.555 88.3758 106.618 88.2717 106.636 88.1558C106.653 88.04 106.624 87.9218 106.555 87.8272L98.4272 77.8035L95.6603 79.8335Z" fill="#4931AD"/>
<path d="M98.2306 80.3714L99.6649 79.3209L98.4322 77.8043L95.6603 79.8335L102.8 90.5983C102.869 90.6928 102.974 90.7559 103.09 90.7737C103.206 90.7915 103.324 90.7627 103.419 90.6935L104.98 89.5512L98.2306 80.3714Z" fill="#5F7FCF"/>
<path d="M99.0808 81.0285L97.1739 79.0519L95.6452 79.9319L97.4358 81.9754L99.0808 81.0285Z" fill="#A6A8AB"/>
<path d="M86.8861 64.9744C85.4661 66.0164 84.3869 67.4561 83.7851 69.1115C83.1832 70.7668 83.0857 72.5634 83.5049 74.2741C83.924 75.9849 84.8411 77.5329 86.14 78.7224C87.4389 79.912 89.0614 80.6897 90.8023 80.9571C92.5432 81.2246 94.3243 80.9698 95.9204 80.2251C97.5165 79.4803 98.8559 78.2789 99.7693 76.7729C100.683 75.2669 101.129 73.5239 101.052 71.7642C100.975 70.0046 100.377 68.3073 99.3356 66.8871C98.6437 65.9441 97.7729 65.1465 96.7728 64.54C95.7728 63.9335 94.663 63.53 93.507 63.3524C92.3509 63.1747 91.1712 63.2266 90.0352 63.5049C88.8992 63.7832 87.8292 64.2826 86.8861 64.9744V64.9744ZM96.6032 78.2179C95.4039 79.0978 93.9706 79.6023 92.4846 79.6675C90.9985 79.7328 89.5265 79.356 88.2547 78.5847C86.9828 77.8133 85.9682 76.6822 85.3392 75.3342C84.7102 73.9863 84.4951 72.4821 84.721 71.0118C84.9468 69.5416 85.6036 68.1713 86.6082 67.0744C87.6129 65.9774 88.9202 65.203 90.3649 64.849C91.8097 64.495 93.3269 64.5775 94.7248 65.0858C96.1227 65.5942 97.3385 66.5056 98.2184 67.705C98.8027 68.5013 99.2244 69.4049 99.4595 70.3642C99.6946 71.3235 99.7384 72.3197 99.5884 73.296C99.4384 74.2722 99.0976 75.2094 98.5854 76.0539C98.0732 76.8984 97.3996 77.6337 96.6032 78.2179V78.2179Z" fill="#403F41"/>
<path opacity="0.3" d="M98.7611 67.3085C99.7196 68.6151 100.269 70.1765 100.34 71.7953C100.411 73.4141 100.001 75.0177 99.1603 76.4032C98.32 77.7887 97.0878 78.8939 95.6193 79.5791C94.1509 80.2643 92.5123 80.4987 90.9107 80.2526C89.309 80.0065 87.8163 79.2911 86.6213 78.1967C85.4263 77.1023 84.5826 75.6781 84.197 74.1043C83.8114 72.5305 83.9011 70.8776 84.4548 69.3548C85.0085 67.8319 86.0014 66.5075 87.3078 65.5489C88.1754 64.9122 89.1598 64.4527 90.2049 64.1966C91.2501 63.9405 92.3354 63.8928 93.399 64.0562C94.4626 64.2196 95.4835 64.5909 96.4036 65.1489C97.3236 65.707 98.1247 66.4408 98.7611 67.3085V67.3085Z" fill="#E6E6E7"/>
</svg>
