<svg width="20" height="20" viewBox="0 0 20 20" fill="none" xmlns="http://www.w3.org/2000/svg">
<path d="M9.99967 4C8.95672 4.00132 7.95686 4.41622 7.21938 5.1537C6.4819 5.89118 6.067 6.89104 6.06567 7.934H8.06567C8.06567 6.867 8.93367 6 9.99967 6C11.0657 6 11.9337 6.867 11.9337 7.934C11.9337 8.532 11.4527 8.966 10.7177 9.56C10.4776 9.7481 10.2469 9.94801 10.0267 10.159C9.02867 11.156 8.99967 12.215 8.99967 12.333V13H10.9997L10.9987 12.367C10.9997 12.351 11.0317 11.981 11.4397 11.574C11.5897 11.424 11.7787 11.274 11.9747 11.116C12.7537 10.485 13.9327 9.532 13.9327 7.934C13.9319 6.89106 13.5173 5.89104 12.7799 5.15347C12.0425 4.41591 11.0426 4.00106 9.99967 4ZM8.99967 14H10.9997V16H8.99967V14Z" fill="#343437"/>
<path d="M10 0C4.486 0 0 4.486 0 10C0 15.514 4.486 20 10 20C15.514 20 20 15.514 20 10C20 4.486 15.514 0 10 0ZM10 18C5.589 18 2 14.411 2 10C2 5.589 5.589 2 10 2C14.411 2 18 5.589 18 10C18 14.411 14.411 18 10 18Z" fill="#343437"/>
</svg>
