<svg width="20" height="20" viewBox="0 0 20 20" fill="none" xmlns="http://www.w3.org/2000/svg">
<path fill-rule="evenodd" clip-rule="evenodd" d="M16.4375 1.91667H3.3125C3.06386 1.91667 2.8254 2.01763 2.64959 2.19736C2.47377 2.37708 2.375 2.62083 2.375 2.875V16.2917C2.375 16.5458 2.47377 16.7896 2.64959 16.9693C2.8254 17.149 3.06386 17.25 3.3125 17.25H16.4375C16.6861 17.25 16.9246 17.149 17.1004 16.9693C17.2762 16.7896 17.375 16.5458 17.375 16.2917V2.875C17.375 2.62083 17.2762 2.37708 17.1004 2.19736C16.9246 2.01763 16.6861 1.91667 16.4375 1.91667ZM3.3125 0C2.56658 0 1.85121 0.302901 1.32376 0.842068C0.796316 1.38124 0.5 2.1125 0.5 2.875V16.2917C0.5 17.0542 0.796316 17.7854 1.32376 18.3246C1.85121 18.8638 2.56658 19.1667 3.3125 19.1667H16.4375C17.1834 19.1667 17.8988 18.8638 18.4262 18.3246C18.9537 17.7854 19.25 17.0542 19.25 16.2917V2.875C19.25 2.1125 18.9537 1.38124 18.4262 0.842068C17.8988 0.302901 17.1834 0 16.4375 0H3.3125Z" fill="#7C7C7C"/>
<path d="M8.9375 4.79175H10.8125V14.3751H8.9375V4.79175ZM12.6875 10.5417H14.5625V14.3751H12.6875V10.5417ZM5.1875 7.66675H7.0625V14.3751H5.1875V7.66675Z" fill="#7C7C7C"/>
</svg>
