<svg width="23" height="23" viewBox="0 0 23 23" fill="none" xmlns="http://www.w3.org/2000/svg">
<path fill-rule="evenodd" clip-rule="evenodd" d="M18.2083 3.83333H4.79163C4.53746 3.83333 4.2937 3.9343 4.11398 4.11402C3.93426 4.29374 3.83329 4.5375 3.83329 4.79166V18.2083C3.83329 18.4625 3.93426 18.7063 4.11398 18.886C4.2937 19.0657 4.53746 19.1667 4.79163 19.1667H18.2083C18.4625 19.1667 18.7062 19.0657 18.8859 18.886C19.0657 18.7063 19.1666 18.4625 19.1666 18.2083V4.79166C19.1666 4.5375 19.0657 4.29374 18.8859 4.11402C18.7062 3.9343 18.4625 3.83333 18.2083 3.83333V3.83333ZM4.79163 1.91666C4.02913 1.91666 3.29786 2.21957 2.75869 2.75873C2.21953 3.2979 1.91663 4.02917 1.91663 4.79166V18.2083C1.91663 18.9708 2.21953 19.7021 2.75869 20.2413C3.29786 20.7804 4.02913 21.0833 4.79163 21.0833H18.2083C18.9708 21.0833 19.7021 20.7804 20.2412 20.2413C20.7804 19.7021 21.0833 18.9708 21.0833 18.2083V4.79166C21.0833 4.02917 20.7804 3.2979 20.2412 2.75873C19.7021 2.21957 18.9708 1.91666 18.2083 1.91666H4.79163Z" fill="#7C7C7C"/>
<path d="M10.5416 6.70833H12.4583V16.2917H10.5416V6.70833ZM14.3749 12.4583H16.2916V16.2917H14.3749V12.4583ZM6.70825 9.58333H8.62492V16.2917H6.70825V9.58333Z" fill="#7C7C7C"/>
</svg>
