<svg width="44" height="43" viewBox="0 0 44 43" fill="none" xmlns="http://www.w3.org/2000/svg">
<path fill-rule="evenodd" clip-rule="evenodd" d="M21.9886 0L42.7095 8.34783L42.394 9.13109H43.237V14.5683H40.7481V10.2409L21.7534 2.58855L2.48891 10.2118V21.9356L20.1466 28.9664V13.1003H9.44532V10.6114H33.2731V13.1003H22.6355V28.9559L41.2434 21.3913L41.546 22.1356H43.1977V33.9513H42.4149L42.7137 34.7137L21.6993 42.9501L21.3979 42.1809L21.0928 42.9481L0.625225 34.8108L0.895296 34.1315L0.194935 32.5402L6.04847 29.964L7.05105 32.242L4.13214 33.5267L20.1466 39.8935V31.6454L0.502694 23.8237L0.794901 23.0899H0V9.05709H0.905109L0.598805 8.28304L21.5066 0.00952196L21.7435 0.60825L21.9886 0ZM22.6355 31.6426V39.91L40.7088 32.8263V24.2953L22.6355 31.6426ZM42.5791 16.3516C42.5791 16.6595 42.3104 16.909 41.979 16.909C41.6476 16.909 41.379 16.6595 41.379 16.3516C41.379 16.0438 41.6476 15.7943 41.979 15.7943C42.3104 15.7943 42.5791 16.0438 42.5791 16.3516Z" fill="#4931AD"/>
</svg>
