<svg width="17" height="18" viewBox="0 0 17 18" fill="none" xmlns="http://www.w3.org/2000/svg">
<path d="M9.30005 15.5H3.70005C2.92685 15.5 2.30005 14.8732 2.30005 14.1V4.30002C2.30005 3.52683 2.92685 2.90002 3.70005 2.90002H13.5C14.2732 2.90002 14.9 3.52683 14.9 4.30002V9.90002C14.8997 9.90811 14.8983 9.91612 14.8958 9.92382C14.8938 9.93021 14.8924 9.93677 14.8916 9.94342C14.8877 10.0052 14.8757 10.0661 14.8559 10.1247L14.8496 10.1436C14.8449 10.1594 14.8391 10.1749 14.8321 10.1898C14.7983 10.2661 14.7508 10.3356 14.6921 10.3949L9.79215 15.2949C9.66159 15.4255 9.48471 15.4992 9.30005 15.5ZM3.70005 4.30002V14.1H8.60005V9.90002C8.60005 9.51342 8.91345 9.20002 9.30005 9.20002H13.5V4.30002H3.70005ZM10 10.6V13.1109L12.5102 10.6H10Z" fill="#2C2E2E"/>
</svg>
