<svg width="32" height="32" viewBox="0 0 32 32" fill="none" xmlns="http://www.w3.org/2000/svg">
<path d="M30 23.382L28 22.382V20C27.9976 18.5834 27.4944 17.2133 26.5794 16.1318C25.6645 15.0503 24.3966 14.3271 23 14.09V12H21V14.09C19.6034 14.3271 18.3355 15.0503 17.4206 16.1318C16.5056 17.2133 16.0024 18.5834 16 20V22.382L14 23.382V28H20V30H24V28H30V23.382ZM28 26H16V24.618L18 23.618V20C18 18.9391 18.4214 17.9217 19.1716 17.1716C19.9217 16.4214 20.9391 16 22 16C23.0609 16 24.0783 16.4214 24.8284 17.1716C25.5786 17.9217 26 18.9391 26 20V23.618L28 24.618V26Z" fill="#4931AD"/>
<path d="M28 6C28 5.46957 27.7893 4.96086 27.4142 4.58579C27.0391 4.21071 26.5304 4 26 4H22V2H20V4H12V2H10V4H6C5.46957 4 4.96086 4.21071 4.58579 4.58579C4.21071 4.96086 4 5.46957 4 6V26C4 26.5304 4.21071 27.0391 4.58579 27.4142C4.96086 27.7893 5.46957 28 6 28H10V26H6V6H10V8H12V6H20V8H22V6H26V12H28V6Z" fill="#4931AD"/>
</svg>
