<?xml version="1.0" standalone="no"?>
<!DOCTYPE svg PUBLIC "-//W3C//DTD SVG 20010904//EN"
 "http://www.w3.org/TR/2001/REC-SVG-20010904/DTD/svg10.dtd">
<svg version="1.0" xmlns="http://www.w3.org/2000/svg"
 width="704.000000pt" height="704.000000pt" viewBox="0 0 704.000000 704.000000"
 preserveAspectRatio="xMidYMid meet">
<metadata>
Created by potrace 1.14, written by Peter Selinger 2001-2017
</metadata>
<g transform="translate(0.000000,704.000000) scale(0.100000,-0.100000)"
fill="#000000" stroke="none">
<path d="M3368 6930 c-37 -14 -71 -29 -74 -33 -4 -4 -14 -7 -22 -7 -8 0 -28
-7 -45 -15 -18 -8 -122 -50 -232 -93 -110 -43 -209 -82 -220 -87 -11 -4 -24
-9 -30 -11 -5 -1 -28 -10 -50 -20 -22 -10 -44 -18 -50 -20 -5 -1 -30 -11 -55
-22 -38 -17 -77 -32 -100 -37 -9 -2 -65 -27 -90 -40 -14 -7 -29 -14 -35 -15
-16 -4 -368 -141 -410 -160 -11 -5 -92 -37 -180 -71 -88 -34 -173 -67 -190
-74 -16 -8 -84 -34 -150 -60 -66 -25 -129 -50 -140 -55 -11 -5 -45 -19 -75
-30 -30 -11 -64 -25 -75 -30 -11 -5 -76 -31 -145 -58 -69 -27 -134 -53 -145
-57 -11 -5 -22 -9 -25 -9 -12 -3 -528 -209 -559 -223 -18 -8 -39 -16 -45 -17
-6 -1 -15 -4 -21 -7 -5 -4 -27 -12 -47 -18 -53 -17 -63 -33 -45 -73 36 -79 37
-78 -42 -78 l-71 0 2 -1122 3 -1123 55 0 c55 0 55 0 52 -29 -2 -16 -10 -42
-18 -57 -7 -15 -11 -30 -6 -32 4 -3 84 -35 177 -72 94 -36 179 -71 190 -75 11
-5 43 -18 70 -28 28 -11 88 -35 135 -54 47 -19 101 -41 120 -48 19 -7 49 -19
65 -26 17 -7 66 -27 110 -44 44 -17 89 -34 100 -39 46 -19 73 -30 125 -51 30
-11 64 -25 75 -30 28 -12 939 -374 945 -376 3 0 17 -6 32 -12 62 -26 278 -112
343 -137 39 -14 84 -32 100 -39 17 -8 62 -26 100 -40 39 -15 84 -33 100 -40
40 -17 99 -41 105 -42 6 -1 30 -11 85 -34 22 -9 66 -27 98 -40 35 -14 57 -29
58 -39 1 -9 2 -305 3 -658 1 -638 1 -643 -19 -637 -11 3 -29 9 -40 15 -11 5
-78 31 -150 59 -71 28 -139 55 -150 60 -11 5 -51 21 -90 36 -38 14 -86 33
-105 41 -59 25 -73 31 -145 58 -38 15 -83 33 -100 40 -16 7 -178 72 -360 143
-181 72 -343 136 -360 143 -16 7 -32 13 -35 14 -3 1 -14 5 -25 10 -21 9 -417
166 -768 305 -115 45 -205 86 -200 90 4 4 108 51 230 105 123 53 221 100 219
104 -5 8 -29 63 -96 216 -29 66 -56 124 -61 129 -5 6 -29 0 -60 -15 -29 -13
-55 -24 -58 -25 -3 0 -28 -11 -56 -23 -27 -13 -106 -48 -175 -78 -69 -30 -143
-63 -165 -73 -22 -10 -94 -41 -160 -70 -66 -29 -153 -67 -192 -86 l-73 -32 36
-79 c19 -43 44 -97 55 -120 18 -36 19 -47 9 -85 -7 -24 -17 -49 -23 -56 -13
-16 -5 -23 63 -50 30 -11 69 -27 85 -33 17 -7 32 -13 35 -14 3 -1 19 -7 35
-14 17 -7 57 -23 90 -36 33 -13 74 -29 90 -36 17 -7 35 -13 40 -15 12 -4 332
-131 360 -143 11 -5 63 -26 115 -46 52 -21 109 -44 127 -51 17 -8 73 -30 125
-49 51 -20 102 -40 113 -45 35 -16 239 -97 265 -105 14 -4 45 -16 70 -27 62
-28 70 -31 205 -84 66 -25 134 -52 150 -59 17 -7 62 -25 100 -40 39 -15 84
-33 100 -40 17 -7 125 -50 240 -95 116 -45 224 -88 240 -95 17 -7 140 -56 275
-109 135 -53 265 -105 290 -116 26 -11 49 -15 55 -10 6 5 19 32 30 61 l18 53
23 -60 c17 -46 26 -58 41 -56 16 3 129 44 208 77 17 7 68 27 115 45 47 18 99
39 115 46 17 7 91 36 165 64 74 28 144 55 155 60 37 16 330 132 340 134 6 2
19 7 30 11 11 5 88 35 170 67 83 32 158 63 167 68 10 6 23 10 28 10 6 0 32 10
58 21 25 12 51 22 57 24 12 2 43 14 70 25 75 33 144 57 149 52 3 -3 6 0 6 6 0
7 4 12 10 12 9 0 343 127 395 150 11 5 108 43 215 85 107 42 209 83 227 90 17
8 35 15 39 15 4 0 51 17 103 39 124 50 134 53 146 57 17 5 168 65 210 84 22 9
68 27 103 40 34 12 62 25 62 29 0 12 -26 81 -33 87 -4 4 -7 14 -7 21 0 11 13
13 56 11 37 -3 58 0 61 8 2 7 5 433 6 947 l2 936 -80 0 c-44 0 -104 0 -133 0
l-53 1 -26 59 -25 59 -42 -18 c-125 -54 -403 -163 -413 -163 -7 0 -13 -4 -13
-8 0 -3 -10 -10 -22 -14 -13 -4 -27 -9 -33 -10 -16 -6 -358 -145 -380 -155
-19 -9 -75 -32 -410 -166 -88 -36 -169 -69 -180 -74 -39 -17 -91 -39 -245
-100 -85 -34 -168 -68 -185 -75 -16 -8 -64 -27 -105 -43 -71 -28 -276 -112
-330 -135 -14 -6 -27 -11 -30 -12 -3 -1 -18 -7 -35 -14 -16 -6 -55 -21 -85
-33 -30 -12 -59 -25 -65 -29 -5 -4 -19 -9 -30 -11 -11 -1 -22 -5 -25 -8 -3 -3
-43 -20 -90 -38 -47 -19 -94 -37 -105 -42 -42 -19 -145 -60 -148 -60 -3 0 -5
569 -5 1264 0 932 3 1266 12 1268 6 2 388 3 849 3 580 -1 837 2 838 9 6 64 2
379 -5 383 -7 5 -3671 8 -3783 4 l-23 -1 0 -194 c0 -177 2 -195 18 -199 9 -3
391 -4 847 -3 457 1 835 0 840 -1 11 -3 14 -2517 4 -2528 -6 -5 -164 54 -258
97 -25 11 -52 21 -60 23 -14 3 -59 21 -166 66 -11 4 -51 20 -90 35 -38 14 -94
37 -123 50 -29 13 -57 24 -62 24 -6 0 -32 9 -58 21 -86 38 -260 108 -282 113
-8 2 -41 15 -72 29 -31 14 -59 23 -62 19 -3 -3 -6 0 -6 6 0 7 -5 12 -12 12 -9
0 -995 388 -1143 450 -11 4 -36 15 -55 23 -19 8 -66 27 -105 42 -77 29 -93 36
-145 58 -19 9 -46 18 -60 22 -50 12 -62 30 -64 92 -1 32 2 68 5 79 4 12 5 25
2 28 -9 8 -8 770 1 784 3 6 3 13 -1 15 -9 6 -9 757 0 781 3 8 3 17 -1 20 -6 3
-7 64 -3 97 1 6 22 15 351 144 135 53 254 100 265 105 11 5 130 53 265 106
473 185 525 206 555 219 17 7 165 66 330 130 165 65 330 131 367 146 36 16 73
29 80 29 8 0 18 4 24 9 11 10 86 36 97 33 4 -1 7 3 7 8 0 6 9 10 20 10 11 0
20 4 20 8 0 5 6 9 13 9 10 0 163 59 242 92 11 5 52 21 90 36 39 15 81 32 95
38 14 5 30 11 35 13 14 3 166 65 187 75 10 5 25 9 35 9 14 0 322 -119 428
-165 26 -11 541 -218 615 -247 14 -5 26 -9 28 -8 1 0 15 -6 30 -14 15 -8 52
-24 82 -36 30 -11 64 -25 75 -30 11 -5 52 -21 90 -36 39 -15 88 -34 110 -44
22 -10 72 -30 110 -44 39 -15 84 -33 100 -41 35 -15 169 -69 235 -95 68 -26
550 -220 590 -237 91 -39 450 -183 502 -202 46 -16 46 -17 50 -64 2 -26 1 -47
-2 -47 -3 0 -4 -71 -2 -157 3 -177 3 -256 -3 -261 -2 -2 1 -17 5 -33 5 -16 5
-29 1 -29 -3 0 -6 -12 -5 -27 1 -16 3 -43 3 -60 l1 -33 198 0 199 0 0 435 c0
396 -1 436 -16 434 -9 -1 -39 -1 -68 0 l-52 1 25 55 c13 31 24 59 24 63 0 8
-14 14 -135 63 -44 17 -93 37 -110 44 -16 7 -68 28 -115 46 -47 18 -89 36 -95
40 -5 4 -25 10 -42 14 -18 3 -33 11 -33 16 0 5 -3 8 -7 7 -5 0 -17 2 -28 7
-39 16 -171 68 -215 85 -36 14 -296 118 -385 155 -11 5 -22 9 -25 10 -3 1 -18
7 -35 14 -45 18 -147 60 -375 151 -113 45 -218 88 -235 95 -16 7 -156 64 -310
125 -154 61 -293 118 -309 126 -16 8 -33 14 -38 14 -4 0 -30 10 -56 21 -89 40
-110 49 -115 49 -2 0 -22 8 -43 17 -22 9 -44 18 -50 19 -6 1 -27 9 -45 17 -27
13 -376 154 -487 198 -21 8 -25 4 -44 -38 l-21 -47 -16 41 c-9 23 -18 43 -21
45 -3 3 -35 -7 -72 -22z m3146 -4544 c0 -372 -2 -677 -5 -679 -2 -2 -71 -30
-154 -62 -82 -31 -163 -63 -180 -70 -16 -7 -91 -36 -165 -64 -74 -29 -144 -57
-155 -61 -11 -5 -114 -46 -230 -90 -115 -45 -219 -86 -230 -91 -11 -4 -45 -18
-75 -29 -30 -11 -64 -24 -75 -29 -30 -13 -328 -132 -340 -135 -5 -2 -19 -6
-30 -11 -11 -4 -101 -39 -200 -77 -99 -39 -189 -74 -200 -79 -11 -5 -87 -35
-170 -67 -82 -32 -159 -63 -170 -67 -11 -4 -24 -9 -30 -11 -10 -2 -398 -155
-443 -174 -13 -6 -27 -10 -31 -10 -5 0 -9 296 -9 659 l1 658 131 53 c72 29
149 61 171 70 43 18 77 32 85 35 3 1 19 7 35 14 17 7 71 28 120 48 50 20 106
44 125 53 19 10 40 19 45 20 16 4 320 125 390 155 17 8 138 57 270 110 132 54
254 103 270 110 17 7 127 52 245 99 118 48 224 91 235 96 11 5 45 19 75 31 30
12 69 27 85 34 17 8 55 23 85 34 30 12 64 26 75 31 29 14 276 113 300 121 6 2
39 15 75 30 35 15 67 26 70 24 3 -2 5 -307 4 -679z"/>
<path d="M6655 4408 c-78 -68 3 -184 101 -143 59 25 73 93 28 139 -35 34 -92
36 -129 4z"/>
</g>
</svg>
