<svg width="14" height="15" viewBox="0 0 14 15" fill="none" xmlns="http://www.w3.org/2000/svg">
<mask id="mask0_1890_6208" style="mask-type:alpha" maskUnits="userSpaceOnUse" x="0" y="0" width="14" height="15">
<rect y="0.5" width="14" height="14" fill="#D9D9D9"/>
</mask>
<g mask="url(#mask0_1890_6208)">
<path d="M3.09199 13.0416C2.80033 13.0416 2.55241 12.9395 2.34824 12.7354C2.14408 12.5312 2.04199 12.2833 2.04199 11.9916V4.17496C2.04199 3.88329 2.14408 3.63538 2.34824 3.43121C2.55241 3.22704 2.80033 3.12496 3.09199 3.12496H3.90866V1.88538H4.79824V3.12496H9.21699V1.88538H10.092V3.12496H10.9087C11.2003 3.12496 11.4482 3.22704 11.6524 3.43121C11.8566 3.63538 11.9587 3.88329 11.9587 4.17496V11.9916C11.9587 12.2833 11.8566 12.5312 11.6524 12.7354C11.4482 12.9395 11.2003 13.0416 10.9087 13.0416H3.09199ZM3.09199 12.1666H10.9087C10.9475 12.1666 10.9864 12.1472 11.0253 12.1083C11.0642 12.0694 11.0837 12.0305 11.0837 11.9916V6.50829H2.91699V11.9916C2.91699 12.0305 2.93644 12.0694 2.97533 12.1083C3.01421 12.1472 3.0531 12.1666 3.09199 12.1666ZM2.91699 5.63329H11.0837V4.17496C11.0837 4.13607 11.0642 4.09718 11.0253 4.05829C10.9864 4.0194 10.9475 3.99996 10.9087 3.99996H3.09199C3.0531 3.99996 3.01421 4.0194 2.97533 4.05829C2.93644 4.09718 2.91699 4.13607 2.91699 4.17496V5.63329Z" fill="#B1B3C5"/>
</g>
</svg>
