<svg width="14" height="15" viewBox="0 0 14 15" fill="none" xmlns="http://www.w3.org/2000/svg">
<mask id="mask0_1890_6213" style="mask-type:alpha" maskUnits="userSpaceOnUse" x="0" y="0" width="14" height="15">
<rect y="0.5" width="14" height="14" fill="#D9D9D9"/>
</mask>
<g mask="url(#mask0_1890_6213)">
<path d="M9.02676 10.1396L9.63926 9.52712L7.43717 7.32504V4.58337H6.56217V7.67504L9.02676 10.1396ZM6.99967 13.0417C6.23162 13.0417 5.50984 12.8959 4.83434 12.6042C4.15845 12.3125 3.57259 11.9188 3.07676 11.423C2.58092 10.9271 2.18717 10.3413 1.89551 9.66537C1.60384 8.98987 1.45801 8.2681 1.45801 7.50004C1.45801 6.73199 1.60384 6.01001 1.89551 5.33412C2.18717 4.65862 2.58092 4.07296 3.07676 3.57712C3.57259 3.08129 4.15845 2.68754 4.83434 2.39587C5.50984 2.10421 6.23162 1.95837 6.99967 1.95837C7.76773 1.95837 8.4897 2.10421 9.16559 2.39587C9.84109 2.68754 10.4268 3.08129 10.9226 3.57712C11.4184 4.07296 11.8122 4.65862 12.1038 5.33412C12.3955 6.01001 12.5413 6.73199 12.5413 7.50004C12.5413 8.2681 12.3955 8.98987 12.1038 9.66537C11.8122 10.3413 11.4184 10.9271 10.9226 11.423C10.4268 11.9188 9.84109 12.3125 9.16559 12.6042C8.4897 12.8959 7.76773 13.0417 6.99967 13.0417ZM6.99967 12.1667C8.29273 12.1667 9.39387 11.7123 10.3031 10.8035C11.2119 9.89424 11.6663 8.7931 11.6663 7.50004C11.6663 6.20698 11.2119 5.10585 10.3031 4.19662C9.39387 3.28779 8.29273 2.83337 6.99967 2.83337C5.70662 2.83337 4.60567 3.28779 3.69684 4.19662C2.78762 5.10585 2.33301 6.20698 2.33301 7.50004C2.33301 8.7931 2.78762 9.89424 3.69684 10.8035C4.60567 11.7123 5.70662 12.1667 6.99967 12.1667Z" fill="#B1B3C5"/>
</g>
</svg>
