<svg width="27" height="23" viewBox="0 0 27 23" fill="none" xmlns="http://www.w3.org/2000/svg">
<path d="M12.5977 9.27959V12.0156H9.87451C9.74238 12.0156 9.63281 12.1155 9.63281 12.2412V13.5947C9.63281 13.7172 9.74238 13.8203 9.87451 13.8203H12.5977V16.5563C12.5977 16.682 12.7008 16.7852 12.8232 16.7852H14.1768C14.3024 16.7852 14.4023 16.682 14.4023 16.5563V13.8203H17.1255C17.2576 13.8203 17.3672 13.7172 17.3672 13.5947V12.2412C17.3672 12.1155 17.2576 12.0156 17.1255 12.0156H14.4023V9.27959C14.4023 9.15391 14.3024 9.05078 14.1768 9.05078H12.8232C12.7008 9.05078 12.5977 9.15391 12.5977 9.27959ZM25.3594 4.61641H13.79L10.0099 1.00059C9.96177 0.955558 9.8985 0.930252 9.83262 0.929688H1.64062C1.07021 0.929688 0.609375 1.39053 0.609375 1.96094V21.0391C0.609375 21.6095 1.07021 22.0703 1.64062 22.0703H25.3594C25.9298 22.0703 26.3906 21.6095 26.3906 21.0391V5.64766C26.3906 5.07725 25.9298 4.61641 25.3594 4.61641ZM24.0703 19.75H2.92969V3.25H9.00439L12.8587 6.93672H24.0703V19.75Z" fill="#808080"/>
</svg>
