<svg width="131" height="162" viewBox="0 0 131 162" fill="none" xmlns="http://www.w3.org/2000/svg">
<g filter="url(#filter0_di_1472_10003)">
<path d="M127.561 38.1057L110.202 155.125L4.00097 139.371L24.6758 0L111.664 12.9042L127.561 38.1057Z" fill="white"/>
<path d="M106.329 83.1658L80.6059 79.3499C78.485 79.0353 76.5106 80.4996 76.1959 82.6205L72.7881 105.593C72.4735 107.714 73.9378 109.688 76.0587 110.003L101.782 113.819C103.903 114.133 105.877 112.669 106.192 110.548L109.6 87.5757C109.914 85.4548 108.45 83.4804 106.329 83.1658Z" fill="#4931AD"/>
<path d="M90.9635 105.946L80.6051 92.5052L84.6964 89.3521L91.459 98.1289L101.924 87.6187L105.584 91.2638L90.9635 105.946Z" fill="white"/>
<path d="M100.864 43.1744L46.501 35.11C46.2388 35.0701 46.0031 34.9282 45.8452 34.7152C45.6873 34.5023 45.6199 34.2355 45.6578 33.9731C45.6974 33.7109 45.8392 33.475 46.0522 33.317C46.2653 33.159 46.5322 33.0918 46.7947 33.13L101.158 41.1945C101.421 41.2338 101.657 41.3755 101.815 41.5886C101.973 41.8017 102.041 42.0688 102.002 42.3315C101.962 42.5938 101.82 42.8297 101.607 42.9876C101.394 43.1456 101.127 43.2127 100.864 43.1744Z" fill="#75ACF2"/>
<path d="M75.5166 56.5133L30.1941 49.79C29.9312 49.7503 29.6947 49.6082 29.5363 49.3946C29.3779 49.181 29.3105 48.9134 29.3489 48.6503C29.3885 48.3874 29.5307 48.1508 29.7443 47.9924C29.9579 47.834 30.2255 47.7667 30.4886 47.805L75.8149 54.5289C76.0781 54.5683 76.3149 54.7103 76.4736 54.924C76.6323 55.1376 76.6998 55.4055 76.6614 55.6688C76.6213 55.9325 76.4782 56.1694 76.2636 56.3277C76.049 56.4861 75.7804 56.5528 75.5166 56.5133Z" fill="#CFE6FF"/>
<path d="M112.385 61.9824L80.9376 57.3174C80.6745 57.2777 80.4379 57.1355 80.2793 56.9219C80.1207 56.7084 80.053 56.4407 80.091 56.1774C80.1308 55.9143 80.2731 55.6776 80.487 55.5192C80.7008 55.3608 80.9688 55.2936 81.232 55.3324L112.68 59.9974C112.943 60.0371 113.179 60.1793 113.338 60.3929C113.496 60.6064 113.563 60.874 113.525 61.1372C113.485 61.3999 113.343 61.6362 113.129 61.7946C112.916 61.9529 112.648 62.0204 112.385 61.9824Z" fill="#CFE6FF"/>
<path d="M63.1202 47.5085L31.233 42.7783C30.9701 42.7386 30.7336 42.5964 30.5752 42.3828C30.4168 42.1693 30.3494 41.9017 30.3877 41.6385C30.4271 41.3753 30.5692 41.1385 30.7828 40.9798C30.9965 40.8212 31.2643 40.7536 31.5277 40.792L63.4186 45.5228C63.6816 45.5625 63.9181 45.7047 64.0765 45.9183C64.2349 46.1319 64.3023 46.3995 64.2639 46.6626C64.2444 46.7932 64.1993 46.9187 64.1312 47.032C64.0632 47.1452 63.9735 47.2439 63.8673 47.3224C63.7611 47.401 63.6404 47.4579 63.5123 47.4898C63.3841 47.5217 63.2509 47.5281 63.1202 47.5085Z" fill="#CFE6FF"/>
<path d="M93.4416 52.0067L68.784 48.3489C68.5211 48.3092 68.2845 48.1671 68.1261 47.9535C67.9677 47.7399 67.9004 47.4723 67.9387 47.2092C67.9784 46.9463 68.1206 46.7097 68.3341 46.5513C68.5477 46.3929 68.8153 46.3256 69.0784 46.3639L93.736 50.0217C93.999 50.0614 94.2355 50.2036 94.3939 50.4171C94.5523 50.6307 94.6196 50.8983 94.5813 51.1614C94.5416 51.4244 94.3994 51.6609 94.1859 51.8193C93.9723 51.9777 93.7047 52.0451 93.4416 52.0067Z" fill="#CFE6FF"/>
<path d="M113.425 54.9709L98.2605 52.7213C97.9976 52.6817 97.7611 52.5395 97.6027 52.3259C97.4443 52.1123 97.3769 51.8447 97.4153 51.5816C97.455 51.3187 97.5971 51.0822 97.8107 50.9238C98.0243 50.7654 98.2919 50.698 98.555 50.7363L113.72 52.9859C113.983 53.0256 114.219 53.1678 114.377 53.3814C114.536 53.5949 114.603 53.8625 114.565 54.1257C114.525 54.3886 114.383 54.6251 114.169 54.7835C113.956 54.9419 113.688 55.0093 113.425 54.9709Z" fill="#CFE6FF"/>
<path d="M61.0384 61.532L29.1512 56.8017C28.8882 56.762 28.6517 56.6199 28.4933 56.4063C28.3349 56.1927 28.2675 55.9251 28.3059 55.662C28.3456 55.3991 28.4877 55.1626 28.7013 55.0042C28.9149 54.8458 29.1825 54.7784 29.4456 54.8167L61.3366 59.5476C61.5995 59.5872 61.8361 59.7294 61.9945 59.943C62.1529 60.1566 62.2202 60.4242 62.1819 60.6873C62.1421 60.9509 61.9993 61.1879 61.7849 61.3463C61.5705 61.5047 61.302 61.5715 61.0384 61.532Z" fill="#CFE6FF"/>
<path d="M91.3634 66.0302L66.7059 62.3723C66.4431 62.3323 66.2068 62.1901 66.0484 61.9766C65.8901 61.7631 65.8226 61.4957 65.8606 61.2326C65.9003 60.9697 66.0424 60.7332 66.256 60.5748C66.4696 60.4164 66.7372 60.349 67.0003 60.3873L91.6579 64.0451C91.9208 64.0848 92.1573 64.227 92.3157 64.4406C92.4741 64.6542 92.5415 64.9218 92.5032 65.1849C92.4635 65.4478 92.3213 65.6843 92.1077 65.8427C91.8942 66.0011 91.6266 66.0685 91.3634 66.0302Z" fill="#CFE6FF"/>
<path d="M111.343 68.9944L96.1785 66.7448C95.9157 66.7048 95.6794 66.5626 95.5211 66.3491C95.3627 66.1356 95.2952 65.8682 95.3332 65.6051C95.3729 65.3422 95.5151 65.1057 95.7287 64.9473C95.9422 64.7889 96.2098 64.7215 96.473 64.7598L111.638 67.0094C111.9 67.0491 112.137 67.1913 112.295 67.4049C112.454 67.6184 112.521 67.886 112.483 68.1491C112.443 68.4119 112.301 68.6482 112.087 68.8066C111.874 68.9649 111.606 69.0324 111.343 68.9944Z" fill="#CFE6FF"/>
<path d="M63.3873 74.3922L27.316 69.0412C26.7769 68.9613 26.275 69.3335 26.195 69.8725L26.1902 69.9053C26.1102 70.4444 26.4824 70.9463 27.0215 71.0262L63.0928 76.3772C63.6319 76.4572 64.1338 76.085 64.2138 75.5459L64.2186 75.5131C64.2986 74.974 63.9264 74.4722 63.3873 74.3922Z" fill="#CFE6FF"/>
<path d="M59.9681 68.749L28.0809 64.0188C27.8179 63.9791 27.5814 63.8369 27.423 63.6233C27.2646 63.4098 27.1972 63.1422 27.2356 62.879C27.2753 62.6161 27.4174 62.3796 27.631 62.2212C27.8446 62.0628 28.1122 61.9954 28.3753 62.0338L60.2663 66.7646C60.5292 66.8043 60.7657 66.9465 60.9241 67.16C61.0825 67.3736 61.1499 67.6412 61.1116 67.9043C61.0718 68.1679 60.929 68.4049 60.7146 68.5633C60.5002 68.7217 60.2317 68.7885 59.9681 68.749Z" fill="#CFE6FF"/>
<path d="M90.2931 73.2472L65.6355 69.5894C65.3728 69.5494 65.1365 69.4071 64.9781 69.1936C64.8198 68.9801 64.7523 68.7127 64.7903 68.4497C64.83 68.1867 64.9721 67.9502 65.1857 67.7918C65.3993 67.6334 65.6669 67.566 65.93 67.6044L90.5876 71.2622C90.8505 71.3019 91.087 71.444 91.2454 71.6576C91.4038 71.8712 91.4712 72.1388 91.4329 72.4019C91.3932 72.6648 91.251 72.9014 91.0374 73.0598C90.8238 73.2182 90.5562 73.2855 90.2931 73.2472Z" fill="#CFE6FF"/>
<path d="M110.273 76.2115L95.1082 73.9619C94.8454 73.9219 94.6091 73.7796 94.4508 73.5661C94.2924 73.3526 94.2249 73.0852 94.2629 72.8222C94.3026 72.5592 94.4448 72.3227 94.6584 72.1643C94.8719 72.0059 95.1395 71.9385 95.4027 71.9769L110.567 74.2265C110.83 74.2661 111.067 74.4083 111.225 74.6219C111.383 74.8355 111.451 75.1031 111.413 75.3662C111.373 75.629 111.23 75.8653 111.017 76.0236C110.803 76.1819 110.536 76.2495 110.273 76.2115Z" fill="#CFE6FF"/>
<path d="M24.9983 85.5204L50.5892 89.3166C50.793 89.3458 51.0001 89.2933 51.1654 89.1705C51.3307 89.0477 51.4408 88.8646 51.4716 88.661C51.5012 88.4572 51.449 88.25 51.3265 88.0845C51.204 87.9191 51.021 87.8087 50.8175 87.7775L25.2266 83.9812C25.0226 83.9516 24.8152 84.004 24.6496 84.1267C24.4841 84.2495 24.3738 84.4328 24.3429 84.6366C24.3133 84.8406 24.3656 85.048 24.4884 85.2136C24.6112 85.3792 24.7945 85.4894 24.9983 85.5204Z" fill="#CFE6FF"/>
<path d="M23.3811 96.4152L48.972 100.211C49.1758 100.241 49.3829 100.188 49.5482 100.065C49.7135 99.9426 49.8236 99.7594 49.8544 99.5559C49.884 99.3521 49.8318 99.1449 49.7093 98.9794C49.5868 98.8139 49.4038 98.7035 49.2003 98.6723L23.6094 94.8761C23.4054 94.8465 23.198 94.8988 23.0324 95.0216C22.8669 95.1444 22.7566 95.3277 22.7257 95.5315C22.6961 95.7355 22.7484 95.9429 22.8712 96.1084C22.994 96.274 23.1773 96.3843 23.3811 96.4152Z" fill="#CFE6FF"/>
<path d="M25.8071 80.0855L38.1869 81.922C38.3907 81.9515 38.598 81.8992 38.7634 81.7763C38.9288 81.6535 39.0388 81.4701 39.0693 81.2664C39.0992 81.0627 39.0471 80.8554 38.9245 80.69C38.8018 80.5247 38.6186 80.4146 38.415 80.3841L26.0352 78.5476C25.8314 78.5177 25.624 78.5698 25.4584 78.6923C25.2928 78.8149 25.1825 78.9981 25.1517 79.2018C25.1221 79.4058 25.1744 79.6132 25.2972 79.7788C25.42 79.9443 25.6033 80.0546 25.8071 80.0855Z" fill="#CFE6FF"/>
<path d="M24.1938 90.9513L36.5736 92.7878C36.7775 92.8174 36.9848 92.765 37.1501 92.6422C37.3155 92.5193 37.4255 92.336 37.456 92.1322C37.4856 91.9286 37.4334 91.7215 37.3108 91.5562C37.1882 91.3909 37.0052 91.2808 36.8017 91.2499L24.4219 89.4135C24.2181 89.3839 24.0109 89.4361 23.8454 89.5586C23.68 89.6811 23.5696 89.8641 23.5384 90.0676C23.5088 90.2716 23.5611 90.479 23.6839 90.6446C23.8067 90.8102 23.99 90.9204 24.1938 90.9513Z" fill="#CFE6FF"/>
<path d="M22.5883 101.768L34.9681 103.605C35.1718 103.634 35.3791 103.582 35.5445 103.46C35.7098 103.337 35.8198 103.154 35.8504 102.95C35.8803 102.746 35.8283 102.539 35.7057 102.373C35.5831 102.208 35.3999 102.098 35.1962 102.067L22.8164 100.23C22.6124 100.201 22.405 100.253 22.2395 100.376C22.0739 100.499 21.9636 100.682 21.9327 100.886C21.9032 101.09 21.9555 101.297 22.0784 101.462C22.2012 101.628 22.3846 101.738 22.5883 101.768Z" fill="#CFE6FF"/>
</g>
<defs>
<filter id="filter0_di_1472_10003" x="0.970958" y="0" width="129.621" height="161.185" filterUnits="userSpaceOnUse" color-interpolation-filters="sRGB">
<feFlood flood-opacity="0" result="BackgroundImageFix"/>
<feColorMatrix in="SourceAlpha" type="matrix" values="0 0 0 0 0 0 0 0 0 0 0 0 0 0 0 0 0 0 127 0" result="hardAlpha"/>
<feOffset dy="3.03002"/>
<feGaussianBlur stdDeviation="1.51501"/>
<feComposite in2="hardAlpha" operator="out"/>
<feColorMatrix type="matrix" values="0 0 0 0 0 0 0 0 0 0 0 0 0 0 0 0 0 0 0.25 0"/>
<feBlend mode="normal" in2="BackgroundImageFix" result="effect1_dropShadow_1472_10003"/>
<feBlend mode="normal" in="SourceGraphic" in2="effect1_dropShadow_1472_10003" result="shape"/>
<feColorMatrix in="SourceAlpha" type="matrix" values="0 0 0 0 0 0 0 0 0 0 0 0 0 0 0 0 0 0 127 0" result="hardAlpha"/>
<feOffset dy="3.03002"/>
<feGaussianBlur stdDeviation="1.51501"/>
<feComposite in2="hardAlpha" operator="arithmetic" k2="-1" k3="1"/>
<feColorMatrix type="matrix" values="0 0 0 0 0 0 0 0 0 0 0 0 0 0 0 0 0 0 0.1 0"/>
<feBlend mode="normal" in2="shape" result="effect2_innerShadow_1472_10003"/>
</filter>
</defs>
</svg>
