<svg width="658" height="594" viewBox="0 0 658 594" fill="none" xmlns="http://www.w3.org/2000/svg">
<path d="M443.119 204.895C398.055 162.62 345.271 151.721 331.306 149.494C340.709 124.117 355.229 86.3942 358.846 80.7984C361.186 80.5187 363.541 80.3885 365.897 80.4086C376.162 80.4086 398.096 82.5383 429.878 96.8341C475.457 117.352 487.92 140.696 490.395 146.389L443.119 204.895Z" fill="white"/>
<path d="M365.911 83.1926C375.94 83.1926 397.429 85.2945 428.696 99.3676C470.172 118.048 483.566 138.928 487.113 145.986L442.841 200.831C420.951 181.121 395.396 165.918 367.636 156.092C357.047 152.296 346.173 149.349 335.117 147.28C345.493 119.357 356.801 90.5981 360.584 83.4154C361.822 83.2901 363.602 83.1926 365.925 83.1926M365.925 77.6246C363.099 77.5653 360.274 77.761 357.483 78.2093C354.214 79.2951 327.523 151.763 327.523 151.763C327.523 151.763 390.892 158.235 443.411 209.002L493.483 146.891C493.483 146.891 485.138 118.689 430.893 94.2869C399.153 79.991 377.024 77.5829 365.828 77.5829L365.925 77.6246Z" fill="#A0C6F4"/>
<path d="M336.814 157.4C336.814 157.4 399.126 163.692 437.528 198.965" stroke="white" stroke-linecap="round" stroke-linejoin="round"/>
<path d="M390.614 154.352L413.855 109.112L437.751 156.301L390.614 154.352Z" fill="#A0C6F4"/>
<path d="M395.134 153.711L418.375 108.471L442.271 155.646L395.134 153.711Z" stroke="white" stroke-linecap="round" stroke-linejoin="round"/>
<path d="M373.325 74.8685C373.325 74.8685 443.189 81.1742 486.612 132.831" stroke="white" stroke-linecap="round" stroke-linejoin="round"/>
<path d="M409.015 275.344C405.176 272.56 402.658 270.625 402.658 270.625C403.729 269.233 420.545 251.277 430.267 236.842C430.267 236.842 410.586 276.5 409.015 275.344Z" fill="white"/>
<path d="M170.743 144.677C172.607 147.795 173.441 146.556 178.852 146.139C184.262 145.721 191.954 149.675 194.666 156.342C197.378 163.01 196.53 164.04 195.083 164.875C193.637 165.71 183.219 166.949 182.802 169.051" stroke="white" stroke-linecap="round" stroke-linejoin="round"/>
<path d="M310.93 483.574L306.09 475.375L288.884 504.064L293.405 507.544L310.93 483.574Z" fill="#F9865F"/>
<path d="M196.752 412.442C196.752 412.442 187.851 397.938 191.662 390.839L220.091 393.887L196.752 412.442Z" fill="#F9865F"/>
<path d="M196.752 412.442L198.463 416.354L193.206 436.858C192.884 438.124 192.921 439.454 193.311 440.701C193.702 441.947 194.431 443.06 195.417 443.916V443.916L221.413 405.455C222.61 403.687 223.135 401.548 222.893 399.426C222.65 397.304 221.656 395.339 220.091 393.887L214.291 388.486L196.752 412.442Z" fill="black"/>
<path d="M182.844 168.995C190.98 168.801 201.301 168.286 199.242 162.035C197.184 155.785 189.506 140.348 171.897 144.997C171.897 144.997 165.708 150.162 173.455 159.46C181.202 168.759 182.844 168.995 182.844 168.995Z" fill="#2A1E33"/>
<path d="M224.055 394.221C224.055 394.221 210.146 353.171 221.913 335.131C231.649 320.25 263.32 344.457 267.673 347.659L290.359 306.72C290.359 306.72 285.115 299.37 272.277 292.174C259.439 284.977 206.294 263.429 181.341 302.85C172.106 317.411 171.967 379.925 189.687 403.882L224.055 394.221Z" fill="#7595EC"/>
<path d="M224.055 394.221C224.055 394.221 210.146 353.171 221.913 335.131C231.65 320.25 263.32 344.457 267.673 347.659" stroke="white" stroke-linecap="round" stroke-linejoin="round"/>
<path d="M290.359 306.72C280.038 317.578 249.439 370.529 242.568 395.808C233.36 429.647 236.824 457.724 287.396 512.736L311.848 477.101C311.848 477.101 294.657 450.973 297.87 426.348C302.501 390.727 327.829 356.192 340.653 334.295L290.359 306.72Z" fill="#7595EC"/>
<path d="M294.225 311.328L334.895 343.26L347.051 324.774L294.225 311.328Z" fill="white"/>
<path d="M527.796 277.739C534.139 279.093 538.97 281.511 542.289 284.991C545.613 288.457 544.097 290.281 542.887 291.338C541.677 292.396 537.004 291.185 532.929 287.552C528.853 283.919 527.796 277.739 527.796 277.739Z" fill="#FF8A66"/>
<path d="M402.658 270.612C403.729 269.22 420.545 251.263 430.268 236.828C430.268 236.828 459.698 269.818 462.884 270.876C464.08 271.28 471.229 271.182 480.242 271.085C495.389 270.932 515.501 270.779 519.965 273.006C527.045 276.555 531.301 278.337 533.081 283.293C534.862 288.248 535.543 291.505 531.301 291.812C526.336 292.174 523.151 285.784 523.151 285.784C518.485 288.301 513.624 290.437 508.616 292.174C508.616 292.174 470.909 306.817 445.706 299.732C438.835 297.811 402.658 270.612 402.658 270.612Z" fill="#F9865F"/>
<path d="M174.109 138.845C170.868 140.084 168.907 141.559 170.785 144.677C172.662 147.795 173.483 146.557 178.893 146.139C184.304 145.721 191.996 149.675 194.708 156.342C197.42 163.01 196.572 164.04 195.125 164.875C193.679 165.71 183.261 166.949 182.844 169.051C182.426 171.153 187.016 177.278 196.627 176.86L198.922 176.443C198.922 176.443 219.048 196.126 221.955 199.035C224.862 201.944 246.282 216.463 258.118 219.414C267.075 221.655 285.226 218.76 296.145 216.63C301.444 215.6 305.032 214.751 305.032 214.751C305.032 214.751 296.84 199.981 295.185 177.292C295.185 177.292 275.588 180.438 262.569 183.291C262.569 183.291 232.192 166.351 217.421 158.848C217.421 158.848 204.527 143.021 198.491 140.947C192.455 138.873 178.476 137.174 174.109 138.845Z" fill="#F9865F"/>
<path d="M296.103 216.616C301.402 215.586 304.991 214.737 304.991 214.737C304.991 214.737 295.088 202.209 293.419 179.533C293.419 179.533 288.94 184.363 290.331 197.225C292.083 213.373 296.103 216.616 296.103 216.616Z" fill="white"/>
<path d="M292.946 177C292.946 177 293.21 204.728 300.637 216.296L303.308 215.238C303.308 215.238 268.313 256.204 256.977 282.973C255.114 287.343 329.609 334.978 340.625 334.309C340.625 334.309 376.913 278.866 389.306 262.427L402.645 272.769C402.645 272.769 428.807 246.321 430.212 236.842C430.212 236.842 404.939 206.051 384.313 197.044C363.686 188.038 345.145 172.587 322.933 173.005C303.725 173.366 292.946 177 292.946 177Z" fill="#FFF7C9"/>
<path d="M402.7 272.783L389.348 262.427L391.476 256.636L402.7 272.783Z" fill="white"/>
<path d="M422.993 163.107C420.657 170.374 413.911 191.407 406.386 194.01C398.862 196.613 391.087 193.342 391.087 193.342L383.075 197.518C382.171 200.204 375.843 202.515 367.678 202.835C361.628 203.058 357.942 195.29 359.736 189.667C360.557 187.078 363.631 174.355 363.631 174.355C363.631 174.355 370.112 150.468 376.148 145.526C382.185 140.585 387.735 135.713 403.66 142.158C427.917 151.943 422.993 163.107 422.993 163.107Z" fill="#F9865F"/>
<path d="M374.646 164.137C373.575 168.606 368.93 177.542 365.897 175.928C362.865 174.313 361.794 170.22 363.936 162.356C366.078 154.491 367.859 136.645 373.923 133.43C379.987 130.214 382.671 133.959 382.671 133.959C382.671 133.959 380.001 120.916 387.846 119.134C387.846 119.134 390.516 117.881 389.459 126.818C390.497 124.366 392.324 122.331 394.65 121.037C396.976 119.743 399.668 119.264 402.297 119.677C412.116 120.749 415.51 134.502 415.51 134.502C415.787 133.363 416.46 132.36 417.407 131.671C418.355 130.983 419.517 130.654 420.684 130.743C425.149 130.743 431.923 137.355 430.323 144.663C430.323 144.663 441.728 141.086 447.806 150.231C453.885 159.377 453.161 169.33 438.529 173.269C423.23 177.445 423.355 159.516 421.032 157.191C418.709 154.867 416.22 152.194 407.652 155.41C399.084 158.625 390.168 149.16 390.168 149.16C390.168 149.16 388.777 160.588 387.387 161.688C385.996 162.787 383.103 164.179 383.812 158.82C384.521 153.461 385.411 154.004 384.883 152.57C384.354 151.136 381.934 146.64 376.858 150.607C371.03 155.076 374.646 164.137 374.646 164.137Z" fill="#2A1E33"/>
<path d="M377.066 166.211C373.672 163.344 371.308 158.305 374.284 153.266C377.261 148.227 382.185 147.545 383.687 149.452C385.189 151.359 385.759 154.574 384.354 158.388" stroke="#2A1E33" stroke-linecap="round" stroke-linejoin="round"/>
<path d="M293.405 507.53L295.115 511.455L289.858 531.946C289.537 533.211 289.573 534.542 289.964 535.788C290.354 537.034 291.083 538.148 292.069 539.003V539.003L318.065 500.542C319.262 498.774 319.787 496.635 319.545 494.513C319.302 492.391 318.309 490.427 316.744 488.975L310.944 483.588L293.405 507.53Z" fill="black"/>
<path d="M382.672 133.959C382.672 133.959 380.683 127.486 374.716 125.774" stroke="#2A1E33" stroke-linecap="round" stroke-linejoin="round"/>
<path d="M256.185 281.01L328.205 180.326" stroke="white" stroke-linecap="round" stroke-linejoin="round"/>
<path d="M357.886 187.37C355.299 190.739 354.117 205.271 366.05 206.218C372.864 206.899 379.719 205.393 385.62 201.916" stroke="white" stroke-linecap="round" stroke-linejoin="round"/>
<path d="M275.059 325.345L264.363 345.78C264.363 345.78 229.257 405.232 241.163 443.651" stroke="white" stroke-linecap="round" stroke-linejoin="round"/>
<path d="M306.104 393.567L340.653 334.309C340.653 334.309 385.926 268.593 390.558 259.309L406.539 229.729" stroke="white" stroke-linecap="round" stroke-linejoin="round"/>
<path d="M261.011 287.316C261.011 287.316 322.432 332.124 340.653 334.296" stroke="white" stroke-linecap="round" stroke-linejoin="round"/>
<path d="M292.946 177C292.946 177 292.946 205.132 300.471 216.658" stroke="white" stroke-linecap="round" stroke-linejoin="round"/>
<path d="M428.306 232.373C426.373 243.969 400.725 268.315 400.725 268.315" stroke="white" stroke-linecap="round" stroke-linejoin="round"/>
<path d="M236.963 376.765C238.975 376.765 240.607 375.133 240.607 373.118C240.607 371.104 238.975 369.471 236.963 369.471C234.95 369.471 233.319 371.104 233.319 373.118C233.319 375.133 234.95 376.765 236.963 376.765Z" fill="white"/>
<path d="M579.175 451.558L577.159 437.596L589.065 445.516L582.833 446.88L579.175 451.558Z" stroke="white" stroke-linecap="round" stroke-linejoin="round"/>
<path d="M184.54 213.191C161.98 193.286 124.732 242.938 261.039 400.986C339.693 492.148 401.518 500.333 409.863 468.61C424.885 411.705 370.64 397.325 390.822 419.611C420.17 452.017 503.65 458.866 565.851 428.617C627.23 398.787 589.496 352.433 585.698 349.733" stroke="white" stroke-linecap="round" stroke-linejoin="round"/>
<path d="M566.866 431.986C568.879 431.986 570.51 430.353 570.51 428.339C570.51 426.325 568.879 424.692 566.866 424.692C564.853 424.692 563.222 426.325 563.222 428.339C563.222 430.353 564.853 431.986 566.866 431.986Z" fill="white"/>
<path d="M513.79 458.142L621.917 397.144" stroke="white" stroke-linecap="round" stroke-linejoin="round"/>
<path d="M186.78 219.803C188.792 219.803 190.424 218.171 190.424 216.156C190.424 214.142 188.792 212.509 186.78 212.509C184.767 212.509 183.136 214.142 183.136 216.156C183.136 218.171 184.767 219.803 186.78 219.803Z" fill="white"/>
<path d="M279.788 148.631C284.113 148.631 287.619 145.122 287.619 140.794C287.619 136.465 284.113 132.957 279.788 132.957C275.463 132.957 271.957 136.465 271.957 140.794C271.957 145.122 275.463 148.631 279.788 148.631Z" fill="#FF6D66"/>
<path d="M137.793 81.049C137.11 81.0462 136.441 81.2467 135.871 81.6249C135.302 82.0032 134.858 82.5422 134.595 83.1736C134.332 83.805 134.263 84.5003 134.395 85.1712C134.528 85.8421 134.857 86.4585 135.34 86.9421C135.823 87.4258 136.439 87.7548 137.11 87.8876C137.78 88.0203 138.475 87.9508 139.106 87.6878C139.736 87.4248 140.275 86.9802 140.653 86.4104C141.031 85.8405 141.231 85.1711 141.228 84.4872C141.228 83.5753 140.867 82.7008 140.222 82.056C139.578 81.4112 138.704 81.049 137.793 81.049V81.049Z" fill="#A0C6F4"/>
<path d="M598.717 508.644C600.615 508.644 602.153 507.104 602.153 505.205C602.153 503.306 600.615 501.767 598.717 501.767C596.82 501.767 595.282 503.306 595.282 505.205C595.282 507.104 596.82 508.644 598.717 508.644Z" fill="#FAD8B0"/>
<path d="M537.268 349.719L500.284 332.347C499.622 332.033 499.064 331.536 498.675 330.915C498.287 330.293 498.085 329.573 498.094 328.84C498.103 328.107 498.322 327.392 498.725 326.78C499.128 326.167 499.698 325.684 500.368 325.387L569.175 295.083C569.658 294.873 570.178 294.765 570.705 294.765C571.231 294.765 571.752 294.873 572.235 295.083L619.525 315.392L537.268 349.719Z" fill="#2A1E33"/>
<path d="M534.973 292.633C535.071 307.945 537.268 349.705 537.268 349.705L619.483 315.336L617.647 257.207C617.617 256.385 617.386 255.583 616.974 254.872C616.561 254.161 615.98 253.563 615.282 253.13C614.584 252.696 613.79 252.442 612.97 252.388C612.15 252.334 611.33 252.483 610.581 252.822L539.786 285.102C538.344 285.76 537.122 286.82 536.268 288.156C535.414 289.492 534.965 291.047 534.973 292.633V292.633Z" fill="#C6CBCB"/>
<path d="M537.268 349.719L619.483 315.35L617.647 257.221C617.647 257.221 617.091 250.873 610.582 252.836" stroke="white" stroke-linecap="round" stroke-linejoin="round"/>
<path d="M577.047 307.945L582.611 294.818" stroke="white" stroke-linecap="round" stroke-linejoin="round"/>
<path d="M582.611 307.945L588.161 294.818" stroke="white" stroke-linecap="round" stroke-linejoin="round"/>
<path d="M152.62 451.182C154.517 451.182 156.055 449.642 156.055 447.743C156.055 445.845 154.517 444.305 152.62 444.305C150.722 444.305 149.184 445.845 149.184 447.743C149.184 449.642 150.722 451.182 152.62 451.182Z" fill="#FF6D66"/>
<path d="M442.66 469.598C445.303 469.598 447.445 467.454 447.445 464.809C447.445 462.165 445.303 460.021 442.66 460.021C440.018 460.021 437.876 462.165 437.876 464.809C437.876 467.454 440.018 469.598 442.66 469.598Z" fill="#FF6D66"/>
<path d="M188.268 498.788C201.888 505.048 216.718 508.232 231.705 508.115C231.983 508.112 232.259 508.17 232.513 508.283C232.767 508.396 232.994 508.563 233.179 508.771C233.363 508.979 233.501 509.225 233.583 509.491C233.664 509.757 233.688 510.038 233.652 510.314L230.648 534.159C230.6 534.573 230.42 534.961 230.135 535.264C229.849 535.568 229.473 535.771 229.063 535.843C222.984 536.985 198.463 540.353 180.076 524.777C179.798 524.535 179.595 524.22 179.489 523.868C179.384 523.516 179.379 523.141 179.478 522.786L185.542 500.055C185.614 499.777 185.747 499.518 185.931 499.297C186.115 499.076 186.346 498.899 186.606 498.778C186.867 498.657 187.151 498.595 187.438 498.597C187.726 498.599 188.009 498.664 188.268 498.788V498.788Z" fill="#FFF7DC"/>
<path d="M190.424 505.859C190.424 505.859 201.036 520.768 204.82 522.898C208.603 525.027 229.007 512.819 229.007 512.819" stroke="white" stroke-linecap="round" stroke-linejoin="round"/>
<path d="M214.806 520.768L225.947 532.224" stroke="white" stroke-linecap="round" stroke-linejoin="round"/>
<path d="M199.326 518.555L186.307 522.104" stroke="white" stroke-linecap="round" stroke-linejoin="round"/>
<path d="M529.382 216.783H516.933V229.241H529.382V216.783Z" fill="#FFE1C0"/>
<path d="M518.616 384.797L522.316 391.2L526.016 397.618H518.616H511.217L514.917 391.2L518.616 384.797Z" fill="#A0C6F4"/>
<path d="M219.507 100.704L220.467 71.5973C220.369 68.8829 221.468 68.0198 223.151 67.644C231.051 65.89 255.141 60.5448 281.193 68.2704C284.573 69.2587 284.461 71.0543 284.406 72.6691L283.474 100.412C283.406 100.932 283.23 101.433 282.957 101.881C282.684 102.329 282.32 102.715 281.889 103.014C281.458 103.313 280.969 103.518 280.454 103.617C279.939 103.715 279.409 103.705 278.898 103.585C269.429 102.451 259.891 101.986 250.357 102.193C241.187 102.155 232.029 102.895 222.984 104.407C220.397 104.963 219.424 102.987 219.507 100.704Z" stroke="white" stroke-linecap="round" stroke-linejoin="round"/>
<path d="M228.298 96.4585L243.5 78.6409L260.33 95.2195C254.53 93.3682 228.298 96.4585 228.298 96.4585Z" stroke="white" stroke-linecap="round" stroke-linejoin="round"/>
<path d="M252.819 86.8953L265.1 77.04L275.462 84.4454L275.852 96.0129L260.33 95.2752" stroke="white" stroke-linecap="round" stroke-linejoin="round"/>
<path d="M234.868 77.2868C235.009 75.887 233.791 74.6176 232.148 74.4514C230.505 74.2852 229.058 75.2853 228.917 76.685C228.776 78.0847 229.993 79.3542 231.636 79.5204C233.28 79.6865 234.726 78.6865 234.868 77.2868Z" stroke="white" stroke-linecap="round" stroke-linejoin="round"/>
<path d="M513.526 478.924L523.735 497.772C524.806 499.456 524.416 500.417 523.498 501.28C519.131 505.331 505.862 517.664 486.39 522.48C483.886 523.092 483.288 521.923 482.718 520.879L472.981 502.908C472.834 502.553 472.763 502.17 472.771 501.785C472.779 501.4 472.867 501.021 473.029 500.671C473.191 500.322 473.424 500.01 473.712 499.756C474.001 499.501 474.34 499.309 474.706 499.192C481.141 496.389 487.37 493.133 493.344 489.448C499.185 486.066 504.727 482.192 509.909 477.866C511.398 476.628 512.733 477.449 513.526 478.924Z" stroke="white" stroke-linecap="round" stroke-linejoin="round"/>
<path d="M509.52 484.896L506.488 501.864L489.617 497.508C494.012 496.603 509.52 484.896 509.52 484.896Z" stroke="white" stroke-linecap="round" stroke-linejoin="round"/>
<path d="M497.489 500.097L493.344 510.926L484.011 510.077L479.477 502.881L489.616 497.577" stroke="white" stroke-linecap="round" stroke-linejoin="round"/>
<path d="M515.141 500.4C516.245 499.895 516.793 498.726 516.365 497.789C515.938 496.852 514.696 496.502 513.592 497.007C512.488 497.512 511.94 498.681 512.368 499.618C512.796 500.554 514.037 500.905 515.141 500.4Z" stroke="white" stroke-linecap="round" stroke-linejoin="round"/>
<path d="M463.871 157.122L505.319 188.859C505.535 189.024 505.782 189.144 506.045 189.213C506.307 189.282 506.581 189.298 506.85 189.26C507.119 189.223 507.378 189.132 507.611 188.994C507.845 188.856 508.05 188.673 508.212 188.456L514.458 179.964C514.767 179.543 514.902 179.018 514.834 178.5C514.767 177.981 514.502 177.509 514.096 177.18L473.246 144.455C473.027 144.283 472.777 144.157 472.509 144.085C472.241 144.012 471.961 143.994 471.686 144.032C471.411 144.069 471.146 144.162 470.908 144.304C470.669 144.446 470.461 144.634 470.297 144.858L463.454 154.31C463.153 154.744 463.028 155.276 463.105 155.799C463.183 156.321 463.457 156.794 463.871 157.122Z" fill="white" stroke="white" stroke-linecap="round" stroke-linejoin="round"/>
<path d="M466.931 155.702L476.987 162.759L482.912 155.674L472.87 147.294L466.931 155.702Z" fill="#FF6D66"/>
<path d="M480.77 165.516L490.826 173.506L496.223 166.866L486.097 158.639L480.77 165.516Z" fill="#FAD8B0"/>
<path d="M494.22 176.568L504.263 183.625L509.061 177.473L499.534 169.497L494.22 176.568Z" fill="#A0C6F4"/>
<path d="M546.559 112.731L556.017 192.158C556.062 192.577 556.189 192.982 556.393 193.35C556.597 193.717 556.872 194.041 557.203 194.3C557.533 194.56 557.913 194.75 558.318 194.861C558.724 194.971 559.147 194.999 559.564 194.942L575.489 192.66C576.293 192.552 577.023 192.136 577.527 191.5C578.03 190.864 578.267 190.057 578.188 189.249L570.44 109.432C570.396 109.011 570.267 108.603 570.062 108.233C569.857 107.864 569.579 107.539 569.245 107.279C568.911 107.019 568.528 106.829 568.12 106.721C567.711 106.612 567.284 106.588 566.866 106.648L549.174 109.237C548.369 109.364 547.646 109.801 547.158 110.453C546.67 111.105 546.455 111.923 546.559 112.731V112.731Z" fill="white" stroke="white" stroke-linecap="round" stroke-linejoin="round"/>
<path d="M551.385 114.596L554.376 133.165L568.479 132.121L566.949 112.118L551.385 114.596Z" fill="#FF6D66"/>
<path d="M555.405 140.265L557.38 159.85L570.427 158.695L568.632 138.775L555.405 140.265Z" fill="#91BA83"/>
<path d="M557.631 166.852L560.621 185.435L572.485 184.113L571.066 165.14L557.631 166.852Z" fill="#FAD8B0"/>
<path d="M525.946 129.644L552.095 206.58C552.203 206.893 552.372 207.183 552.592 207.431C552.812 207.679 553.08 207.881 553.379 208.024C553.678 208.168 554.002 208.251 554.333 208.268C554.664 208.286 554.996 208.237 555.308 208.125L571.679 202.223C572.286 202.004 572.786 201.559 573.074 200.981C573.361 200.403 573.415 199.735 573.222 199.118L548.66 121.431C548.558 121.109 548.392 120.811 548.172 120.555C547.952 120.299 547.682 120.09 547.379 119.942C547.076 119.793 546.746 119.708 546.409 119.691C546.072 119.675 545.735 119.727 545.419 119.844L527.449 126.498C526.837 126.721 526.337 127.176 526.056 127.764C525.775 128.352 525.736 129.027 525.946 129.644V129.644Z" fill="white" stroke="white" stroke-linecap="round" stroke-linejoin="round"/>
<path d="M531.246 131.05L538.033 148.603L551.608 144.635L545.961 125.398L531.246 131.05Z" fill="#A0C6F4"/>
<path d="M540.509 155.326L546.517 174.076L559.035 170.22L553.138 151.108L540.509 155.326Z" fill="#F9865F"/>
<path d="M548.214 180.869L555.002 198.408L566.337 194.65L561.01 176.401L548.214 180.869Z" fill="#FAD8B0"/>
<path d="M328.858 226.819H196.794C192.585 226.819 189.172 230.234 189.172 234.447V252.335C189.172 256.547 192.585 259.963 196.794 259.963H328.858C333.068 259.963 336.48 256.547 336.48 252.335V234.447C336.48 230.234 333.068 226.819 328.858 226.819Z" fill="#7595EC"/>
<path d="M279.371 236.577H207.379C205.988 236.577 204.861 237.705 204.861 239.097C204.861 240.488 205.988 241.616 207.379 241.616H279.371C280.761 241.616 281.888 240.488 281.888 239.097C281.888 237.705 280.761 236.577 279.371 236.577Z" fill="white"/>
<path d="M205.584 248.159H327.968" stroke="white" stroke-linecap="round" stroke-linejoin="round"/>
<path d="M143.001 164.474L145.083 166.755C145.293 166.985 145.455 167.253 145.561 167.545C145.666 167.838 145.714 168.148 145.7 168.458C145.686 168.769 145.611 169.073 145.479 169.355C145.347 169.636 145.161 169.889 144.932 170.098L141.523 173.215C141.06 173.639 140.448 173.86 139.821 173.832C139.195 173.804 138.605 173.527 138.182 173.064L136.1 170.782L143.001 164.474Z" fill="#91BA83"/>
<path d="M124.207 160.025L134.028 170.786C134.536 171.342 135.398 171.381 135.954 170.873L142.742 164.668C143.298 164.16 143.337 163.297 142.829 162.74L133.007 151.98C132.5 151.423 131.638 151.384 131.082 151.893L124.294 158.098C123.738 158.606 123.699 159.469 124.207 160.025Z" stroke="white" stroke-linecap="round" stroke-linejoin="round"/>
<path d="M113.967 208.918H101.63V220.193H113.967V208.918Z" fill="#FF6D66"/>
<path d="M101.63 201.666V208.918H94.2444" stroke="white" stroke-linecap="round" stroke-linejoin="round"/>
<path d="M520.452 81.5918H508.115V92.867H520.452V81.5918Z" fill="#FAD8B0"/>
<path d="M508.115 74.3395V81.5919H500.73" stroke="white" stroke-linecap="round" stroke-linejoin="round"/>
<path d="M174.192 151.289C46.2312 98.2123 -52.2015 200.413 188.922 356.916C207.907 369.235 237.018 373.62 237.018 373.62" stroke="white" stroke-linecap="round" stroke-linejoin="round"/>
<path d="M56.5377 158.5C58.5502 158.5 60.1818 156.867 60.1818 154.853C60.1818 152.839 58.5502 151.206 56.5377 151.206C54.5251 151.206 52.8936 152.839 52.8936 154.853C52.8936 156.867 54.5251 158.5 56.5377 158.5Z" fill="white"/>
<path d="M33.3237 134.822L37.3156 130.98L46.4954 136.242L51.0992 150.482L37.0235 144.58L33.3237 134.822Z" stroke="white" stroke-linecap="round" stroke-linejoin="round"/>
<path d="M37.3156 130.98L33.3238 134.822L31.0845 132.107L34.9233 128.433L37.3156 130.98Z" stroke="white" stroke-linecap="round" stroke-linejoin="round"/>
<path d="M51.0992 150.482L41.9473 140.418" stroke="white" stroke-linecap="round" stroke-linejoin="round"/>
<path d="M73.2839 406.025L83.2287 457.293C83.28 457.56 83.3842 457.814 83.5349 458.041C83.6857 458.267 83.8802 458.461 84.1068 458.612C84.3335 458.762 84.5878 458.866 84.855 458.917C85.1221 458.967 85.3967 458.964 85.6627 458.908L95.9691 456.722C96.4869 456.611 96.942 456.305 97.2399 455.867C97.5378 455.428 97.6556 454.892 97.5687 454.37L88.6809 402.754C88.6329 402.481 88.5303 402.221 88.3793 401.988C88.2283 401.756 88.032 401.556 87.8021 401.402C87.5723 401.247 87.3136 401.14 87.0416 401.088C86.7695 401.036 86.4898 401.039 86.2191 401.098L74.8278 403.631C74.3117 403.754 73.8631 404.072 73.5755 404.518C73.2879 404.964 73.1834 405.504 73.2839 406.025V406.025Z" fill="white" stroke="white" stroke-linecap="round" stroke-linejoin="round"/>
<path d="M76.5107 407.014L79.3482 418.957L88.4862 417.607L86.5251 404.647L76.5107 407.014Z" fill="#FF6D66"/>
<path d="M80.3495 423.537L82.5749 436.19L91.0176 434.812L88.9034 421.922L80.3495 423.537Z" fill="#FAD8B0"/>
<path d="M83.0757 440.742L85.9131 452.699L93.5768 451.265L91.7408 438.988L83.0757 440.742Z" fill="#A0C6F4"/>
<path d="M357.969 534.535L399.988 523.273L401.588 527.825L359.096 538.864L357.969 534.535Z" stroke="white" stroke-linecap="round" stroke-linejoin="round"/>
<path d="M352.142 528.647L353.352 532.461" stroke="white" stroke-linecap="round" stroke-linejoin="round"/>
<path d="M350.959 531.138L354.506 529.913" stroke="white" stroke-linecap="round" stroke-linejoin="round"/>
<path d="M350.097 543.221L352.392 550.431" stroke="white" stroke-linecap="round" stroke-linejoin="round"/>
<path d="M348.15 547.8L354.464 545.782" stroke="white" stroke-linecap="round" stroke-linejoin="round"/>
<path d="M340.5 531.347L343.476 540.882" stroke="white" stroke-linecap="round" stroke-linejoin="round"/>
<path d="M337.537 537.277L346.383 534.451" stroke="white" stroke-linecap="round" stroke-linejoin="round"/>
<path d="M51.614 77.736L25.0203 65.7091L26.1191 62.6746L52.8657 74.9938L51.614 77.736Z" stroke="white" stroke-width="0.67" stroke-linecap="round" stroke-linejoin="round"/>
<path d="M52.1423 83.2623L53.1299 80.7567" stroke="white" stroke-width="0.67" stroke-linecap="round" stroke-linejoin="round"/>
<path d="M53.8114 82.4688L51.4608 81.5918" stroke="white" stroke-width="0.67" stroke-linecap="round" stroke-linejoin="round"/>
<path d="M59.3889 76.5528L61.2527 71.8478" stroke="white" stroke-width="0.67" stroke-linecap="round" stroke-linejoin="round"/>
<path d="M62.3375 75.0077L58.2065 73.379" stroke="white" stroke-width="0.67" stroke-linecap="round" stroke-linejoin="round"/>
<path d="M59.3333 86.8118L61.8229 80.5896" stroke="white" stroke-width="0.67" stroke-linecap="round" stroke-linejoin="round"/>
<path d="M63.3808 84.9883L57.5947 82.6915" stroke="white" stroke-width="0.67" stroke-linecap="round" stroke-linejoin="round"/>
<path d="M150.978 302.447C132.243 288.944 113.828 267.967 121.909 246.405C121.909 246.405 134.83 237.788 155.29 248.562L175.75 259.336L150.978 302.447Z" fill="#FAD8B0"/>
<path d="M142.48 392.412C134.051 388.43 98.0415 369.666 91.6434 337.608C86.0799 309.908 107.263 272.574 117.875 256.079C117.194 277.975 139.156 296.447 149.754 304.145C158.776 310.784 168.732 316.048 179.297 319.763L142.48 392.412Z" fill="white"/>
<path d="M116.262 262.594C118.557 277.14 129.656 292.229 148.545 305.843C157.064 312.143 166.429 317.208 176.362 320.891L141.59 389.641C130.978 384.338 99.5577 366.395 93.7299 337.205C88.8618 312.887 105.344 280.62 116.304 262.594M121.951 246.405C121.951 246.405 82.1021 300.303 89.6407 338.026C97.1793 375.749 143.482 395.098 143.482 395.098L182.26 318.538C170.131 314.084 162.273 310.464 151.02 302.363C132.285 288.861 113.87 267.883 121.951 246.321V246.405Z" fill="#FAD8B0"/>
<path d="M111.422 277.725C112.592 284.737 115.362 291.385 119.515 297.152C123.669 302.92 129.096 307.651 135.373 310.98" stroke="white" stroke-linecap="round" stroke-linejoin="round"/>
<path d="M146.959 318.705L168.587 330.3" stroke="white" stroke-linecap="round" stroke-linejoin="round"/>
<path d="M114.51 308.655C114.51 308.655 121.464 324.106 143.871 334.17" stroke="white" stroke-linecap="round" stroke-linejoin="round"/>
<path d="M96.748 310.979C96.748 310.979 97.5131 327.224 108.334 332.625" stroke="white" stroke-linecap="round" stroke-linejoin="round"/>
<path d="M121.464 254.534C121.464 254.534 119.461 275.414 150.978 302.447" stroke="white" stroke-linecap="round" stroke-linejoin="round"/>
<path d="M133.05 258.39C133.05 258.39 143.092 257.624 157.78 268.44" stroke="white" stroke-linecap="round" stroke-linejoin="round"/>
<path d="M85.8991 324.969C85.2454 335.312 86.5389 372.784 140.783 396.699" stroke="white" stroke-linecap="round" stroke-linejoin="round"/>
<path d="M432.229 304.117L409.224 350.262C409.224 350.262 424.829 356.011 412.617 373.926C412.617 373.926 441.464 385.897 460.338 354.8C479.213 323.702 432.229 304.117 432.229 304.117Z" fill="#91BA83"/>
<path d="M379.542 445.14C367.9 445.14 355.605 440.394 342.99 430.998L386.037 359.699L411.63 375.833L411.797 375.902C416.273 377.544 421.008 378.365 425.775 378.324C433.861 378.37 441.757 375.872 448.349 371.183L416.929 424.998C416.818 425.123 403.27 445.14 379.542 445.14Z" fill="white"/>
<path d="M386.719 362.484L410.364 377.392L410.656 377.573L410.99 377.712C415.716 379.465 420.721 380.342 425.761 380.301C431.562 380.325 437.302 379.12 442.605 376.765L415.149 423.759C414.231 425.151 401.365 442.997 379.528 442.997C368.804 442.997 357.455 438.821 345.758 430.385L386.719 362.484ZM460.311 354.73C449.643 372.297 435.803 376.125 425.775 376.125C421.28 376.162 416.814 375.394 412.589 373.856L385.342 356.679L340.236 431.527C355.341 443.178 368.512 447.229 379.542 447.229C404.745 447.229 418.695 426.042 418.695 426.042L460.311 354.786V354.73Z" fill="#96BD89"/>
<path d="M409.196 350.262C409.196 350.262 426.345 356.331 412.589 373.926" stroke="white" stroke-linecap="round" stroke-linejoin="round"/>
<path d="M384.813 355.134C384.813 355.134 408.194 376.571 421.102 376.404C434.009 376.236 449.211 373.174 458.169 357.737" stroke="white" stroke-linecap="round" stroke-linejoin="round"/>
<path d="M387.72 382.862C387.72 382.862 403.771 397.117 421.714 392.606" stroke="white" stroke-linecap="round" stroke-linejoin="round"/>
<path d="M404.536 404.16C404.536 404.16 412.881 410.48 424.718 404.508" stroke="white" stroke-linecap="round" stroke-linejoin="round"/>
<path d="M365.814 412.957C365.814 412.957 385.286 432.278 415.802 419.528" stroke="white" stroke-linecap="round" stroke-linejoin="round"/>
<path d="M376.371 394.096C376.371 394.096 384.299 399.761 389.264 401.571" stroke="white" stroke-linecap="round" stroke-linejoin="round"/>
<path d="M436.151 317.508C436.151 317.508 453.885 323.313 456.013 346.74" stroke="white" stroke-linecap="round" stroke-linejoin="round"/>
<path d="M445.066 346.448C445.066 346.448 453.231 359.087 439.433 371.74" stroke="white" stroke-linecap="round" stroke-linejoin="round"/>
<path d="M341.821 435.062C341.821 435.062 386.33 473.231 418.668 428.59" stroke="white" stroke-linecap="round" stroke-linejoin="round"/>
<path d="M20.4581 289.71H30.8341" stroke="#FF6D66" stroke-linecap="round" stroke-linejoin="round"/>
<path d="M598.717 164.764H609.107" stroke="#FF6D66" stroke-linecap="round" stroke-linejoin="round"/>
<path d="M320.346 93.4795H330.722" stroke="#FAD8B0" stroke-miterlimit="10"/>
<path d="M618.537 218.648L628.76 220.486" stroke="#FAD8B0" stroke-miterlimit="10"/>
<path d="M210.772 477.866H221.148" stroke="#A0C6F4" stroke-linecap="round" stroke-linejoin="round"/>
<path d="M640.903 351.807C642.8 351.807 644.338 350.268 644.338 348.369C644.338 346.47 642.8 344.93 640.903 344.93C639.005 344.93 637.467 346.47 637.467 348.369C637.467 350.268 639.005 351.807 640.903 351.807Z" fill="#91BA83"/>
<path d="M443.119 204.895C398.055 162.62 345.271 151.721 331.306 149.494C340.709 124.117 355.229 86.3942 358.846 80.7984C361.186 80.5187 363.541 80.3885 365.897 80.4086C376.162 80.4086 398.096 82.5383 429.878 96.8341C475.457 117.352 487.92 140.696 490.395 146.389L443.119 204.895Z" fill="white"/>
<path d="M365.911 83.1926C375.94 83.1926 397.429 85.2945 428.696 99.3676C470.172 118.048 483.566 138.928 487.113 145.986L442.841 200.831C420.951 181.121 395.396 165.918 367.636 156.092C357.047 152.296 346.173 149.349 335.117 147.28C345.493 119.357 356.801 90.5981 360.584 83.4154C361.822 83.2901 363.602 83.1926 365.925 83.1926M365.925 77.6246C363.099 77.5653 360.274 77.761 357.483 78.2093C354.214 79.2951 327.523 151.763 327.523 151.763C327.523 151.763 390.892 158.235 443.411 209.002L493.483 146.891C493.483 146.891 485.138 118.689 430.893 94.2869C399.153 79.991 377.024 77.5829 365.828 77.5829L365.925 77.6246Z" fill="#A0C6F4"/>
<path d="M336.814 157.4C336.814 157.4 399.126 163.692 437.528 198.965" stroke="white" stroke-linecap="round" stroke-linejoin="round"/>
<path d="M390.614 154.352L413.855 109.112L437.751 156.301L390.614 154.352Z" fill="#A0C6F4"/>
<path d="M395.134 153.711L418.375 108.471L442.271 155.646L395.134 153.711Z" stroke="white" stroke-linecap="round" stroke-linejoin="round"/>
<path d="M373.325 74.8685C373.325 74.8685 443.189 81.1742 486.612 132.831" stroke="white" stroke-linecap="round" stroke-linejoin="round"/>
<path d="M409.015 275.344C405.176 272.56 402.658 270.625 402.658 270.625C403.729 269.233 420.545 251.277 430.267 236.842C430.267 236.842 410.586 276.5 409.015 275.344Z" fill="white"/>
<path d="M170.743 144.677C172.607 147.795 173.441 146.556 178.852 146.139C184.262 145.721 191.954 149.675 194.666 156.342C197.378 163.01 196.53 164.04 195.083 164.875C193.637 165.71 183.219 166.949 182.802 169.051" stroke="white" stroke-linecap="round" stroke-linejoin="round"/>
<path d="M310.93 483.574L306.09 475.375L288.884 504.064L293.405 507.544L310.93 483.574Z" fill="#F9865F"/>
<path d="M196.752 412.442C196.752 412.442 187.851 397.938 191.662 390.839L220.091 393.887L196.752 412.442Z" fill="#F9865F"/>
<path d="M196.752 412.442L198.463 416.354L193.206 436.858C192.884 438.124 192.921 439.454 193.311 440.701C193.702 441.947 194.431 443.06 195.417 443.916V443.916L221.413 405.455C222.61 403.687 223.135 401.548 222.893 399.426C222.65 397.304 221.656 395.339 220.091 393.887L214.291 388.486L196.752 412.442Z" fill="black"/>
<path d="M182.844 168.995C190.98 168.801 201.301 168.286 199.242 162.035C197.184 155.785 189.506 140.348 171.897 144.997C171.897 144.997 165.708 150.162 173.455 159.46C181.202 168.759 182.844 168.995 182.844 168.995Z" fill="#2A1E33"/>
<path d="M224.055 394.221C224.055 394.221 210.146 353.171 221.913 335.131C231.649 320.25 263.32 344.457 267.673 347.659L290.359 306.72C290.359 306.72 285.115 299.37 272.277 292.174C259.439 284.977 206.294 263.429 181.341 302.85C172.106 317.411 171.967 379.925 189.687 403.882L224.055 394.221Z" fill="#7595EC"/>
<path d="M224.055 394.221C224.055 394.221 210.146 353.171 221.913 335.131C231.65 320.25 263.32 344.457 267.673 347.659" stroke="white" stroke-linecap="round" stroke-linejoin="round"/>
<path d="M290.359 306.72C280.038 317.578 249.439 370.529 242.568 395.808C233.36 429.647 236.824 457.724 287.396 512.736L311.848 477.101C311.848 477.101 294.657 450.973 297.87 426.348C302.501 390.727 327.829 356.192 340.653 334.295L290.359 306.72Z" fill="#7595EC"/>
<path d="M294.225 311.328L334.895 343.26L347.051 324.774L294.225 311.328Z" fill="white"/>
<path d="M527.796 277.739C534.139 279.093 538.97 281.511 542.289 284.991C545.613 288.457 544.097 290.281 542.887 291.338C541.677 292.396 537.004 291.185 532.929 287.552C528.853 283.919 527.796 277.739 527.796 277.739Z" fill="#FF8A66"/>
<path d="M402.658 270.612C403.729 269.22 420.545 251.263 430.268 236.828C430.268 236.828 459.698 269.818 462.884 270.876C464.08 271.28 471.229 271.182 480.242 271.085C495.389 270.932 515.501 270.779 519.965 273.006C527.045 276.555 531.301 278.337 533.081 283.293C534.862 288.248 535.543 291.505 531.301 291.812C526.336 292.174 523.151 285.784 523.151 285.784C518.485 288.301 513.624 290.437 508.616 292.174C508.616 292.174 470.909 306.817 445.706 299.732C438.835 297.811 402.658 270.612 402.658 270.612Z" fill="#F9865F"/>
<path d="M174.109 138.845C170.868 140.084 168.907 141.559 170.785 144.677C172.662 147.795 173.483 146.557 178.893 146.139C184.304 145.721 191.996 149.675 194.708 156.342C197.42 163.01 196.572 164.04 195.125 164.875C193.679 165.71 183.261 166.949 182.844 169.051C182.426 171.153 187.016 177.278 196.627 176.86L198.922 176.443C198.922 176.443 219.048 196.126 221.955 199.035C224.862 201.944 246.282 216.463 258.118 219.414C267.075 221.655 285.226 218.76 296.145 216.63C301.444 215.6 305.032 214.751 305.032 214.751C305.032 214.751 296.84 199.981 295.185 177.292C295.185 177.292 275.588 180.438 262.569 183.291C262.569 183.291 232.192 166.351 217.421 158.848C217.421 158.848 204.527 143.021 198.491 140.947C192.455 138.873 178.476 137.174 174.109 138.845Z" fill="#F9865F"/>
<path d="M296.103 216.616C301.402 215.586 304.991 214.737 304.991 214.737C304.991 214.737 295.088 202.209 293.419 179.533C293.419 179.533 288.94 184.363 290.331 197.225C292.083 213.373 296.103 216.616 296.103 216.616Z" fill="white"/>
<path d="M292.946 177C292.946 177 293.21 204.728 300.637 216.296L303.308 215.238C303.308 215.238 268.313 256.204 256.977 282.973C255.114 287.343 329.609 334.978 340.625 334.309C340.625 334.309 376.913 278.866 389.306 262.427L402.645 272.769C402.645 272.769 428.807 246.321 430.212 236.842C430.212 236.842 404.939 206.051 384.313 197.044C363.686 188.038 345.145 172.587 322.933 173.005C303.725 173.366 292.946 177 292.946 177Z" fill="#FFF7C9"/>
<path d="M402.7 272.783L389.348 262.427L391.476 256.636L402.7 272.783Z" fill="white"/>
<path d="M422.993 163.107C420.657 170.374 413.911 191.407 406.386 194.01C398.862 196.613 391.087 193.342 391.087 193.342L383.075 197.518C382.171 200.204 375.843 202.515 367.678 202.835C361.628 203.058 357.942 195.29 359.736 189.667C360.557 187.078 363.631 174.355 363.631 174.355C363.631 174.355 370.112 150.468 376.148 145.526C382.185 140.585 387.735 135.713 403.66 142.158C427.917 151.943 422.993 163.107 422.993 163.107Z" fill="#F9865F"/>
<path d="M374.646 164.137C373.575 168.606 368.93 177.542 365.897 175.928C362.865 174.313 361.794 170.22 363.936 162.356C366.078 154.491 367.859 136.645 373.923 133.43C379.987 130.214 382.671 133.959 382.671 133.959C382.671 133.959 380.001 120.916 387.846 119.134C387.846 119.134 390.516 117.881 389.459 126.818C390.497 124.366 392.324 122.331 394.65 121.037C396.976 119.743 399.668 119.264 402.297 119.677C412.116 120.749 415.51 134.502 415.51 134.502C415.787 133.363 416.46 132.36 417.407 131.671C418.355 130.983 419.517 130.654 420.684 130.743C425.149 130.743 431.923 137.355 430.323 144.663C430.323 144.663 441.728 141.086 447.806 150.231C453.885 159.377 453.161 169.33 438.529 173.269C423.23 177.445 423.355 159.516 421.032 157.191C418.709 154.867 416.22 152.194 407.652 155.41C399.084 158.625 390.168 149.16 390.168 149.16C390.168 149.16 388.777 160.588 387.387 161.688C385.996 162.787 383.103 164.179 383.812 158.82C384.521 153.461 385.411 154.004 384.883 152.57C384.354 151.136 381.934 146.64 376.858 150.607C371.03 155.076 374.646 164.137 374.646 164.137Z" fill="#2A1E33"/>
<path d="M377.066 166.211C373.672 163.344 371.308 158.305 374.284 153.266C377.261 148.227 382.185 147.545 383.687 149.452C385.189 151.359 385.759 154.574 384.354 158.388" stroke="#2A1E33" stroke-linecap="round" stroke-linejoin="round"/>
<path d="M293.405 507.53L295.115 511.455L289.858 531.946C289.537 533.211 289.573 534.542 289.964 535.788C290.354 537.034 291.083 538.148 292.069 539.003V539.003L318.065 500.542C319.262 498.774 319.787 496.635 319.545 494.513C319.302 492.391 318.309 490.427 316.744 488.975L310.944 483.588L293.405 507.53Z" fill="black"/>
<path d="M382.672 133.959C382.672 133.959 380.683 127.486 374.716 125.774" stroke="#2A1E33" stroke-linecap="round" stroke-linejoin="round"/>
<path d="M256.185 281.01L328.205 180.326" stroke="white" stroke-linecap="round" stroke-linejoin="round"/>
<path d="M357.886 187.37C355.299 190.739 354.117 205.271 366.05 206.218C372.864 206.899 379.719 205.393 385.62 201.916" stroke="white" stroke-linecap="round" stroke-linejoin="round"/>
<path d="M275.059 325.345L264.363 345.78C264.363 345.78 229.257 405.232 241.163 443.651" stroke="white" stroke-linecap="round" stroke-linejoin="round"/>
<path d="M306.104 393.567L340.653 334.309C340.653 334.309 385.926 268.593 390.558 259.309L406.539 229.729" stroke="white" stroke-linecap="round" stroke-linejoin="round"/>
<path d="M261.011 287.316C261.011 287.316 322.432 332.124 340.653 334.296" stroke="white" stroke-linecap="round" stroke-linejoin="round"/>
<path d="M292.946 177C292.946 177 292.946 205.132 300.471 216.658" stroke="white" stroke-linecap="round" stroke-linejoin="round"/>
<path d="M428.306 232.373C426.373 243.969 400.725 268.315 400.725 268.315" stroke="white" stroke-linecap="round" stroke-linejoin="round"/>
<path d="M236.963 376.765C238.975 376.765 240.607 375.133 240.607 373.118C240.607 371.104 238.975 369.471 236.963 369.471C234.95 369.471 233.319 371.104 233.319 373.118C233.319 375.133 234.95 376.765 236.963 376.765Z" fill="white"/>
<path d="M579.175 451.558L577.159 437.596L589.065 445.516L582.833 446.88L579.175 451.558Z" stroke="white" stroke-linecap="round" stroke-linejoin="round"/>
<path d="M184.54 213.191C161.98 193.286 124.732 242.938 261.039 400.986C339.693 492.148 401.518 500.333 409.863 468.61C424.885 411.705 370.64 397.325 390.822 419.611C420.17 452.017 503.65 458.866 565.851 428.617C627.23 398.787 589.496 352.433 585.698 349.733" stroke="white" stroke-linecap="round" stroke-linejoin="round"/>
<path d="M566.866 431.986C568.879 431.986 570.51 430.353 570.51 428.339C570.51 426.325 568.879 424.692 566.866 424.692C564.853 424.692 563.222 426.325 563.222 428.339C563.222 430.353 564.853 431.986 566.866 431.986Z" fill="white"/>
<path d="M513.79 458.142L621.917 397.144" stroke="white" stroke-linecap="round" stroke-linejoin="round"/>
<path d="M186.78 219.803C188.792 219.803 190.424 218.171 190.424 216.156C190.424 214.142 188.792 212.509 186.78 212.509C184.767 212.509 183.136 214.142 183.136 216.156C183.136 218.171 184.767 219.803 186.78 219.803Z" fill="white"/>
<path d="M279.788 148.631C284.113 148.631 287.619 145.122 287.619 140.794C287.619 136.465 284.113 132.957 279.788 132.957C275.463 132.957 271.957 136.465 271.957 140.794C271.957 145.122 275.463 148.631 279.788 148.631Z" fill="#FF6D66"/>
<path d="M137.793 81.049C137.11 81.0462 136.441 81.2467 135.871 81.6249C135.302 82.0032 134.858 82.5422 134.595 83.1736C134.332 83.805 134.263 84.5003 134.395 85.1712C134.528 85.8421 134.857 86.4585 135.34 86.9421C135.823 87.4258 136.439 87.7548 137.11 87.8876C137.78 88.0203 138.475 87.9508 139.106 87.6878C139.736 87.4248 140.275 86.9802 140.653 86.4104C141.031 85.8405 141.231 85.1711 141.228 84.4872C141.228 83.5753 140.867 82.7008 140.222 82.056C139.578 81.4112 138.704 81.049 137.793 81.049V81.049Z" fill="#A0C6F4"/>
<path d="M598.717 508.644C600.615 508.644 602.153 507.104 602.153 505.205C602.153 503.306 600.615 501.767 598.717 501.767C596.82 501.767 595.282 503.306 595.282 505.205C595.282 507.104 596.82 508.644 598.717 508.644Z" fill="#FAD8B0"/>
<path d="M537.268 349.719L500.284 332.347C499.622 332.033 499.064 331.536 498.675 330.915C498.287 330.293 498.085 329.573 498.094 328.84C498.103 328.107 498.322 327.392 498.725 326.78C499.128 326.167 499.698 325.684 500.368 325.387L569.175 295.083C569.658 294.873 570.178 294.765 570.705 294.765C571.231 294.765 571.752 294.873 572.235 295.083L619.525 315.392L537.268 349.719Z" fill="#2A1E33"/>
<path d="M534.973 292.633C535.071 307.945 537.268 349.705 537.268 349.705L619.483 315.336L617.647 257.207C617.617 256.385 617.386 255.583 616.974 254.872C616.561 254.161 615.98 253.563 615.282 253.13C614.584 252.696 613.79 252.442 612.97 252.388C612.15 252.334 611.33 252.483 610.581 252.822L539.786 285.102C538.344 285.76 537.122 286.82 536.268 288.156C535.414 289.492 534.965 291.047 534.973 292.633V292.633Z" fill="#C6CBCB"/>
<path d="M537.268 349.719L619.483 315.35L617.647 257.221C617.647 257.221 617.091 250.873 610.582 252.836" stroke="white" stroke-linecap="round" stroke-linejoin="round"/>
<path d="M577.047 307.945L582.611 294.818" stroke="white" stroke-linecap="round" stroke-linejoin="round"/>
<path d="M582.611 307.945L588.161 294.818" stroke="white" stroke-linecap="round" stroke-linejoin="round"/>
<path d="M152.62 451.182C154.517 451.182 156.055 449.642 156.055 447.743C156.055 445.845 154.517 444.305 152.62 444.305C150.722 444.305 149.184 445.845 149.184 447.743C149.184 449.642 150.722 451.182 152.62 451.182Z" fill="#FF6D66"/>
<path d="M442.66 469.598C445.303 469.598 447.445 467.454 447.445 464.809C447.445 462.165 445.303 460.021 442.66 460.021C440.018 460.021 437.876 462.165 437.876 464.809C437.876 467.454 440.018 469.598 442.66 469.598Z" fill="#FF6D66"/>
<path d="M188.268 498.788C201.888 505.048 216.718 508.232 231.705 508.115C231.983 508.112 232.259 508.17 232.513 508.283C232.767 508.396 232.994 508.563 233.179 508.771C233.363 508.979 233.501 509.225 233.583 509.491C233.664 509.757 233.688 510.038 233.652 510.314L230.648 534.159C230.6 534.573 230.42 534.961 230.135 535.264C229.849 535.568 229.473 535.771 229.063 535.843C222.984 536.985 198.463 540.353 180.076 524.777C179.798 524.535 179.595 524.22 179.489 523.868C179.384 523.516 179.379 523.141 179.478 522.786L185.542 500.055C185.614 499.777 185.747 499.518 185.931 499.297C186.115 499.076 186.346 498.899 186.606 498.778C186.867 498.657 187.151 498.595 187.438 498.597C187.726 498.599 188.009 498.664 188.268 498.788V498.788Z" fill="#FFF7DC"/>
<path d="M190.424 505.859C190.424 505.859 201.036 520.768 204.82 522.898C208.603 525.027 229.007 512.819 229.007 512.819" stroke="white" stroke-linecap="round" stroke-linejoin="round"/>
<path d="M214.806 520.768L225.947 532.224" stroke="white" stroke-linecap="round" stroke-linejoin="round"/>
<path d="M199.326 518.555L186.307 522.104" stroke="white" stroke-linecap="round" stroke-linejoin="round"/>
<path d="M529.382 216.783H516.933V229.241H529.382V216.783Z" fill="#FFE1C0"/>
<path d="M518.616 384.797L522.316 391.2L526.016 397.618H518.616H511.217L514.917 391.2L518.616 384.797Z" fill="#A0C6F4"/>
<path d="M219.507 100.704L220.467 71.5973C220.369 68.8829 221.468 68.0198 223.151 67.644C231.051 65.89 255.141 60.5448 281.193 68.2704C284.573 69.2587 284.461 71.0543 284.406 72.6691L283.474 100.412C283.406 100.932 283.23 101.433 282.957 101.881C282.684 102.329 282.32 102.715 281.889 103.014C281.458 103.313 280.969 103.518 280.454 103.617C279.939 103.715 279.409 103.705 278.898 103.585C269.429 102.451 259.891 101.986 250.357 102.193C241.187 102.155 232.029 102.895 222.984 104.407C220.397 104.963 219.424 102.987 219.507 100.704Z" stroke="white" stroke-linecap="round" stroke-linejoin="round"/>
<path d="M228.298 96.4585L243.5 78.6409L260.33 95.2195C254.53 93.3682 228.298 96.4585 228.298 96.4585Z" stroke="white" stroke-linecap="round" stroke-linejoin="round"/>
<path d="M252.819 86.8953L265.1 77.04L275.462 84.4454L275.852 96.0129L260.33 95.2752" stroke="white" stroke-linecap="round" stroke-linejoin="round"/>
<path d="M234.868 77.2868C235.009 75.887 233.791 74.6176 232.148 74.4514C230.505 74.2852 229.058 75.2853 228.917 76.685C228.776 78.0847 229.993 79.3542 231.636 79.5204C233.28 79.6865 234.726 78.6865 234.868 77.2868Z" stroke="white" stroke-linecap="round" stroke-linejoin="round"/>
<path d="M513.526 478.924L523.735 497.772C524.806 499.456 524.416 500.417 523.498 501.28C519.131 505.331 505.862 517.664 486.39 522.48C483.886 523.092 483.288 521.923 482.718 520.879L472.981 502.908C472.834 502.553 472.763 502.17 472.771 501.785C472.779 501.4 472.867 501.021 473.029 500.671C473.191 500.322 473.424 500.01 473.712 499.756C474.001 499.501 474.34 499.309 474.706 499.192C481.141 496.389 487.37 493.133 493.344 489.448C499.185 486.066 504.727 482.192 509.909 477.866C511.398 476.628 512.733 477.449 513.526 478.924Z" stroke="white" stroke-linecap="round" stroke-linejoin="round"/>
<path d="M509.52 484.896L506.488 501.864L489.617 497.508C494.012 496.603 509.52 484.896 509.52 484.896Z" stroke="white" stroke-linecap="round" stroke-linejoin="round"/>
<path d="M497.489 500.097L493.344 510.926L484.011 510.077L479.477 502.881L489.616 497.577" stroke="white" stroke-linecap="round" stroke-linejoin="round"/>
<path d="M515.141 500.4C516.245 499.895 516.793 498.726 516.365 497.789C515.938 496.852 514.696 496.502 513.592 497.007C512.488 497.512 511.94 498.681 512.368 499.618C512.796 500.554 514.037 500.905 515.141 500.4Z" stroke="white" stroke-linecap="round" stroke-linejoin="round"/>
<path d="M463.871 157.122L505.319 188.859C505.535 189.024 505.782 189.144 506.045 189.213C506.307 189.282 506.581 189.298 506.85 189.26C507.119 189.223 507.378 189.132 507.611 188.994C507.845 188.856 508.05 188.673 508.212 188.456L514.458 179.964C514.767 179.543 514.902 179.018 514.834 178.5C514.767 177.981 514.502 177.509 514.096 177.18L473.246 144.455C473.027 144.283 472.777 144.157 472.509 144.085C472.241 144.012 471.961 143.994 471.686 144.032C471.411 144.069 471.146 144.162 470.908 144.304C470.669 144.446 470.461 144.634 470.297 144.858L463.454 154.31C463.153 154.744 463.028 155.276 463.105 155.799C463.183 156.321 463.457 156.794 463.871 157.122Z" fill="white" stroke="white" stroke-linecap="round" stroke-linejoin="round"/>
<path d="M466.931 155.702L476.987 162.759L482.912 155.674L472.87 147.294L466.931 155.702Z" fill="#FF6D66"/>
<path d="M480.77 165.516L490.826 173.506L496.223 166.866L486.097 158.639L480.77 165.516Z" fill="#FAD8B0"/>
<path d="M494.22 176.568L504.263 183.625L509.061 177.473L499.534 169.497L494.22 176.568Z" fill="#A0C6F4"/>
<path d="M546.559 112.731L556.017 192.158C556.062 192.577 556.189 192.982 556.393 193.35C556.597 193.717 556.872 194.041 557.203 194.3C557.533 194.56 557.913 194.75 558.318 194.861C558.724 194.971 559.147 194.999 559.564 194.942L575.489 192.66C576.293 192.552 577.023 192.136 577.527 191.5C578.03 190.864 578.267 190.057 578.188 189.249L570.44 109.432C570.396 109.011 570.267 108.603 570.062 108.233C569.857 107.864 569.579 107.539 569.245 107.279C568.911 107.019 568.528 106.829 568.12 106.721C567.711 106.612 567.284 106.588 566.866 106.648L549.174 109.237C548.369 109.364 547.646 109.801 547.158 110.453C546.67 111.105 546.455 111.923 546.559 112.731V112.731Z" fill="white" stroke="white" stroke-linecap="round" stroke-linejoin="round"/>
<path d="M551.385 114.596L554.376 133.165L568.479 132.121L566.949 112.118L551.385 114.596Z" fill="#FF6D66"/>
<path d="M555.405 140.265L557.38 159.85L570.427 158.695L568.632 138.775L555.405 140.265Z" fill="#91BA83"/>
<path d="M557.631 166.852L560.621 185.435L572.485 184.113L571.066 165.14L557.631 166.852Z" fill="#FAD8B0"/>
<path d="M525.946 129.644L552.095 206.58C552.203 206.893 552.372 207.183 552.592 207.431C552.812 207.679 553.08 207.881 553.379 208.024C553.678 208.168 554.002 208.251 554.333 208.268C554.664 208.286 554.996 208.237 555.308 208.125L571.679 202.223C572.286 202.004 572.786 201.559 573.074 200.981C573.361 200.403 573.415 199.735 573.222 199.118L548.66 121.431C548.558 121.109 548.392 120.811 548.172 120.555C547.952 120.299 547.682 120.09 547.379 119.942C547.076 119.793 546.746 119.708 546.409 119.691C546.072 119.675 545.735 119.727 545.419 119.844L527.449 126.498C526.837 126.721 526.337 127.176 526.056 127.764C525.775 128.352 525.736 129.027 525.946 129.644V129.644Z" fill="white" stroke="white" stroke-linecap="round" stroke-linejoin="round"/>
<path d="M531.246 131.05L538.033 148.603L551.608 144.635L545.961 125.398L531.246 131.05Z" fill="#A0C6F4"/>
<path d="M540.509 155.326L546.517 174.076L559.035 170.22L553.138 151.108L540.509 155.326Z" fill="#F9865F"/>
<path d="M548.214 180.869L555.002 198.408L566.337 194.65L561.01 176.401L548.214 180.869Z" fill="#FAD8B0"/>
<path d="M328.858 226.819H196.794C192.585 226.819 189.172 230.234 189.172 234.447V252.335C189.172 256.547 192.585 259.963 196.794 259.963H328.858C333.068 259.963 336.48 256.547 336.48 252.335V234.447C336.48 230.234 333.068 226.819 328.858 226.819Z" fill="#7595EC"/>
<path d="M279.371 236.577H207.379C205.988 236.577 204.861 237.705 204.861 239.097C204.861 240.488 205.988 241.616 207.379 241.616H279.371C280.761 241.616 281.888 240.488 281.888 239.097C281.888 237.705 280.761 236.577 279.371 236.577Z" fill="white"/>
<path d="M205.584 248.159H327.968" stroke="white" stroke-linecap="round" stroke-linejoin="round"/>
<path d="M143.001 164.474L145.083 166.755C145.293 166.985 145.455 167.253 145.561 167.545C145.666 167.838 145.714 168.148 145.7 168.458C145.686 168.769 145.611 169.073 145.479 169.355C145.347 169.636 145.161 169.889 144.932 170.098L141.523 173.215C141.06 173.639 140.448 173.86 139.821 173.832C139.195 173.804 138.605 173.527 138.182 173.064L136.1 170.782L143.001 164.474Z" fill="#91BA83"/>
<path d="M124.207 160.025L134.028 170.786C134.536 171.342 135.398 171.381 135.954 170.873L142.742 164.668C143.298 164.16 143.337 163.297 142.829 162.74L133.007 151.98C132.5 151.423 131.638 151.384 131.082 151.893L124.294 158.098C123.738 158.606 123.699 159.469 124.207 160.025Z" stroke="white" stroke-linecap="round" stroke-linejoin="round"/>
<path d="M113.967 208.918H101.63V220.193H113.967V208.918Z" fill="#FF6D66"/>
<path d="M101.63 201.666V208.918H94.2444" stroke="white" stroke-linecap="round" stroke-linejoin="round"/>
<path d="M520.452 81.5918H508.115V92.867H520.452V81.5918Z" fill="#FAD8B0"/>
<path d="M508.115 74.3395V81.5919H500.73" stroke="white" stroke-linecap="round" stroke-linejoin="round"/>
<path d="M174.192 151.289C46.2312 98.2123 -52.2015 200.413 188.922 356.916C207.907 369.235 237.018 373.62 237.018 373.62" stroke="white" stroke-linecap="round" stroke-linejoin="round"/>
<path d="M56.5377 158.5C58.5502 158.5 60.1818 156.867 60.1818 154.853C60.1818 152.839 58.5502 151.206 56.5377 151.206C54.5251 151.206 52.8936 152.839 52.8936 154.853C52.8936 156.867 54.5251 158.5 56.5377 158.5Z" fill="white"/>
<path d="M33.3237 134.822L37.3156 130.98L46.4954 136.242L51.0992 150.482L37.0235 144.58L33.3237 134.822Z" stroke="white" stroke-linecap="round" stroke-linejoin="round"/>
<path d="M37.3156 130.98L33.3238 134.822L31.0845 132.107L34.9233 128.433L37.3156 130.98Z" stroke="white" stroke-linecap="round" stroke-linejoin="round"/>
<path d="M51.0992 150.482L41.9473 140.418" stroke="white" stroke-linecap="round" stroke-linejoin="round"/>
<path d="M73.2839 406.025L83.2287 457.293C83.28 457.56 83.3842 457.814 83.5349 458.041C83.6857 458.267 83.8802 458.461 84.1068 458.612C84.3335 458.762 84.5878 458.866 84.855 458.917C85.1221 458.967 85.3967 458.964 85.6627 458.908L95.9691 456.722C96.4869 456.611 96.942 456.305 97.2399 455.867C97.5378 455.428 97.6556 454.892 97.5687 454.37L88.6809 402.754C88.6329 402.481 88.5303 402.221 88.3793 401.988C88.2283 401.756 88.032 401.556 87.8021 401.402C87.5723 401.247 87.3136 401.14 87.0416 401.088C86.7695 401.036 86.4898 401.039 86.2191 401.098L74.8278 403.631C74.3117 403.754 73.8631 404.072 73.5755 404.518C73.2879 404.964 73.1834 405.504 73.2839 406.025V406.025Z" fill="white" stroke="white" stroke-linecap="round" stroke-linejoin="round"/>
<path d="M76.5107 407.014L79.3482 418.957L88.4862 417.607L86.5251 404.647L76.5107 407.014Z" fill="#FF6D66"/>
<path d="M80.3495 423.537L82.5749 436.19L91.0176 434.812L88.9034 421.922L80.3495 423.537Z" fill="#FAD8B0"/>
<path d="M83.0757 440.742L85.9131 452.699L93.5768 451.265L91.7408 438.988L83.0757 440.742Z" fill="#A0C6F4"/>
<path d="M357.969 534.535L399.988 523.273L401.588 527.825L359.096 538.864L357.969 534.535Z" stroke="white" stroke-linecap="round" stroke-linejoin="round"/>
<path d="M352.142 528.647L353.352 532.461" stroke="white" stroke-linecap="round" stroke-linejoin="round"/>
<path d="M350.959 531.138L354.506 529.913" stroke="white" stroke-linecap="round" stroke-linejoin="round"/>
<path d="M350.097 543.221L352.392 550.431" stroke="white" stroke-linecap="round" stroke-linejoin="round"/>
<path d="M348.15 547.8L354.464 545.782" stroke="white" stroke-linecap="round" stroke-linejoin="round"/>
<path d="M340.5 531.347L343.476 540.882" stroke="white" stroke-linecap="round" stroke-linejoin="round"/>
<path d="M337.537 537.277L346.383 534.451" stroke="white" stroke-linecap="round" stroke-linejoin="round"/>
<path d="M51.614 77.736L25.0203 65.7091L26.1191 62.6746L52.8657 74.9938L51.614 77.736Z" stroke="white" stroke-width="0.67" stroke-linecap="round" stroke-linejoin="round"/>
<path d="M52.1423 83.2623L53.1299 80.7567" stroke="white" stroke-width="0.67" stroke-linecap="round" stroke-linejoin="round"/>
<path d="M53.8114 82.4688L51.4608 81.5918" stroke="white" stroke-width="0.67" stroke-linecap="round" stroke-linejoin="round"/>
<path d="M59.3889 76.5528L61.2527 71.8478" stroke="white" stroke-width="0.67" stroke-linecap="round" stroke-linejoin="round"/>
<path d="M62.3375 75.0077L58.2065 73.379" stroke="white" stroke-width="0.67" stroke-linecap="round" stroke-linejoin="round"/>
<path d="M59.3333 86.8118L61.8229 80.5896" stroke="white" stroke-width="0.67" stroke-linecap="round" stroke-linejoin="round"/>
<path d="M63.3808 84.9883L57.5947 82.6915" stroke="white" stroke-width="0.67" stroke-linecap="round" stroke-linejoin="round"/>
<path d="M150.978 302.447C132.243 288.944 113.828 267.967 121.909 246.405C121.909 246.405 134.83 237.788 155.29 248.562L175.75 259.336L150.978 302.447Z" fill="#FAD8B0"/>
<path d="M142.48 392.412C134.051 388.43 98.0415 369.666 91.6434 337.608C86.0799 309.908 107.263 272.574 117.875 256.079C117.194 277.975 139.156 296.447 149.754 304.145C158.776 310.784 168.732 316.048 179.297 319.763L142.48 392.412Z" fill="white"/>
<path d="M116.262 262.594C118.557 277.14 129.656 292.229 148.545 305.843C157.064 312.143 166.429 317.208 176.362 320.891L141.59 389.641C130.978 384.338 99.5577 366.395 93.7299 337.205C88.8618 312.887 105.344 280.62 116.304 262.594M121.951 246.405C121.951 246.405 82.1021 300.303 89.6407 338.026C97.1793 375.749 143.482 395.098 143.482 395.098L182.26 318.538C170.131 314.084 162.273 310.464 151.02 302.363C132.285 288.861 113.87 267.883 121.951 246.321V246.405Z" fill="#FAD8B0"/>
<path d="M111.422 277.725C112.592 284.737 115.362 291.385 119.515 297.152C123.669 302.92 129.096 307.651 135.373 310.98" stroke="white" stroke-linecap="round" stroke-linejoin="round"/>
<path d="M146.959 318.705L168.587 330.3" stroke="white" stroke-linecap="round" stroke-linejoin="round"/>
<path d="M114.51 308.655C114.51 308.655 121.464 324.106 143.871 334.17" stroke="white" stroke-linecap="round" stroke-linejoin="round"/>
<path d="M96.748 310.979C96.748 310.979 97.5131 327.224 108.334 332.625" stroke="white" stroke-linecap="round" stroke-linejoin="round"/>
<path d="M121.464 254.534C121.464 254.534 119.461 275.414 150.978 302.447" stroke="white" stroke-linecap="round" stroke-linejoin="round"/>
<path d="M133.05 258.39C133.05 258.39 143.092 257.624 157.78 268.44" stroke="white" stroke-linecap="round" stroke-linejoin="round"/>
<path d="M85.8991 324.969C85.2454 335.312 86.5389 372.784 140.783 396.699" stroke="white" stroke-linecap="round" stroke-linejoin="round"/>
<path d="M432.229 304.117L409.224 350.262C409.224 350.262 424.829 356.011 412.617 373.926C412.617 373.926 441.464 385.897 460.338 354.8C479.213 323.702 432.229 304.117 432.229 304.117Z" fill="#91BA83"/>
<path d="M379.542 445.14C367.9 445.14 355.605 440.394 342.99 430.998L386.037 359.699L411.63 375.833L411.797 375.902C416.273 377.544 421.008 378.365 425.775 378.324C433.861 378.37 441.757 375.872 448.349 371.183L416.929 424.998C416.818 425.123 403.27 445.14 379.542 445.14Z" fill="white"/>
<path d="M386.719 362.484L410.364 377.392L410.656 377.573L410.99 377.712C415.716 379.465 420.721 380.342 425.761 380.301C431.562 380.325 437.302 379.12 442.605 376.765L415.149 423.759C414.231 425.151 401.365 442.997 379.528 442.997C368.804 442.997 357.455 438.821 345.758 430.385L386.719 362.484ZM460.311 354.73C449.643 372.297 435.803 376.125 425.775 376.125C421.28 376.162 416.814 375.394 412.589 373.856L385.342 356.679L340.236 431.527C355.341 443.178 368.512 447.229 379.542 447.229C404.745 447.229 418.695 426.042 418.695 426.042L460.311 354.786V354.73Z" fill="#96BD89"/>
<path d="M409.196 350.262C409.196 350.262 426.345 356.331 412.589 373.926" stroke="white" stroke-linecap="round" stroke-linejoin="round"/>
<path d="M384.813 355.134C384.813 355.134 408.194 376.571 421.102 376.404C434.009 376.236 449.211 373.174 458.169 357.737" stroke="white" stroke-linecap="round" stroke-linejoin="round"/>
<path d="M387.72 382.862C387.72 382.862 403.771 397.117 421.714 392.606" stroke="white" stroke-linecap="round" stroke-linejoin="round"/>
<path d="M404.536 404.16C404.536 404.16 412.881 410.48 424.718 404.508" stroke="white" stroke-linecap="round" stroke-linejoin="round"/>
<path d="M365.814 412.957C365.814 412.957 385.286 432.278 415.802 419.528" stroke="white" stroke-linecap="round" stroke-linejoin="round"/>
<path d="M376.371 394.096C376.371 394.096 384.299 399.761 389.264 401.571" stroke="white" stroke-linecap="round" stroke-linejoin="round"/>
<path d="M436.151 317.508C436.151 317.508 453.885 323.313 456.013 346.74" stroke="white" stroke-linecap="round" stroke-linejoin="round"/>
<path d="M445.066 346.448C445.066 346.448 453.231 359.087 439.433 371.74" stroke="white" stroke-linecap="round" stroke-linejoin="round"/>
<path d="M341.821 435.062C341.821 435.062 386.33 473.231 418.668 428.59" stroke="white" stroke-linecap="round" stroke-linejoin="round"/>
<path d="M20.4581 289.71H30.8341" stroke="#FF6D66" stroke-linecap="round" stroke-linejoin="round"/>
<path d="M598.717 164.764H609.107" stroke="#FF6D66" stroke-linecap="round" stroke-linejoin="round"/>
<path d="M320.346 93.4795H330.722" stroke="#FAD8B0" stroke-miterlimit="10"/>
<path d="M618.537 218.648L628.76 220.486" stroke="#FAD8B0" stroke-miterlimit="10"/>
<path d="M210.772 477.866H221.148" stroke="#A0C6F4" stroke-linecap="round" stroke-linejoin="round"/>
<path d="M640.903 351.807C642.8 351.807 644.338 350.268 644.338 348.369C644.338 346.47 642.8 344.93 640.903 344.93C639.005 344.93 637.467 346.47 637.467 348.369C637.467 350.268 639.005 351.807 640.903 351.807Z" fill="#91BA83"/>
</svg>
