<svg width="31" height="21" viewBox="0 0 31 21" fill="none" xmlns="http://www.w3.org/2000/svg">
<path d="M11.3759 10.5C11.3759 11.4567 11.7954 12.3743 12.5422 13.0508C13.2889 13.7273 14.3017 14.1074 15.3578 14.1074C16.4138 14.1074 17.4266 13.7273 18.1734 13.0508C18.9201 12.3743 19.3397 11.4567 19.3397 10.5C19.3397 9.54327 18.9201 8.62572 18.1734 7.94921C17.4266 7.2727 16.4138 6.89264 15.3578 6.89264C14.3017 6.89264 13.2889 7.2727 12.5422 7.94921C11.7954 8.62572 11.3759 9.54327 11.3759 10.5ZM30.7947 9.66902C27.4243 3.23696 22.3296 0 15.5 0C8.6668 0 3.57568 3.23696 0.205299 9.67224C0.0701119 9.93157 0 10.2148 0 10.5016C0 10.7884 0.0701119 11.0716 0.205299 11.331C3.57568 17.763 8.67035 21 15.5 21C22.3332 21 27.4243 17.763 30.7947 11.3278C31.0684 10.806 31.0684 10.2005 30.7947 9.66902ZM15.3578 16.1687C11.9021 16.1687 9.10054 13.6307 9.10054 10.5C9.10054 7.36933 11.9021 4.83129 15.3578 4.83129C18.8135 4.83129 21.615 7.36933 21.615 10.5C21.615 13.6307 18.8135 16.1687 15.3578 16.1687Z" fill="#4931AD"/>
</svg>
