<svg width="34" height="34" viewBox="0 0 34 34" fill="none" xmlns="http://www.w3.org/2000/svg">
<path d="M16.8787 10.3296C20.6532 10.3296 23.7166 13.393 23.7166 17.1675C23.7166 18.0564 23.5388 18.8907 23.2242 19.6702L27.2176 23.6635C29.2826 21.9404 30.9101 19.7112 31.9084 17.1675C29.5425 11.1638 23.7029 6.91063 16.865 6.91063C14.9504 6.91063 13.1178 7.25252 11.422 7.86794L14.376 10.8219C15.1555 10.5074 15.9897 10.3296 16.8787 10.3296ZM3.20282 6.59608L6.32091 9.71418L6.95 10.3433C4.67981 12.1074 2.90195 14.4597 1.83524 17.1675C4.20116 23.1712 10.0407 27.4244 16.8787 27.4244C18.9984 27.4244 21.0224 27.0141 22.8687 26.2756L23.4431 26.85L27.4501 30.8433L29.1869 29.1065L4.93965 4.85925L3.20282 6.59608ZM10.7656 14.1588L12.8853 16.2786C12.8169 16.5658 12.7759 16.8666 12.7759 17.1675C12.7759 19.4377 14.6085 21.2703 16.8787 21.2703C17.1795 21.2703 17.4804 21.2292 17.7676 21.1608L19.8873 23.2806C18.9711 23.7319 17.959 24.0054 16.8787 24.0054C13.1041 24.0054 10.0407 20.942 10.0407 17.1675C10.0407 16.0871 10.3143 15.0751 10.7656 14.1588V14.1588ZM16.6598 13.0921L20.9677 17.4L20.9951 17.1812C20.9951 14.911 19.1625 13.0784 16.8923 13.0784L16.6598 13.0921Z" fill="#4931AD"/>
</svg>
